<?xml version="1.0" encoding="utf-8"?>
<!-- Generator: Adobe Illustrator 21.0.0, SVG Export Plug-In . SVG Version: 6.00 Build 0)  -->
<svg version="1.1" id="Calque_1" xmlns="http://www.w3.org/2000/svg" xmlns:xlink="http://www.w3.org/1999/xlink" x="0px" y="0px"
	 viewBox="0 0 219.4 301.9" style="enable-background:new 0 0 219.4 301.9;" xml:space="preserve">
<style type="text/css">
	.st0{fill:none;stroke:#1A171B;stroke-width:0.5;}
	.st1{fill:#4B4B4D;}
	.st2{fill:#1A171B;}
	.st3{fill:none;stroke:#1A171B;stroke-width:0.8;}
	.st4{fill:none;stroke:#E2E3E4;stroke-width:1.4;stroke-linecap:round;stroke-linejoin:round;}
	.st5{fill:none;stroke:#E2E3E4;stroke-width:1.4;stroke-linecap:round;stroke-linejoin:round;stroke-dasharray:0.9852,2.9556;}
	.st6{fill:#E2E3E4;}
	.st7{fill:none;stroke:#00B0E5;stroke-width:1.4;stroke-linecap:round;stroke-linejoin:round;stroke-dasharray:3,3;}
	.st8{fill:#CECFD1;stroke:#CECFD1;stroke-width:0.8;stroke-miterlimit:10;}
	.st9{fill:none;stroke:#1A171B;stroke-width:0.5;stroke-miterlimit:10;}
	.st10{fill:#00B0E5;stroke:#00B0E5;stroke-width:0.8;stroke-miterlimit:10;}
	.st11{fill:none;stroke:#00B0E5;stroke-width:1.4;stroke-linecap:round;stroke-linejoin:round;}
	.st12{fill:none;stroke:#1A171B;stroke-width:0.5;stroke-dasharray:3.1622,2.1081;}
	.st13{fill:#B0B2B3;}
	.st14{fill:none;stroke:#CECFD1;stroke-width:1.4;stroke-linecap:round;stroke-linejoin:round;}
	.st15{fill:#EC7703;}
	.st16{fill:#FFFFFF;}
	.st17{fill:none;stroke:#EC7703;stroke-width:1.2;stroke-linecap:round;stroke-linejoin:round;stroke-miterlimit:10;}
	.st18{fill:#00B0E5;}
</style>
<path class="st0" d="M1,291.1c18,0,36,0.5,54.1,0.5c7.3,0,14.7-0.2,22-0.2c4.3,0,8.6,0.1,13,0.6c1.4,0.2,7.6,0.2,8.4,1.6"/>
<path class="st1" d="M49,263.5c-0.2,0.1-0.2-0.1-0.3-0.1l-0.1,0.2l0,0l0,0v0c-0.1,0-0.1-0.1-0.2-0.1l0,0c-0.1,0-0.1,0-0.1-0.1l0.1,0
	c-0.1,0-0.1,0-0.2,0l0,0c0,0-0.2,0-0.3,0.1c-0.1,0-0.2,0.1-0.3,0.2l0,0c0,0,0,0,0,0.1c0,0,0-0.1,0-0.1c-0.1,0-0.3,0.2-0.4,0.4
	c-0.1,0.2-0.2,0.4-0.2,0.5c0,0.1,0,0,0,0c0,0.1,0,0,0,0.1c0,0,0,0,0,0c0,0,0,0.1,0,0.1c0,0,0,0,0.1,0c0,0,0,0.1,0,0.1l0,0
	c0,0,0,0,0,0.1c0,0.1,0,0.3,0,0.4c0,0,0,0,0,0c0,0,0,0,0,0.1c0,0,0,0,0,0c0,0.1,0.1,0.1,0.1,0.2l-0.1,0.1c0,0,0,0,0-0.1
	c0,0,0,0.1,0,0.1l0.1-0.1c0.1,0,0,0.1,0,0.1c-0.1,0.1-0.1,0-0.2,0c0,0,0,0.1,0.1,0.1c0,0.1-0.1,0.1,0,0.1c0,0,0.1,0,0.1,0l0,0
	c0,0.1,0.1,0.1,0.2,0.1h0c0,0,0,0,0,0.1l0,0l0,0c0,0.1,0.1,0.1,0.1,0.1c0,0,0,0,0-0.1c0,0,0,0,0.1,0c0,0,0.1,0.1,0.1,0.1l0.1,0
	c0.2,0.2,0.5,0.3,0.7,0.5l0,0c0.3,0.2,0.9,0.7,1.3,0.8c0,0.1,0.1,0.1,0.1,0.2c0,0,0-0.1,0.1-0.1c0.1,0.1,0,0,0.2,0.1
	c0.2,0.1,0.9,0.7,1,0.8c0.2,0,0.2,0.1,0.3,0.1l0,0c0.1,0,0.6,0.5,0.7,0.6l0,0c0.1,0,0,0.1,0.1,0.2c0.1-0.1,0.2-0.1,0.2-0.1l0,0
	c0.1,0,0.2,0,0.3,0l0,0.1c0.1,0,0.2,0.1,0.3,0.1c0.1,0.1,0.2,0.3,0.4,0.3l0,0.2l0,0c0,0,0.1-0.1,0.2-0.2c0,0,0,0,0,0c0,0,0,0,0,0
	c0.1,0,0.2,0,0.3,0c0,0,0,0,0,0s0.1,0,0.2,0c0.1,0,0.2-0.1,0.2-0.1l0,0c0.1,0,0,0,0.1,0c0-0.1,0.1-0.1,0.2-0.1c0,0,0,0,0,0
	c0,0,0,0,0.1-0.1c0,0,0,0,0,0c0,0,0,0,0-0.1c0,0,0,0,0,0c0.1-0.1,0.3-0.2,0.4-0.5c0.1-0.2,0.2-0.5,0.2-0.6c0,0,0,0.1-0.1,0.1
	c0,0,0-0.1,0-0.1c0,0,0-0.1,0.1-0.2l0,0l0,0c0-0.2,0-0.1,0-0.2c0-0.1-0.1-0.1-0.1-0.2c0,0,0,0,0,0c0,0,0-0.1,0-0.1
	c0,0-0.1-0.1-0.1-0.1c0,0,0-0.1,0-0.1c0,0,0,0,0-0.1l0,0c0-0.1-0.1-0.1-0.1-0.1l0,0c0,0,0,0,0-0.1l0,0c0,0,0,0,0,0l0,0c0,0,0,0,0,0
	c0,0,0,0,0,0l0,0c0,0-0.1,0-0.1-0.1c0,0,0,0,0-0.1c-0.2-0.3-0.4-0.5-0.7-0.7c0,0,0,0,0,0c-0.1,0-0.2-0.1-0.3-0.1c0,0,0-0.1,0-0.1
	c0,0.1-0.4-0.3-0.4-0.3l-0.1,0.1c-0.1-0.1,0.1-0.1,0-0.2c-0.1,0.1-0.1-0.1-0.2-0.1c0,0,0,0,0-0.1c-0.1,0.1-0.1,0-0.1,0
	c0,0,0,0,0,0.1l-0.1,0c0,0,0-0.1,0.1-0.1c-0.1-0.1-0.7-0.7-0.9-0.8c0,0.1,0.1,0.1,0,0.2c-0.1,0,0-0.1-0.1,0c0.1-0.1-0.1-0.1,0-0.3
	l-0.1,0.1l0-0.1c-0.2-0.1-0.1,0-0.2-0.1c-0.1-0.1-0.2,0-0.2-0.1c0,0,0,0.1,0,0.1c0-0.1-0.1,0-0.1-0.1c0,0-0.1-0.1-0.1,0
	c0-0.1,0-0.1,0-0.1c0,0,0-0.1-0.1,0l0,0.1c-0.1,0-0.1-0.1-0.2-0.1l0,0.1c0,0-0.1-0.1,0-0.2l0.1,0c-0.1-0.1-0.1-0.1-0.2-0.1l0,0
	c-0.2,0-0.6-0.2-0.8-0.1l0,0.1l-0.1,0c0,0,0.2-0.2,0.2-0.2c-0.1-0.1-0.4-0.2-0.4-0.4c0-0.1,0.1-0.1,0.1-0.1c-0.1,0-0.1,0.1-0.1,0
	c0,0,0-0.1,0.1-0.1c0,0,0,0-0.1,0c0,0.1-0.1,0.1-0.1,0.2l-0.1-0.1l0-0.1c0,0-0.2,0.1-0.2,0C49.2,263.7,49.1,263.7,49,263.5
	c0,0,0.1,0,0.1,0C49.1,263.5,49.1,263.5,49,263.5C49.1,263.5,49,263.5,49,263.5z"/>
<path class="st1" d="M57.6,263.2l0.4-0.6l0.1,0c0,0-0.1-0.2-0.1-0.2c0.2,0,0.8-1.5,1-1.6c0.1-0.1,0-0.1,0-0.1c0.1,0,0.3,0.1,0.4,0.1
	c0,0,0-0.1,0-0.1c0,0,0.1,0,0.1,0c0,0,0,0.1,0,0.2l0.1,0l0-0.1c0,0,0.1,0.2,0.2,0.1c0.1-0.1,0.3-0.1,0.5-0.2c0,0-0.1-0.1-0.1-0.1
	c0,0,0.1,0,0.1,0c0,0.1,0.1,0,0.1,0.1c0.2,0.1,0.3-0.1,0.4,0l0.6,1.2c0,0,0.1,0,0.1,0c0,0,0,0.1-0.1,0.1l0.1,0.1
	c-0.1,0,0.2,0.6,0.1,0.6c0,0.1,0.1,0.1,0.1,0.1c0,0,0,0.6-0.1,0.6c0,0,0,0.1,0,0.1c0,0-0.1-0.1-0.2,0l0,0c-0.1,0.1-0.2-0.1-0.3,0
	l0,0c0,0.1-0.1,0-0.2,0.1c0,0,0-0.1,0-0.1c-0.1,0.1-0.1,0-0.2,0.1l-0.1-0.1c-0.3,0.1-1,0.3-1.3,0.3l-0.7,0.6"/>
<path class="st1" d="M56,268.4L56,268.4C56,268.3,56.1,268.4,56,268.4c0-0.2,0.2-0.2,0.1-0.2c0,0,0,0,0.1,0c0-0.1,0,0,0-0.1
	c0,0,0,0,0,0l0-0.1c0,0,0.1,0,0.1,0c0.1-0.1,0.7-0.6,0.8-0.7c-0.1,0-0.1,0-0.1,0c0-0.1,0.1,0,0-0.1c0.1,0.1,0.1,0,0.2,0l-0.1-0.1
	l0.1,0c0.1-0.2,0-0.1,0.1-0.2c0.1-0.1,0-0.2,0.1-0.2c0,0-0.1,0-0.1,0c0.1,0,0-0.1,0.1,0c0,0,0.1-0.1,0-0.1c0,0,0.1,0,0.1,0
	c0,0,0,0,0-0.1l0,0c0-0.1,0.1-0.1,0.1-0.1h0c0,0,0.1-0.1,0.1,0l0,0.1c0.1-0.1,0.1-0.1,0.1-0.2l0,0c0-0.1,0.2-0.5,0.2-0.6l-0.1,0
	v-0.1c0,0,0.2,0.2,0.1,0.2c0.1-0.1,0.6-0.7,0.7-0.8c0.1,0,0.1,0.1,0.1,0.1c0-0.1,0-0.1,0-0.1c0,0,0,0,0,0c0,0,0,0,0,0
	c0,0-0.1-0.1-0.2-0.1l0.1,0l0,0c0,0-0.1-0.1,0-0.2c0.1-0.1,0.2-0.2,0.3-0.3c0,0,0,0.1,0,0.1c0,0,0,0,0.1,0c-0.1,0,0-0.1,0-0.1
	c0-0.2,0.1-0.2,0.1-0.3l-1.6-1.6c0,0,0,0,0.1,0c0,0-0.1,0-0.1,0l0.1,0.1c0,0.1,0,0-0.1,0c0,0,0-0.1,0-0.1c0,0-0.1,0-0.1,0.1
	c0,0-0.1-0.1-0.1,0c0,0,0,0.1,0,0.1l0,0c-0.1,0,0,0.2-0.1,0.2l0,0c0,0-0.1,0.1-0.1,0.1c0,0,0.1,0,0,0.1c-0.1,0-0.1,0.1-0.1,0.1
	l0,0.1c-0.2,0.1-0.7,0.8-0.8,1l0,0c-0.2,0.3-0.7,0.8-0.8,1.1c-0.1,0-0.1,0.1-0.2,0.1c0,0,0.1,0,0,0.1c-0.1,0.1,0,0-0.1,0.2
	c-0.1,0.2-0.7,0.7-0.8,0.8c0,0.1-0.1,0.2-0.2,0.3l0,0c0,0.1-0.5,0.4-0.5,0.5h0c0,0.1-0.1,0-0.2,0.1c0.1,0.1,0.1,0.2,0.1,0.2l0,0
	c0,0,0,0.2-0.1,0.2l0,0c0,0.1-0.1,0.2-0.1,0.2c-0.1,0.1-0.3,0.1-0.3,0.3l-0.2,0l0,0c0,0,1.4,1.4,1.8,1.5l0,0l0,0c0.1,0,0-0.1,0.1,0
	l0,0c0,0,0,0,0.1,0.1c0,0,0,0,0.1,0c0,0,0,0,0,0c0,0,0-0.1,0-0.1c0,0,0.1,0.1,0.1,0c0.2-0.2,0.5-0.3,0.7-0.6c0,0,0,0,0,0
	c0-0.1,0.1-0.1,0.1-0.2c0,0,0.1,0,0.1,0C55.7,268.8,56,268.4,56,268.4z"/>
<path class="st1" d="M132.3,158.6C132.3,158.6,132.3,158.6,132.3,158.6C132.3,158.6,132.3,158.6,132.3,158.6L132.3,158.6z"/>
<g>
	<g>
		<path class="st2" d="M180.6,68.6h0.8v3.4h0c0.3-0.7,1.1-1.2,2-1.2c1.7,0,2.3,0.9,2.3,2.4v4h-0.8v-3.9c0-1.1-0.3-1.9-1.6-1.9
			c-1.2,0-1.9,0.9-1.9,2.1v3.6h-0.8V68.6z"/>
		<path class="st2" d="M196.4,74.4c-0.1,0.9-0.5,1.7-1.5,1.7s-2.5-0.9-3.3-0.9c-0.5,0-0.8,0.5-0.9,0.9H190c0.1-0.9,0.5-1.8,1.5-1.8
			c1,0,2.3,0.9,3.3,0.9c0.5,0,0.8-0.4,0.9-0.9H196.4z M196.4,72.2c-0.1,0.9-0.5,1.8-1.6,1.8c-1,0-2.4-0.9-3.2-0.9
			c-0.5,0-0.8,0.5-0.9,0.9H190c0.1-0.9,0.5-1.8,1.5-1.8c1,0,2.3,0.9,3.3,0.9c0.5,0,0.8-0.4,0.9-0.9H196.4z"/>
		<path class="st2" d="M200.4,74.4l3.9-5.6h0.7v5.7h1.3v0.6H205v2.1h-0.7v-2.1h-3.9V74.4z M204.3,74.5v-4.6h0l-3.2,4.6H204.3z"/>
		<path class="st2" d="M210.8,71h0.7v1h0c0.4-0.8,1-1.2,2-1.2c0.8,0,1.5,0.4,1.8,1.2c0.4-0.8,1.2-1.2,2-1.2c1.4,0,2.1,0.7,2.1,2.2
			v4.2h-0.8V73c0-1-0.4-1.6-1.5-1.6c-1.3,0-1.7,1.1-1.7,2.2v3.5h-0.8V73c0-0.8-0.3-1.5-1.3-1.5c-1.3,0-1.8,1-1.8,2.3v3.5h-0.8V71z"
			/>
	</g>
</g>
<path class="st3" d="M137.6,9.3c-0.1,0.8-0.7,1.3-1.5,1.3l0,0c-0.8-0.1-1.3-0.7-1.3-1.5l0.2-2.7c0.1-0.8,0.7-1.3,1.5-1.3l0,0
	c0.8,0.1,1.3,0.7,1.3,1.5L137.6,9.3z"/>
<path class="st3" d="M136.6,5.1c0.2-1.6-0.3-3.4,0.2-4.9"/>
<g>
	<g>
		<path class="st4" d="M136.4,20.7c0,0.2,0,0.3,0,0.5"/>
		<path class="st5" d="M136.4,24.2c0.1,4.9,0.4,12.8,0,19.5c-0.5,9.8-4.4,21.1-6.3,25.5"/>
		<path class="st4" d="M129.5,70.5c-0.1,0.2-0.2,0.3-0.3,0.4"/>
	</g>
</g>
<path class="st6" d="M131.9,8.2L131.9,8.2l-0.1-0.1c-0.1-0.1-0.2-0.1-0.2-0.2l0.2,0.1c-0.1-0.1,0-0.1,0.1-0.1c0,0-0.1-0.1-0.1-0.1
	c0,0,0,0,0,0.1c-0.1,0-0.2-0.1-0.3-0.2c-0.1-0.1,0-0.1-0.1-0.2c-0.8-0.6-1.8-1-2.8-0.8c0,0,0,0,0,0c-0.3,0.1-0.5,0.1-0.8,0.2
	c-0.1,0-0.1,0-0.1,0c0,0-0.3,0.2-0.6,0.4c-0.3,0.2-0.6,0.5-0.6,0.5l0.1,0.1c-0.2,0.2-0.1,0-0.3,0.2c0,0.2-0.3,0.4-0.2,0.5
	c0,0-0.1,0.1-0.1,0.1c0.1,0.1,0,0.1-0.1,0.2c0,0,0,0,0.1,0c0,0.1,0,0.1,0,0.2c0,0.1-0.1,0.1-0.1,0c-0.1,0.2-0.3,1-0.3,1.8
	c0,0.8,0.4,1.6,0.5,1.9c0-0.1-0.1-0.2-0.1-0.3c0.1,0.1,0.1,0.2,0.2,0.3c-0.1,0.1,0.1,0.3,0.1,0.5l0.1,0l0,0.1c0.5,0.5,0.3,0,0.7,0.4
	c0.3,0.2,0.5,0.2,0.6,0.4c0,0-0.1-0.1,0-0.1c0,0.1,0.1,0.1,0.1,0.2c0.1,0,0.2,0.4,0.1,0.3c0,0.1,0.2,0.2,0.1,0.2
	c0.1,0,0.1,0.1,0.2,0.1l-0.1-0.1c0.3,0.1,0.4,0.2,0.6,0.2l-0.1-0.1c0.1,0.1,0.3,0.1,0.3,0.2l-0.2,0c0.3,0.1,0.4,0.1,0.6,0.1l-0.1,0
	c0.1,0,0.6,0,1-0.1c0.4-0.1,0.7-0.3,0.8-0.4l-0.1,0c0.1,0,0.1-0.1,0.1-0.1c0,0,0,0.3,0,0.3c0.2-0.1,0.8-0.4,1.2-1
	c0.4-0.5,0.6-1.2,0.7-1.4c0.1-0.2,0.1,0,0.1,0c0-0.2,0-0.1,0-0.3c0,0,0.1,0,0.1,0.1c0-0.1,0-0.2,0-0.2c0,0.1-0.1,0-0.2,0.1
	c0-0.1,0-0.1,0-0.2l0.1,0c0-0.1-0.1-0.4-0.1-0.6c0-0.4-0.1-0.5-0.2-0.9c0,0,0.1,0.1,0.1,0.2c0-0.1,0-0.1,0-0.2
	c0,0.1-0.1-0.2-0.1-0.1c-0.2-0.2-0.6-0.5-0.8-0.6c0,0-0.1,0-0.5,0.2c-0.1-0.1-0.1-0.2-0.2-0.3C131.6,8.9,131.9,8.5,131.9,8.2z"/>
<path class="st6" d="M129.1,14.3C129.2,14.3,129.2,14.3,129.1,14.3C129.2,14.3,129.1,14.3,129.1,14.3c0,0.3,0,0.5,0.1,0.6
	c0,0,0,0,0,0c0,0,0,0.1,0.1,0.1c0,0-0.1,0-0.1,0c0,0,0.1,0.2,0.1,0.2l0.1,0c0,0-0.1,0.1-0.1,0.1c0.1,0,0,0.1,0.1,0.1c0,0,0,0,0,0
	c0.1,0,0,0,0,0c0,0,0,0,0,0l0,0c0,0-0.1,0-0.1,0c0,0.1,0.1,0.5,0.2,0.6c0.1,0,0,0,0.1-0.1c0.1,0,0,0,0.1,0c-0.1,0.1,0,0.1-0.1,0.1
	l0.1,0l0,0c0.1,0.1,0,0,0.1,0.1c0,0-0.2,0.1-0.3,0.1c0,0,0,0,0,0c-0.1,0,0.1,0,0,0.1c0,0,0,0.1,0.1,0c0,0,0,0.1-0.1,0.1c0,0,0,0,0,0
	l0,0c0,0,0,0.1,0,0.1l0,0c0,0,0,0,0,0l0,0l0,0c1,0,2.1,0,2.9-0.6c-0.1-0.2-0.2-0.4-0.3-0.5c0,0,0-0.1,0-0.1c0,0-0.1,0-0.1,0
	c0-0.1,0,0-0.1-0.1c-0.1-0.1-0.2-0.5-0.2-0.6c-0.1,0-0.1-0.1-0.1-0.1l0,0c-0.1,0-0.1-0.4-0.1-0.4l0,0c-0.1,0,0-0.1,0-0.1
	c-0.1,0-0.2,0-0.2,0l0,0c0,0-0.1-0.1-0.2-0.1l0.1,0c-0.1,0-0.1-0.1-0.1-0.1c0-0.1,0.1-0.2,0-0.2l0.1-0.1h0c0,0-1.8,0.6-2.2,0.8
	L129.1,14.3L129.1,14.3C129.2,14.2,129.2,14.2,129.1,14.3L129.1,14.3C129.2,14.2,129.1,14.2,129.1,14.3
	C129.1,14.3,129.1,14.3,129.1,14.3C129.1,14.3,129.1,14.3,129.1,14.3z"/>
<path class="st6" d="M140.4,22.3c-0.1,0-0.2,0-0.2-0.1l0,0c0-0.2-0.3-0.1-0.3-0.3l0,0c0-0.1-0.1-0.1-0.1-0.2c0,0-0.1,0.1-0.1,0.1
	c0-0.1-0.1-0.1-0.1-0.3l-0.1,0c-0.2-0.3-1.1-1.3-1.4-1.6l0,0c-0.4-0.4-1-1.3-1.5-1.7c0-0.2,0-0.2-0.1-0.3c0,0.1-0.1,0.1-0.1,0.1
	c-0.1-0.2-0.1,0-0.3-0.2c-0.3-0.2-0.9-1.3-1-1.6c-0.2,0-0.2-0.3-0.4-0.3l0,0c-0.1-0.1-0.5-1-0.7-1.1l0,0c-0.2-0.1,0-0.2,0-0.3
	c-0.1,0.2-0.3,0.1-0.4,0.1l0,0c-0.1,0-0.3-0.1-0.4-0.2l0.1-0.1c-0.2,0-0.6-0.2-0.7-0.3c-0.1-0.2-1.1,0.8-1.4,0.7l-0.2-0.1l-1.6,1.3
	c0,0-1,0.9-1.5,1.7l-0.1,0.1l0.1,0c0,0.1,0.1,0,0,0.1l0-0.1c0,0.1-0.1,0.1-0.1,0.1c0,0,0,0.1,0,0.1c0,0,0,0,0-0.1
	c0.1,0,0.2,0,0.2,0.1c0,0.1-0.1,0.1-0.1,0.2c0.2,0.5,0.4,0.9,0.7,1.3c0,0,0,0-0.1,0c0.1,0.1,0.2,0.2,0.3,0.3c0,0.1-0.1,0.1-0.1,0.2
	c0.1-0.1,0.5,0.5,0.5,0.6l0.2-0.1c0.1,0.1-0.2,0.2,0,0.3c0.2-0.2,0.1,0.2,0.2,0.1c0,0,0,0.1-0.1,0.1c0.1-0.1,0.1,0,0.1,0
	c0,0,0,0,0.1-0.1l0.1,0c0,0.1-0.1,0.1-0.1,0.1c0.1,0.2,0.7,1.3,0.9,1.5c0.1-0.1,0-0.1,0.1-0.3c0.1,0,0,0.1,0.1,0.1
	c-0.2,0.2,0,0.2-0.1,0.4l0.1-0.1l-0.1,0.1c0.3,0.1,0.1,0,0.2,0.3c0.1,0.1,0.3,0,0.3,0.2c0,0,0-0.1,0.1-0.1c-0.1,0.1,0.1,0,0,0.1
	c0,0,0.1,0.1,0.2,0c-0.1,0.1,0,0.2-0.1,0.2c0,0,0,0.1,0.1,0.1l0-0.1c0.1,0.1,0,0.3,0.2,0.2l0-0.1c0.1,0.1,0.1,0.1,0,0.3l-0.1,0
	c0.1,0.1,0.1,0.2,0.3,0.2l0,0c0.2,0,0.8,0.5,1,0.4l0.1-0.1l0.2,0c0,0-0.4,0.3-0.4,0.2c0.1,0.2,1,1.1,1,1.4c0,0.1-0.2,0.2-0.2,0.2
	c0.1,0.1,0.1-0.1,0.2,0c0,0-0.1,0.1-0.1,0.1c0,0,0,0.1,0.1,0c0-0.1,0.2-0.2,0.2-0.3l0.1,0.1l-0.1,0.1c0,0,0.3-0.2,0.3,0
	c0.1,0.2,0.2,0.3,0.3,0.5c0,0-0.1,0-0.2,0c0,0,0,0,0,0.1c0.1-0.1,0.1,0,0.1-0.1c0.3-0.1,0.2,0.3,0.4,0.2l0.6-0.6
	c0.1,0.1,0.6,0.4,1,0.5c0.5,0.1,1,0.1,1.2,0c-0.1,0-0.2,0-0.2,0c0.1,0,0.1,0,0.2-0.1c0.1,0.1,0.2,0,0.3,0l0-0.1l0.1,0
	c0.4-0.2,0.1,0,0.4-0.2c0.2-0.1,0.2-0.2,0.3-0.3c0,0-0.1,0,0,0c0,0,0.1-0.1,0.1-0.1c0,0,0.2-0.2,0.1-0.2c0,0,0.2-0.1,0.1,0
	c0,0,0.1-0.1,0.1-0.1l-0.1,0c0.1-0.1,0.2-0.2,0.2-0.3l-0.1,0c0.1-0.1,0.1-0.2,0.2-0.2l0,0.1c0.1-0.1,0.1-0.2,0.1-0.4l0,0
	c0-0.1,0.1-0.4,0-0.6c0-0.3-0.1-0.5-0.1-0.6l0,0.1c0,0,0-0.1-0.1-0.1c0,0,0.2,0,0.2,0.1c0-0.1-0.1-0.5-0.4-0.9l0.6-0.6
	c0,0,0,0.1,0,0.1c0-0.1,0-0.1,0-0.2l-0.1,0.1c-0.1,0,0.1-0.1,0-0.2c0.1-0.1,0.2,0,0.2,0c0-0.1,0-0.2-0.1-0.1
	C140.2,22.4,140.4,22.4,140.4,22.3z"/>
<path class="st6" d="M122.9,17l0-0.7l-0.1,0c0,0,0.2-0.1,0.2-0.1c-0.1-0.1,0.2-1.7,0.2-1.8c0-0.1,0.1-0.1,0.1-0.1
	c-0.1,0-0.3-0.1-0.3-0.2c0,0,0.1,0,0.1,0c0,0,0-0.1-0.1,0c0,0.1-0.1,0.1-0.1,0.2l-0.1-0.1l0.1,0c0,0-0.2,0.1-0.2,0
	c-0.1-0.1-0.2-0.3-0.3-0.4c0,0,0.1,0,0.1,0c0,0,0,0,0-0.1c0,0.1-0.1,0-0.1,0c-0.2,0-0.2-0.2-0.3-0.2l-1.2,0.6c0,0,0-0.1,0-0.1
	c0,0,0,0.1,0,0.1l-0.2,0c0.1,0-0.5,0.4-0.4,0.5c-0.1,0-0.1,0-0.2,0c0,0-0.3,0.5-0.3,0.5c0,0.1-0.1,0.1-0.1,0.1c0,0,0.1,0,0.1,0.1
	l0,0c0,0.1,0.2,0.1,0.2,0.2l0,0c0,0.1,0.1,0.1,0.1,0.2c0,0,0-0.1,0.1,0c0,0.1,0.1,0.1,0.1,0.2l0.1,0c0.2,0.2,0.7,0.8,0.8,1l0.2,0.8"
	/>
<path class="st6" d="M144.8,6.9l0.5-0.4l0.1,0.1c0,0-0.1-0.3-0.1-0.2c0.2,0,1.2-1.2,1.3-1.3c0.1-0.1,0-0.1,0-0.1
	c0.1,0,0.3,0.2,0.4,0.1c0,0,0-0.1,0-0.1c0,0,0.1,0,0.1,0c0,0,0,0.1,0,0.2l0.1,0l0-0.1c0,0,0.1,0.2,0.2,0.1c0.1,0,0.3,0,0.5,0
	c0,0,0-0.1-0.1-0.1c0,0,0.1,0,0.1,0c0,0.1,0.1,0,0,0.1c0.1,0.2,0.3,0,0.4,0.1l0.3,1.3c0,0,0.1,0,0.1,0c0,0-0.1,0.1-0.1,0l0.1,0.2
	c-0.1,0,0,0.6-0.1,0.6c0,0.1,0.1,0.1,0.1,0.1c0,0-0.2,0.6-0.2,0.5c0,0,0,0.1-0.1,0.1c0,0-0.1-0.1-0.2,0l0,0c-0.1,0.1-0.2-0.1-0.3,0
	l0,0c0,0-0.1,0-0.2,0c0,0,0-0.1,0-0.1c-0.1,0-0.1,0-0.2,0.1L147.4,8c-0.3,0-1.1,0-1.3,0l-0.8,0.4"/>
<path class="st6" d="M125.4,42.8c0.1,0.2-1,1.4-1,1.6c0,0.1-0.2,0.1-0.2,0.1c0.1,0.1,0.1,0,0.2,0.1c0,0-0.1,0-0.1,0
	c0,0,0,0.1,0.1,0.1c0-0.1,0.2-0.1,0.2-0.2l-1.7,1.1l-0.1,0c0,0,0.2,0,0.2,0.1c0,0.2-0.2,0.8-0.1,1c0,0-0.1,0-0.1,0c0,0,0,0.1,0,0.1
	c0.1-0.1,0.1,0.1,0.1,0c0.3,0,3-1,3.2-0.9l3.4-1.3c0,0,0,0.1,0,0.1c0,0,0-0.1,0-0.1l-0.1,0c-0.1-0.1,0.1-0.1,0-0.1
	c0.1,0,0.1,0,0.2,0.1c0-0.1,0-0.2-0.1-0.1c0-0.1,0.1,0,0.1-0.1c-0.1,0-0.2-0.1-0.1-0.1l0,0c0-0.2-0.2-0.1-0.2-0.3h0
	c0-0.1-0.1-0.1-0.1-0.2c0,0-0.1,0.1-0.1,0c0-0.1-0.1-0.2,0-0.3l-0.1,0c-0.1-0.3-0.8-1.5-1-1.9l0,0"/>
<path class="st6" d="M146.3,29.6L146.3,29.6l-0.2,0c0,0,0.4,0,0.3,0c-0.1,0.2,1.2,0.5,1.2,0.7c0,0.1,0.8,0.4,0.8,0.4
	c-0.1,0.1,0.6,0.2,0.6,0.3c0,0,0.1,0,0.1,0c0,0,0.4,0.3,0.3,0.3c0.4,0.3,0.1-0.1,0.4,0.1l0,0.1l0.1,0c0,0-0.3,0-0.2,0.2
	c0,0.2-0.1,0.4-0.1,0.6c0.1,0,0.1,0,0.1-0.1c0,0,0,0.1,0,0.1c-0.1-0.1-0.1,0.1-0.1,0c-0.2,0.1-1.4-0.1-1.5,0.1l-5.1-0.5
	c0,0,0,0.1,0,0.1c-0.1,0-0.1-0.1,0-0.1l0.1,0c0.1-0.1-0.1,0,0-0.1c-0.1,0-0.1,0.1-0.2,0.1c0-0.1-0.1-0.2,0.1-0.2
	c0-0.1-0.1,0-0.2-0.1c0-0.1,0.2-0.1,0.1-0.2l0,0c-0.1-0.2,0.2-0.2,0.1-0.4l0,0c-0.1-0.1,0-0.1,0-0.2c0,0,0.1,0.1,0.1,0
	c0-0.1,0-0.2,0-0.3l0.1-0.1c0-0.4,0.3-1.2,0.3-1.5l0,0"/>
<path class="st6" d="M133.3,33.1c-0.1,0,0.4-0.5,0.4-0.5l-0.1-0.1c0.1-0.1,0.2,0.1,0.2,0c-0.1-0.2,0.2-0.1,0.1-0.2c0,0,0.1,0,0.1,0
	c-0.1-0.1,0-0.1,0-0.1c0,0,0,0-0.1,0l0-0.1c0.1,0,0.1,0.1,0.1,0.1c0.2-0.1,1-0.8,1.1-1c-0.1,0-0.1,0.1-0.2,0c0-0.1,0.1,0,0-0.1
	c0.2,0.1,0.1-0.1,0.3,0.1l-0.1-0.1l0.1,0c0.1-0.3,0-0.1,0.2-0.2c0.1-0.1,0-0.3,0.1-0.3c0,0-0.1,0-0.1-0.1c0.1,0.1,0-0.1,0.1-0.1
	c0,0,0.3,0.1,0.1,0c0.1,0,0.2,0,0.2,0.1c0,0,0.1,0,0.1-0.1h-0.1c0.1-0.1,0.2-0.1,0.2-0.2l-0.1,0c0-0.1,0.1-0.1,0.2,0l0,0.1
	c0.1-0.1,0.1-0.1,0.1-0.3l0,0c0-0.2,0.4-0.7,0.3-0.9l-0.1,0l0-0.1c0,0,0.2,0.3,0.2,0.3c0.1-0.2,0.9-1,1.1-1c0.1,0,0.1,0.1,0.1,0.1
	c0-0.1-0.1-0.1,0-0.2c0,0,0.1,0.1,0.1,0.1c0,0,0.1,0,0-0.1c-0.1,0-0.1-0.1-0.2-0.2l0.1-0.1l0.1,0.1c0,0-0.1-0.2,0-0.3
	c0.2-0.1,0.3-0.2,0.4-0.4c0,0,0,0.1,0,0.1c0,0,0,0,0.1,0c-0.1,0,0-0.1,0-0.1c-0.1-0.2,0.2-0.2,0.2-0.4l-2.8-2.8c0,0,0.1,0,0.1,0
	c0,0-0.1,0-0.1,0l0.1,0.1c0,0.1-0.1,0-0.1,0c-0.1-0.1,0-0.1,0-0.2c0,0-0.1,0-0.1,0.1c-0.1,0-0.1-0.1-0.2-0.1c0,0.1,0,0.2-0.1,0.2
	l0,0c-0.2,0,0,0.3-0.2,0.3l0,0c-0.1,0-0.1,0.1-0.2,0.1c0,0,0.1,0,0.1,0.1c-0.1,0-0.1,0.1-0.2,0.1l0,0.1c-0.2,0.2-0.8,0.9-1,1.2l0,0
	c-0.3,0.4-0.9,1.1-1.2,1.6c-0.1,0-0.2,0.1-0.3,0.1c0.1,0,0.1,0.1,0.1,0.1c-0.2,0.2,0,0.1-0.1,0.3c-0.1,0.3-1,0.9-1.2,1.1
	c0,0.2-0.2,0.2-0.2,0.4l0,0c-0.1,0.1-0.7,0.6-0.8,0.8l0,0c0,0.2-0.1,0-0.3,0.1c0.1,0.1,0.1,0.3,0.1,0.3l0,0c0,0.1,0,0.3-0.1,0.4
	l-0.1-0.1c0,0.1-0.2,0.2-0.2,0.3c-0.1,0.1-0.4,0.1-0.5,0.4l-0.3-0.1v0c0,0,0.1,0.1,0.2,0.2c0,0.1-0.1,0.1-0.1,0.1l0,0
	c-0.1,0.1-0.1,0-0.1,0.1c0,0.1-0.1,0.2-0.1,0.2c0,0,0,0.1,0,0c0,0,0,0.1,0,0.1c0,0,0,0,0,0c0,0,0,0,0,0.1c0,0,0,0,0,0
	c0,0.1-0.1,0.5,0,0.8c0.1,0.4,0.3,0.7,0.4,0.8c0,0-0.1-0.1-0.1-0.1c0.1,0,0.1,0.1,0.1,0.1c0,0.1,0.1,0.1,0.1,0.2l0,0l0,0
	c0.2,0.2,0.1,0,0.3,0.2c0.1,0.1,0.2,0.1,0.3,0.1c0,0,0,0,0,0c0,0,0.1,0,0.1,0.1c0,0,0.1,0.1,0.1,0c0,0,0.1,0.1,0.1,0.1
	c0,0,0.1,0,0.1,0l0,0c0.1,0,0.2,0.1,0.2,0l0,0c0.1,0,0.1,0,0.2,0l-0.1,0c0.1,0,0.2,0,0.3,0h0c0.1,0,0.2-0.1,0.4-0.1
	c0.2-0.1,0.3-0.2,0.3-0.3h-0.1c0,0,0,0,0-0.1c0,0,0,0.1,0,0.1c0,0,0,0,0.1-0.1l0,0l0,0c0.1,0,0-0.1,0.1,0l-0.1,0.1
	c0.1,0,0.1,0,0.1,0.1c0,0,0.1,0,0.1,0c0,0,0,0-0.1,0c0,0,0-0.1,0-0.1c0.1,0,0.1,0.1,0.2,0.1c0.4-0.2,0.7-0.5,1-0.8c0,0,0,0,0,0.1
	c0.1-0.1,0.2-0.2,0.2-0.3C133.2,33,133.2,33.1,133.3,33.1z"/>
<path class="st6" d="M145.4,17.3c0,0-0.2,0.1-0.3,0.1c0,0-0.1,0-0.1,0l0,0c0,0,0,0,0,0c0,0-0.1,0-0.1,0.1c0-0.1,0-0.1,0.1-0.2
	c-0.1,0-0.1,0-0.1,0.1c-0.1,0-0.1-0.1-0.1-0.1c0,0,0,0.2-0.1,0.1l0,0c-0.2-0.1-0.1,0.2-0.3,0.2l0,0c-0.1,0-0.1,0.1-0.2,0
	c0,0,0.1,0.1,0.1,0.1c-0.1,0-0.1,0.1-0.2,0l0,0.1c-0.3,0.1-1,0.6-1.3,0.8l0,0c-0.4,0.2-1.3,0.6-1.6,1c-0.1-0.1-0.2,0-0.3,0
	c0.1,0,0.1,0.1,0,0.1c-0.2,0.1,0,0.1-0.2,0.2c-0.2,0.2-1.2,0.6-1.5,0.6c0,0.2-0.3,0.2-0.3,0.3l0,0c-0.1,0.1-0.9,0.3-1,0.4l0,0
	c-0.1,0.2-0.1,0-0.3,0c0.1,0.2,0,0.3,0,0.3l0,0c0,0.1-0.1,0.3-0.2,0.3l0-0.1c0,0.1-0.2,0.2-0.3,0.2c-0.2,0-0.5,0-0.6,0.2l-0.2-0.2
	l0,0c0,0,1.4,3.3,2,3.8l0,0.1l0,0c0.1,0,0.1-0.1,0.1,0l-0.1,0c0.1,0,0.1,0.1,0.1,0.1c0,0,0.1,0,0.1,0c0,0,0,0,0,0c0,0,0-0.1,0.1-0.1
	c0.1,0,0.1,0.1,0.2,0.1c0.4-0.1,0.8-0.2,1.2-0.4c0,0,0,0,0,0.1c0.1-0.1,0.2-0.1,0.3-0.2c0,0,0.1,0.1,0.1,0.1
	c-0.1-0.1,0.5-0.3,0.6-0.3l-0.1-0.2c0.1-0.1,0.1,0.2,0.2,0.1c-0.1-0.2,0.2-0.1,0.2-0.2c0,0,0.1,0,0.1,0.1c0-0.1,0-0.1,0.1-0.1
	c0,0,0,0-0.1-0.1l0.1-0.1c0,0,0.1,0.1,0.1,0.1c0.2,0,1-0.7,1.2-0.9c-0.1-0.1-0.1,0-0.2-0.1c0-0.1,0.1,0,0.1-0.1
	c0.1,0.2,0.1,0,0.3,0.2l0-0.1l0.1,0.1c0.2-0.2,0-0.1,0.2-0.2c0.1-0.1,0.1-0.3,0.2-0.2c0,0-0.1-0.1-0.1-0.1c0.1,0.1,0-0.1,0.1,0
	c0,0,0.1-0.1,0-0.2c0.1,0.1,0.2,0.1,0.1,0.1c0,0,0.1,0,0.1,0l-0.1,0c0.1-0.1,0.2,0,0.2-0.1l-0.1,0c0.1,0,0.1-0.1,0.2,0.1l0,0.1
	c0.1-0.1,0.2-0.1,0.2-0.2l0,0c0-0.2,0.5-0.6,0.6-0.8l-0.1-0.1l0-0.1c0,0,0.1,0.4,0.1,0.3c0.2-0.1,1.1-0.6,1.3-0.6
	c0.1,0,0.1,0.2,0.1,0.2c0.1-0.1,0-0.1,0.1-0.2c0,0,0,0.1,0,0.1c0,0,0.1,0,0-0.1c-0.1,0-0.1-0.2-0.2-0.2l0.1,0l0,0.1
	c0,0-0.1-0.3,0-0.3c0.2,0,0.3-0.1,0.5-0.2c0,0.1,0,0.1,0,0.1c0,0,0,0,0.1,0c-0.1-0.1,0-0.1,0-0.1c0-0.3,0.2-0.1,0.3-0.3l-0.1-0.1
	c0,0,0,0,0.1-0.1c0,0,0,0,0.1,0c0,0,0.1-0.1,0.2-0.3c0.1-0.1,0.2-0.3,0.2-0.3l0,0c0.1-0.1,0.1,0,0.1-0.1c0-0.1,0.1-0.2,0-0.3
	c0,0,0-0.1,0-0.1c0,0,0-0.1,0-0.1c0,0,0,0,0,0c0,0,0,0,0-0.1c0,0,0,0,0,0c0-0.1,0-0.5-0.1-0.8c-0.1-0.4-0.3-0.7-0.4-0.7
	c0,0,0.1,0.1,0.1,0.1c-0.1,0-0.1-0.1-0.1-0.1c0-0.1-0.1-0.1-0.1-0.2l0,0l0,0c-0.3-0.2-0.1,0-0.3-0.2c-0.1-0.1-0.2-0.1-0.3-0.1
	c0,0,0,0,0,0c0,0-0.1,0-0.1-0.1c0,0-0.1,0-0.1,0c0,0-0.1-0.1-0.1-0.1c0,0-0.1,0-0.1,0l0,0c-0.1,0-0.2,0-0.3,0l0,0
	c-0.1,0-0.1,0-0.2,0l0.1,0C145.5,17.2,145.4,17.2,145.4,17.3L145.4,17.3z"/>
<path class="st6" d="M130.5,40.4l-0.2,0c0-0.1,0.2,0,0.2-0.1c-0.2-0.1,0.1-0.2-0.1-0.2c0,0,0,0,0.1,0c-0.1,0,0-0.1,0-0.1
	c0,0,0,0-0.1,0l0-0.1c0,0,0.1,0,0.1,0c0.1-0.2,0.4-1.1,0.4-1.4c-0.1,0-0.1,0.1-0.2,0.1c-0.1-0.1,0.1-0.1,0-0.1
	c0.2,0,0.1-0.1,0.3-0.1l-0.1,0l0.1,0c-0.1-0.3-0.1-0.1,0-0.3c0-0.1-0.2-0.2-0.1-0.3c0,0-0.1,0-0.1,0c0.1,0-0.1-0.1,0.1-0.1
	c0,0,0-0.1-0.1-0.1c0.1,0,0.1-0.1,0.2,0c0,0,0-0.1,0-0.1l0,0c0-0.1,0.3-0.3,0.2-0.4l0.1,0.3c0-0.1-0.2-0.4-0.1-0.4l0,0.1
	c0-0.1,0-0.2,0-0.3l0,0c-0.1-0.1,0.1-0.5-0.1-0.6l-0.1,0l-0.1-0.1c0,0,0.4,0.1,0.3,0.1c0-0.2,0.2-1.2,0.3-1.4c0.1-0.1,0.2,0,0.2,0
	c0-0.1-0.1-0.1-0.1-0.1c0,0,0.1,0,0.1,0c0,0,0-0.1,0-0.1c-0.1,0-0.2,0-0.3,0l0-0.1l0.1,0c0,0-0.2-0.1-0.2-0.2
	c0.1-0.1,0.1-0.3,0.1-0.5c0.1,0,0.1,0.1,0.1,0.1c0,0,0-0.1,0-0.1c-0.1,0-0.1-0.1-0.1-0.1c-0.2-0.2,0-0.3-0.1-0.4l-3-0.7
	c0,0,0-0.1,0-0.1c-0.1,0-0.1,0.1-0.1,0.1l0.1,0c0,0.1-0.1,0-0.1,0.1c-0.1,0-0.1-0.1-0.1-0.2c0,0.1-0.1,0.1,0,0.1c-0.1,0-0.1,0-0.2,0
	c0,0.1,0.1,0.1,0,0.2l0,0c-0.1,0.1,0.1,0,0,0.1l0,0c-0.1,0,0,0.1-0.1,0.2c0,0,0.1,0,0.1,0c-0.1,0.1,0,0.1-0.1,0.2l0.1,0.1
	c-0.1,0.3-0.2,1.5-0.2,1.8l0,0c0,0.5-0.6,1.4-0.6,1.9c-0.1,0-0.1,0.2-0.2,0.2c0.1,0,0.1,0,0.1,0c-0.1,0.2,0.1,0,0.1,0.3
	c0,0.3-0.2,1.1-0.4,1.3c0.1,0.2,0,0.3,0,0.4l0,0c0,0.1-0.3,0.9-0.3,1l0,0c0.1,0.2-0.1,0.1-0.2,0.2c0.2,0,0.2,0.2,0.2,0.2l0,0
	c0,0.1-0.4,0.3-0.4,0.4l-0.1,0c0.1,0.1,0,0.3,0,0.3c-0.1,0.1,0.1,0.4,0.2,0.7l-0.3,0.1l0,0c0,0,2.7,0.8,3.5,0.7l0.1,0v-0.1
	c0.1-0.1,0-0.1,0.1-0.1l0,0.1c0-0.1,0.1,0,0.1,0c0,0,0-0.1,0.1-0.1c0,0,0,0-0.1,0c0,0-0.1-0.1-0.1-0.1c0-0.1,0.2,0,0.2,0
	c0.2-0.4,0-0.9,0-1.3c0,0,0,0,0.1,0c0-0.1,0-0.2,0-0.4c0,0,0.1,0,0.1,0C130.4,41.1,130.5,40.4,130.5,40.4z"/>
<path class="st6" d="M147.4,26.8l-0.2,0c0-0.1,0.2,0,0.2-0.1c-0.2-0.1,0-0.2-0.1-0.2c0,0,0-0.1,0.1,0c-0.1,0,0-0.1-0.1-0.1
	c0,0,0,0-0.1,0l0-0.1c0,0,0.1,0,0.1,0c0.1-0.2,0.3-1.2,0.2-1.4c-0.1,0,0,0.1-0.2,0.1c-0.1-0.1,0-0.1-0.1-0.1c0.2,0,0.1-0.1,0.3-0.1
	l-0.1,0l0.1,0c-0.1-0.3-0.1-0.1,0-0.3c0-0.1-0.2-0.2-0.1-0.3c0,0-0.1,0-0.1,0c0.1,0-0.1-0.1,0-0.1c0,0,0-0.1-0.2-0.1
	c0.1,0,0.1-0.1,0.2,0c0,0,0-0.1,0-0.1l0,0c0-0.1,0.3-0.3,0.1-0.4l0.2,0.3c0-0.1-0.3-0.4-0.1-0.4l0,0.1c0-0.1,0-0.2-0.1-0.3l0,0
	c-0.1-0.1,0-0.5-0.2-0.6l-0.1,0l-0.1-0.1c0,0,0.4,0.1,0.3,0.1c0-0.2,0-1.2,0.1-1.4c0.1-0.1,0.2,0,0.2,0c0-0.1-0.1,0-0.1-0.1
	c0,0,0.1,0,0.1,0c0,0,0-0.1,0-0.1c0,0-0.2,0-0.3,0l0-0.1l0.1,0c0,0-0.3-0.1-0.2-0.2c0.1-0.2,0-0.3,0.1-0.5c0.1,0,0.1,0,0.1,0.1
	c0,0,0-0.1,0-0.1c-0.1,0-0.1-0.1-0.1,0c-0.2-0.1,0-0.3-0.1-0.4l-3-0.2c0,0,0-0.1,0-0.1c-0.1,0-0.1,0.1-0.1,0.1l0.1,0
	c0,0.1-0.1,0-0.1,0.1c-0.1,0-0.1-0.1-0.1-0.1c0,0.1-0.1,0.1,0,0.1c0,0-0.1,0-0.2,0c0,0,0.1,0.1,0.1,0.2h0c-0.1,0.1,0.1,0,0,0.1l0,0
	c-0.1,0,0,0.1-0.1,0.2c0,0,0.1,0,0.1,0c-0.1,0.1,0,0.1-0.1,0.2l0.1,0.1c0,0.3,0,1.5,0,1.8l0,0c0,0.5-0.4,1.4-0.3,1.9
	c-0.1,0.1-0.1,0.2-0.1,0.2c0,0,0.1,0,0.1,0c0,0.2,0.1,0,0.1,0.3c0.1,0.3-0.1,1.1-0.2,1.3c0.1,0.1,0,0.3,0.1,0.4l0,0
	c0,0.1-0.2,0.9-0.1,1.1l0,0c0.1,0.1-0.1,0.1-0.1,0.2c0.2,0,0.3,0.1,0.3,0.2l0,0c0,0.1-0.3,0.3-0.3,0.4l-0.1,0c0.1,0.1,0,0.3,0,0.3
	c-0.1,0.2,0.2,0.4,0.3,0.6l-0.3,0.1l0,0c0,0,2.8,0.4,3.5,0.2l0.1,0l0-0.1c0-0.1-0.1-0.1,0-0.1l0,0.1c0-0.1,0.1,0,0.1,0
	c0,0,0-0.1,0.1-0.1c0,0,0,0-0.1,0c0,0-0.1-0.1-0.1-0.1c0-0.1,0.2,0,0.2-0.1c0.1-0.4-0.2-0.9-0.1-1.3c0,0,0,0,0.1,0
	c0-0.1,0-0.2,0-0.4c0,0,0.1,0,0.1,0C147.3,27.5,147.4,26.8,147.4,26.8z"/>
<path class="st6" d="M129.7,19.8c0-0.2,0.2-0.2,0.2-0.3l-0.1-0.2l0,0l0,0v0c0-0.1,0.1-0.1,0.1-0.1l0,0c0,0,0-0.1,0.1-0.1l0,0.1
	c0-0.1,0.1-0.1,0.1-0.2l0,0c0,0,0-0.2,0-0.3c0-0.1,0-0.3-0.1-0.3l0,0c0,0,0,0,0-0.1c0,0,0.1,0,0.1,0c0-0.1-0.1-0.3-0.2-0.5
	c-0.1-0.2-0.3-0.3-0.4-0.4c0,0,0,0,0,0c-0.1,0,0,0-0.1,0c0,0,0,0,0,0c0,0,0,0,0,0c0,0,0,0,0,0.1c0,0,0,0-0.1,0l0,0c0,0-0.1,0-0.1,0
	c-0.1,0-0.2-0.1-0.4-0.1c0,0,0,0,0.1,0c0,0,0,0-0.1,0c0,0-0.1,0,0,0c-0.1,0-0.2,0-0.2,0.1l-0.1-0.1c0,0,0,0,0.1,0c0,0-0.1,0-0.1,0
	l0.1,0.1c0,0.1-0.1,0-0.1,0c-0.1-0.1,0-0.1,0-0.2c0,0-0.1,0-0.1,0.1c-0.1,0-0.1-0.1-0.1-0.1c0,0,0,0.1-0.1,0.1l0,0
	c-0.1,0-0.1,0.1-0.1,0.2l0,0c0,0,0,0-0.1,0l0,0l0,0c-0.1,0-0.1,0.1-0.2,0.1c0,0,0,0,0,0c0,0,0,0-0.1,0c0,0-0.1,0.1-0.1,0l0,0.1
	c-0.2,0.1-0.5,0.4-0.7,0.6l0,0c-0.3,0.3-0.9,0.7-1.2,1.1c-0.1,0-0.2,0-0.2,0.1c0,0,0.1,0.1,0,0.1c-0.2,0.1,0,0-0.1,0.2
	c-0.1,0.2-0.9,0.6-1.1,0.7c0,0.2-0.2,0.2-0.2,0.3l0,0c-0.1,0.1-0.6,0.4-0.7,0.5l0,0c0,0.1-0.1,0-0.2,0c0.1,0.1,0.1,0.2,0,0.2l0,0
	c0,0-0.1,0.2-0.1,0.3l0-0.1c0,0.1-0.2,0.2-0.2,0.2c-0.1,0.1-0.4,0.1-0.4,0.2l-0.2-0.1v0c0,0,0.1,0.1,0.2,0.2l0,0c0,0,0,0,0,0
	c0,0.1-0.1,0.1-0.1,0.2c0,0,0,0,0,0c0,0,0,0.1,0,0.2c0,0.1,0,0.3,0,0.3l0,0c0,0.1,0,0,0,0.1c0.1,0,0,0.2,0.1,0.2c0,0,0,0,0,0
	c0,0,0,0,0,0.1c0,0,0,0,0,0c0,0,0,0,0,0c0,0,0,0,0,0c0,0.1,0.2,0.3,0.3,0.5c0.2,0.2,0.4,0.3,0.5,0.3c0,0-0.1,0-0.1-0.1
	c0,0,0.1,0,0.1,0c0,0.1,0.1,0,0.1,0.1l0,0l0,0c0.2,0,0,0,0.2,0c0.1,0,0.1,0,0.2,0c0,0,0,0,0,0c0,0,0.1,0,0.1,0c0,0,0.1,0,0.1,0
	c0,0,0.1,0,0.1,0c0,0,0.1,0,0.1,0l0,0c0.1,0,0.1,0,0.2-0.1h0c0,0,0,0,0.1,0v0c0,0,0,0,0,0l0,0c0,0,0,0,0,0l0,0l0,0
	c0,0,0.1-0.1,0.1-0.1c0,0,0,0,0.1,0c0.3-0.2,0.6-0.3,0.9-0.5c0,0,0,0,0,0c0.1-0.1,0.1-0.1,0.2-0.2c0,0,0.1,0,0.1,0.1
	c-0.1,0,0.4-0.4,0.4-0.4l-0.1-0.1c0.1-0.1,0.1,0.1,0.2,0c-0.1-0.2,0.1-0.1,0.1-0.2c0,0,0,0,0.1,0c0-0.1,0,0,0-0.1c0,0,0,0,0,0l0-0.1
	c0,0,0.1,0.1,0.1,0.1c0.2-0.1,0.9-0.5,1-0.6c-0.1,0-0.1,0-0.2-0.1c0-0.1,0.1,0,0-0.1c0.1,0.1,0.1,0,0.2,0.1l0-0.1l0.1,0
	c0.1-0.2,0-0.1,0.2-0.2c0.1-0.1,0-0.2,0.1-0.2c0,0-0.1,0-0.1-0.1c0.1,0.1,0-0.1,0.1,0c0,0,0.1-0.1,0-0.2c0,0,0.1,0,0.1,0.1
	c0,0,0.1,0,0.1,0l0,0c0.1-0.1,0.2,0,0.1-0.1l-0.1,0c0,0,0.1-0.1,0.2,0l0,0.1c0.1-0.1,0.1-0.1,0.1-0.2l0,0c0-0.2,0.4-0.5,0.3-0.7
	l-0.1-0.1l0-0.1c0,0,0.2,0.3,0.1,0.2c0.1-0.1,0.3-0.3,0.5-0.3c0.1,0,0.1,0.1,0.1,0.1c0-0.1,0-0.1,0-0.1c0,0,0,0.1,0,0.1
	c0,0,0.1,0,0-0.1c0,0-0.1-0.1-0.2-0.2l0.1,0l0,0.1c0,0-0.1-0.2,0-0.2C129.4,20,129.5,19.9,129.7,19.8c0,0,0,0.1,0,0.1
	C129.7,19.9,129.7,19.9,129.7,19.8C129.6,19.9,129.7,19.9,129.7,19.8z"/>
<path class="st6" d="M124.5,21.6L124.5,21.6c-0.1-0.1,0,0,0-0.1c-0.1,0,0-0.1-0.1-0.2c0,0,0,0,0.1,0c-0.1,0,0,0,0-0.1c0,0,0,0,0,0
	l0-0.1c0,0,0.1,0,0.1,0c0-0.2,0-0.9-0.1-1c-0.1,0,0,0.1-0.1,0.1c-0.1,0,0-0.1,0-0.1c0.1,0,0-0.1,0.1-0.2l-0.1,0l0,0
	c-0.1-0.2,0,0-0.1-0.2c0-0.1-0.1-0.1-0.1-0.2c0,0,0,0-0.1,0c0.1,0-0.1-0.1,0-0.1c0,0,0-0.1-0.1-0.1c0,0,0.1-0.1,0.1-0.1
	c0,0,0-0.1,0-0.1l0,0c0-0.1,0-0.1-0.1-0.2l0,0c0,0,0-0.1,0.1-0.1l0,0c0-0.1,0-0.1-0.1-0.2v0c-0.1-0.1-0.2-0.5-0.4-0.5l-0.1,0
	l-0.1-0.1c0,0,0.2,0,0.2,0c0-0.1-0.2-0.9-0.2-1c0-0.1,0.1,0,0.1,0c0-0.1-0.1,0-0.1-0.1c0,0,0.1,0,0.1,0c0,0,0,0,0,0
	c0,0-0.1,0-0.2,0.1l0-0.1l0.1,0c0,0-0.2,0-0.1-0.1c0-0.1,0-0.2,0-0.4c0,0,0.1,0,0.1,0c0,0,0,0,0-0.1c-0.1,0,0,0-0.1,0
	c-0.2-0.1,0-0.2-0.1-0.3l-2.2,0.3c0,0,0-0.1,0-0.1c0,0,0,0.1,0,0.1l0.1,0c0,0.1,0,0,0,0.1c-0.1,0-0.1,0-0.1-0.1c0,0,0,0.1,0,0.1
	c0,0-0.1,0-0.1,0.1c0,0,0.1,0.1,0.1,0.1l0,0c0,0.1,0.1,0.1,0.1,0.2l0,0c0,0,0,0.1,0,0.1c0,0,0.1,0,0.1,0c0,0.1,0,0.1,0,0.2l0.1,0
	c0,0.2,0.2,1,0.3,1.3l0,0c0.1,0.3,0.2,1,0.3,1.3c-0.1,0.1,0,0.1,0,0.2c0,0,0.1,0,0.1,0c0,0.2,0,0,0.1,0.2c0.1,0.2,0.1,0.9,0.1,1.1
	c0.1,0.1,0.1,0.2,0.1,0.3l0,0c0,0.1,0,0.7,0.1,0.8l0,0c0.1,0.1,0,0.1,0,0.2c0.1,0,0.2,0,0.2,0.1l0,0c0,0,0.1,0.1,0.2,0.2l-0.1,0
	c0.1,0.1,0.1,0.2,0.1,0.2c0,0.1-0.1,0.3,0,0.4l-0.1,0.1l0,0c0,0,1.9-0.2,2.3-0.5l0.1,0l0,0c0-0.1,0-0.1,0-0.1l0,0.1c0,0,0,0,0.1,0
	c0,0,0,0,0-0.1c0,0,0,0,0,0c0,0-0.1,0-0.1-0.1c0-0.1,0.1,0,0.1-0.1c0-0.3,0-0.6,0-0.9c0,0,0,0,0,0c0-0.1,0-0.2-0.1-0.2
	c0,0,0.1,0,0.1,0C124.5,22,124.5,21.6,124.5,21.6z"/>
<path class="st6" d="M134.2,14.1c0,0.2-0.2,0.1-0.3,0.2l0.1,0.2l0,0l0,0v0c-0.1,0-0.1,0-0.1,0.1l0,0c0,0-0.1,0.1-0.1,0.1l0,0
	c-0.1,0.1-0.1,0.1-0.1,0.2l0,0c0,0-0.1,0.2-0.1,0.3c0,0.1,0,0.3,0,0.3l0,0c0,0,0,0,0,0.1l-0.1-0.1c0,0.1,0,0.3,0.1,0.5
	c0.1,0.2,0.2,0.4,0.3,0.5c0,0.1,0,0,0,0c0.1,0.1,0,0,0.1,0.1c0,0,0,0,0,0c0,0,0,0,0,0c0,0,0,0,0-0.1c0,0,0,0,0.1,0.1l0,0
	c0,0,0.1,0,0.1,0c0.1,0.1,0.2,0.1,0.3,0.2c0,0,0,0-0.1,0c0,0,0,0,0.1,0c0,0,0.1,0,0,0c0.1,0,0.2,0,0.2,0l0,0.1c0,0-0.1,0-0.1,0
	c0,0,0.1,0,0.1,0l0-0.1c0.1-0.1,0,0.1,0.1,0c0,0.1,0,0.1-0.1,0.1c0,0,0.1,0,0.1,0c0,0,0,0.1,0.1,0.1c0,0,0.1-0.1,0.1-0.1l0,0
	c0.1,0,0.1-0.1,0.2-0.1h0c0,0,0,0,0.1,0h0v0c0,0,0.1,0,0.2,0c0,0,0,0,0-0.1c0,0,0,0,0.1,0c0,0,0.1,0,0.1,0l0-0.1
	c0.2-0.1,0.6-0.2,0.8-0.3l0,0c0.4-0.1,1.1-0.4,1.5-0.6c0.1,0.1,0.2,0,0.2,0c0,0,0-0.1,0-0.1c0.2,0,0-0.1,0.2-0.1
	c0.2-0.1,1.1-0.3,1.3-0.3c0.1-0.1,0.2-0.1,0.3-0.2l0,0c0.1-0.1,0.7-0.2,0.9-0.2l0,0c0.1-0.1,0.1,0,0.2,0c0-0.1,0-0.2,0.1-0.2l0,0
	c0,0,0.1-0.2,0.2-0.2l0,0.1c0.1-0.1,0.2-0.1,0.3-0.1c0.1,0,0.4,0.1,0.5-0.1l0.2,0.2l0,0c0,0,0-0.1-0.1-0.3c0,0,0,0,0,0l0,0
	c0.1-0.1,0.1-0.1,0.2-0.2c0,0,0,0,0,0c0,0,0.1-0.1,0.1-0.2c0.1-0.1,0.1-0.2,0.1-0.2l0,0c0-0.1,0,0,0.1-0.1c0-0.1,0-0.2,0-0.2
	c0,0,0,0,0,0c0,0,0-0.1,0-0.1c0,0,0,0,0,0c0,0,0,0,0-0.1c0,0,0,0,0,0c0-0.1,0-0.3-0.1-0.6c-0.1-0.2-0.3-0.4-0.4-0.5
	c0,0,0.1,0.1,0.1,0.1c0,0,0-0.1-0.1-0.1c0,0-0.1-0.1-0.1-0.1l0,0l0,0c-0.2-0.1,0,0-0.2-0.1c-0.1,0-0.2,0-0.2-0.1c0,0,0,0,0,0
	c0,0-0.1,0-0.1,0c0,0-0.1,0-0.1,0c0,0-0.1,0,0,0c0,0-0.1,0-0.1,0l0,0c-0.1,0-0.1,0-0.2,0l0,0c0,0,0,0-0.1,0l0,0c0,0,0,0,0,0l0,0
	c0,0,0,0-0.1,0h0l0,0c0,0-0.1,0-0.1,0.1c0,0,0,0,0,0c-0.3,0-0.7,0.1-1,0.2c0,0,0,0,0,0c-0.1,0.1-0.2,0.1-0.3,0.1
	c0,0-0.1-0.1-0.1-0.1c0,0.1-0.5,0.2-0.5,0.2l0,0.1c-0.1,0-0.1-0.1-0.2-0.1c0,0.2-0.2,0-0.2,0.1c0,0-0.1,0-0.1-0.1c0,0.1,0,0-0.1,0.1
	c0,0,0,0,0,0.1l-0.1,0.1c0,0-0.1-0.1,0-0.1c-0.2,0-1,0.2-1.2,0.3c0,0.1,0.1,0,0.1,0.1c0,0.1-0.1,0-0.1,0.1c-0.1-0.2-0.1,0-0.2-0.2
	l0,0.1l0-0.1c-0.2,0.2,0,0.1-0.2,0.1c-0.1,0-0.1,0.2-0.2,0.2c0,0,0.1,0,0,0.1c0-0.1-0.1,0.1-0.1,0c0,0-0.1,0-0.1,0.1
	c0-0.1-0.1-0.1-0.1-0.1c0,0-0.1,0-0.1,0l0,0c-0.1,0-0.2,0-0.2,0.1l0,0c-0.1,0-0.1,0-0.2-0.1l0,0c-0.1,0-0.1,0.1-0.2,0.1l0,0
	c-0.1,0.1-0.5,0.4-0.6,0.5l0.1,0.1l-0.1,0.1c0,0-0.1-0.3,0-0.3c-0.2,0.1-0.4,0.2-0.6,0.1c-0.1,0,0-0.1-0.1-0.2
	c-0.1,0.1,0,0.1-0.1,0.1c0,0,0-0.1,0-0.1c0,0-0.1,0,0,0c0,0,0.1,0.1,0.1,0.2l-0.1,0l0-0.1c0,0,0,0.2-0.1,0.2
	C134.6,14,134.4,14.1,134.2,14.1C134.3,14,134.3,14,134.2,14.1C134.3,14,134.3,14,134.2,14.1C134.3,14,134.2,14,134.2,14.1z
	 M140.9,11.7L140.9,11.7L140.9,11.7L140.9,11.7z"/>
<path class="st6" d="M143.3,12.6L143.3,12.6C143.3,12.5,143.3,12.6,143.3,12.6c0-0.2,0.2-0.2,0.1-0.3c0,0,0,0,0.1,0c0-0.1,0,0,0-0.1
	c0,0,0,0-0.1,0l0-0.1c0,0,0.1,0,0.1,0c0.1-0.1,0.6-0.6,0.7-0.8c-0.1,0-0.1,0-0.1,0c0-0.1,0.1,0,0-0.1c0.1,0.1,0.1-0.1,0.2,0
	l-0.1-0.1l0.1,0c0.1-0.2,0-0.1,0.1-0.2c0.1-0.1,0-0.2,0.1-0.2c0,0-0.1,0-0.1,0c0.1,0,0-0.1,0.1-0.1c0,0,0.1-0.1,0-0.1
	c0,0,0.1,0,0.1,0c0,0,0,0,0-0.1l0,0c0-0.1,0.1-0.1,0.1-0.2l0,0c0,0,0-0.1,0.1,0l0,0.1c0.1-0.1,0.1-0.1,0.1-0.2l0,0
	c0-0.1,0.2-0.5,0.2-0.6l-0.1,0l0-0.1c0,0,0.2,0.2,0.1,0.2c0.1-0.1,0.5-0.7,0.6-0.8c0.1,0,0.1,0.1,0.1,0.1c0-0.1,0-0.1,0-0.1
	c0,0,0,0,0,0c0,0,0,0,0,0c0,0-0.1-0.1-0.2-0.1l0.1-0.1l0,0c0,0-0.1-0.1,0-0.2c0.1-0.1,0.2-0.2,0.2-0.3c0,0,0,0.1,0,0.1c0,0,0,0,0,0
	c-0.1,0,0-0.1,0-0.1c-0.1-0.2,0.1-0.2,0.1-0.3l-1.7-1.5c0,0,0,0,0,0c0,0-0.1,0-0.1,0l0.1,0c0,0.1,0,0-0.1,0c-0.1,0,0-0.1,0-0.1
	c0,0-0.1,0,0,0.1c0,0-0.1-0.1-0.1,0c0,0,0,0.1,0,0.1l0,0c-0.1,0,0,0.2-0.1,0.2l0,0c0,0,0,0.1-0.1,0.1c0,0,0.1,0,0.1,0
	c-0.1,0-0.1,0.1-0.1,0.1l0,0.1c-0.1,0.2-0.6,0.9-0.7,1.1l0,0c-0.2,0.3-0.6,0.8-0.8,1.1c-0.1,0-0.1,0.1-0.2,0.1c0,0,0.1,0,0.1,0
	c-0.1,0.1,0,0-0.1,0.2c-0.1,0.2-0.6,0.7-0.8,0.8c0,0.1-0.1,0.2-0.1,0.3l0,0c0,0.1-0.4,0.5-0.5,0.6l0,0c0,0.1-0.1,0-0.2,0.1
	c0.1,0.1,0.1,0.2,0.1,0.2l0,0c0,0,0,0.2-0.1,0.3l0,0c0,0.1-0.1,0.2-0.1,0.2c-0.1,0.1-0.3,0.1-0.3,0.3l-0.2,0l0,0
	c0,0,1.5,1.3,1.9,1.3l0,0l0,0c0.1,0,0-0.1,0.1,0l0,0c0,0,0,0,0.1,0c0,0,0,0,0.1,0c0,0,0,0,0,0c0,0,0-0.1,0-0.1c0,0,0.1,0.1,0.1,0
	c0.2-0.2,0.5-0.4,0.6-0.6c0,0,0,0,0,0c0-0.1,0.1-0.1,0.1-0.2c0,0,0.1,0,0.1,0C143,13,143.3,12.6,143.3,12.6z"/>
<path class="st3" d="M75.4,162.5c0.5,0.5,0.5,1.4,0,2l0,0c-0.5,0.5-1.4,0.5-2,0l-1.9-2c-0.5-0.5-0.5-1.4,0-2l0,0
	c0.6-0.5,1.4-0.5,2,0L75.4,162.5z"/>
<path class="st3" d="M71.7,160.4c-1-1.2-2.6-2.1-3.4-3.5"/>
<path class="st3" d="M86.9,230.1c-0.6,0.5-1.4,0.5-2-0.1l0,0c-0.5-0.6-0.5-1.4,0.1-2l2-1.9c0.6-0.5,1.4-0.5,2,0.1l0,0
	c0.5,0.6,0.5,1.4-0.1,2L86.9,230.1z"/>
<path class="st3" d="M89.1,226.4c1.2-1,2.2-2.6,3.6-3.3"/>
<path class="st7" d="M52.7,273.9l8.3-13.9c0,0,23.7-28.2,24-29.1"/>
<path class="st6" d="M53.3,298.8c1.3-0.1,2.7,0.3,4,0.1c1.4-0.2,2.7-0.5,4.1-0.8c1.6-0.3,2.9-0.8,4.5-1.3c-1.6-1.6-2.9-1.9-5.3-2
	c-5.6-0.2-11.2-0.4-16.7-0.3c-0.7,0-8.5-0.2-8.6,1.1c0,0.9,2.9,1.5,3.5,1.7c2,0.5,4,0.8,6,1c2.4,0.3,5,0.6,7.4,0.5"/>
<path class="st1" d="M52.2,274.2c0,0-0.2-0.1-0.1-0.2l0,0c0.1-0.2-0.2-0.2-0.1-0.4h0c0.1-0.1-0.1-0.1,0-0.2c0,0-0.1,0.1-0.1,0
	c0.1-0.1,0-0.2,0.1-0.3l-0.1,0c0-0.4-0.4-1.7-0.5-2.1l0,0c-0.2-0.5-0.3-1.6-0.6-2.1c0.1-0.1,0.1-0.2,0.1-0.3c0,0.1-0.1,0.1-0.1,0
	c0-0.3-0.1,0-0.2-0.3c-0.2-0.3-0.2-1.5-0.2-1.9c-0.2-0.1-0.1-0.3-0.2-0.4l0,0c-0.1-0.1-0.1-1.1-0.2-1.3l0,0
	c-0.1-0.1,0.1-0.2,0.1-0.3c-0.2,0.1-0.3,0-0.4-0.1l0,0c0-0.1-0.3-0.2-0.3-0.3l0.1,0c-0.1-0.1-0.5-0.5-0.5-0.5c0-0.2-1.3,0.2-1.5,0
	l-0.2-0.1l-2,0.5c0,0-1.3,0.3-2.1,0.9l-0.1,0l0,0.1c0,0.1,0.1,0.1,0,0.1l0-0.1c0,0.1-0.1,0-0.2,0c0,0,0,0.1,0,0.1c0,0,0,0,0.1,0
	c0,0,0.2,0.1,0.1,0.1c0,0.1-0.2,0.1-0.2,0.2c0,0.5-0.1,1,0,1.5c0,0,0,0-0.1,0c0.1,0.1,0.1,0.3,0.1,0.4c0,0.1-0.1,0.1-0.2,0.1
	c0.1,0,0.2,0.7,0.2,0.7l0.2-0.1c0,0.1-0.2,0.1-0.2,0.2c0.3,0,0,0.2,0.2,0.2c0,0,0,0.1-0.1,0.1c0.2,0,0.1,0.1,0.1,0.1c0,0,0,0,0.1,0
	l0.1,0.1c0,0.1-0.1,0.1-0.2,0.1c0,0.3,0,1.5,0.2,1.7c0.1-0.1,0-0.1,0.2-0.2c0.1,0,0,0.1,0.1,0.1c-0.3,0.1,0,0.2-0.3,0.3l0.2,0
	l-0.1,0.1c0.2,0.3,0.1,0,0.1,0.3c0.1,0.2,0.3,0.2,0.2,0.3c0,0,0.1-0.1,0.1,0c-0.1,0,0.1,0.1,0,0.1c0,0,0,0.2,0.2,0.1
	c-0.1,0.1-0.1,0.2-0.2,0.1c0,0,0,0.1,0,0.1l0-0.1c0,0.1-0.1,0.2,0.1,0.3l0.1-0.1c0,0.1,0,0.1-0.1,0.2l-0.1-0.1
	c0,0.1,0.1,0.2,0.2,0.3l0,0c0.2,0.1,0.5,0.8,0.7,0.8l0.1-0.1l0.1,0.1c0,0-0.5,0.1-0.4,0.1c0.1,0.2,0.4,1.4,0.3,1.7
	c-0.1,0.1-0.2,0.1-0.2,0.1c0.1,0.1,0.2,0,0.2,0.1c0,0-0.1,0-0.1,0c0,0,0,0.1,0,0.1c0-0.1,0.2-0.1,0.3-0.1l0,0.1l-0.1,0
	c0,0,0.3,0,0.3,0.1c0,0.2,0.1,0.4,0.1,0.6c-0.1,0-0.1,0-0.2,0c0,0,0,0.1,0,0.1c0.1-0.1,0.1,0.1,0.1,0c0.3,0.1,0.1,0.3,0.3,0.4
	l0.8-0.2c0.1,0.2,0.3,0.6,0.7,0.9c0.4,0.3,0.9,0.5,1.1,0.5c0,0-0.2-0.1-0.2-0.1c0.1,0,0.1,0.1,0.2,0c0,0.1,0.2,0.1,0.3,0.2l0,0l0,0
	c0.4,0,0.1,0,0.5,0c0.2,0,0.3-0.1,0.4-0.1c0,0-0.1,0,0,0c0,0,0.1-0.1,0.2,0c0,0,0.2-0.1,0.1-0.1c0,0,0.2,0,0.1,0c0,0,0.1,0,0.1-0.1
	l-0.1,0c0.1-0.1,0.3-0.1,0.3-0.2l-0.1,0c0.1-0.1,0.1-0.1,0.2-0.1l-0.1,0.1c0.1-0.1,0.2-0.2,0.3-0.3l0,0c0-0.1,0.2-0.3,0.3-0.5
	c0.1-0.2,0.1-0.5,0.1-0.6l-0.1,0.1c0-0.1,0-0.1,0-0.1c0,0,0.1,0.1,0.1,0.1c0-0.1,0.1-0.5,0-0.9l0.8-0.2c0,0,0,0.1,0,0.1
	c0.1,0,0.1-0.1,0-0.1l-0.2,0c-0.1-0.1,0.1-0.1,0.1-0.1c0.1,0,0.2,0,0.2,0.1c0-0.1,0.1-0.2-0.1-0.2C52,274.2,52.2,274.3,52.2,274.2z"
	/>
<path class="st1" d="M47.4,256.6L47.4,256.6l0-0.1c-0.1-0.1-0.2-0.1-0.1-0.2l0.1,0.2c-0.1-0.1,0-0.1,0.1,0c0-0.1-0.1-0.1-0.1-0.2
	c0,0,0,0,0,0.1c-0.1-0.1-0.2-0.1-0.2-0.2c-0.1-0.1,0-0.1-0.1-0.2c-0.7-0.7-1.7-1.2-2.7-1.1c0,0,0,0,0,0c-0.3,0-0.6,0.1-0.8,0.2
	c-0.1,0-0.1,0-0.1-0.1c0,0-0.3,0.1-0.7,0.3c-0.3,0.2-0.6,0.4-0.6,0.4l0,0.1c-0.2,0.2-0.1,0-0.3,0.2c0,0.2-0.3,0.3-0.3,0.5
	c0,0-0.1,0.1-0.1,0.1c0,0.1-0.1,0.1-0.1,0.2c0,0,0,0,0.1,0c0,0.1,0,0.1-0.1,0.2c-0.1,0.1-0.1,0.1-0.1,0c-0.1,0.2-0.4,0.9-0.5,1.7
	c0,0.8,0.2,1.6,0.3,1.9c0-0.1-0.1-0.3,0-0.3c0.1,0.1,0.1,0.2,0.1,0.3c-0.1,0.1,0.1,0.3,0,0.5l0.1,0l0,0.1c0.4,0.6,0.3,0,0.7,0.5
	c0.2,0.3,0.4,0.3,0.5,0.4c0,0,0-0.1,0-0.1c0,0.1,0.1,0.1,0.1,0.2c0.1,0.1,0.1,0.4,0.1,0.3c0,0.1,0.2,0.2,0.1,0.2
	c0.1,0,0.1,0.1,0.2,0.1l-0.1-0.1c0.2,0.1,0.4,0.3,0.5,0.3l-0.1-0.1c0.1,0.1,0.3,0.1,0.3,0.2l-0.2,0c0.3,0.1,0.4,0.1,0.6,0.1l-0.1,0
	c0.1,0,0.6,0,1,0c0.4,0,0.8-0.2,0.9-0.3l-0.1,0c0.1,0,0.1-0.1,0.2-0.1c0,0,0,0.3,0,0.3c0.2-0.1,0.8-0.3,1.3-0.8
	c0.5-0.5,0.7-1.1,0.8-1.3c0.1-0.1,0.1,0,0.1,0c0-0.2,0-0.1,0-0.3c0,0,0.1,0,0.1,0.1c0-0.1,0.1-0.1,0-0.2c-0.1,0.1-0.1,0-0.2,0
	c0-0.1,0-0.1,0.1-0.2l0,0c0,0-0.1-0.4,0-0.6c0.1-0.4,0-0.5-0.1-0.9c0,0,0.1,0.1,0.1,0.2c0-0.1,0-0.1,0-0.2c0,0.1-0.1-0.2-0.1-0.1
	c-0.2-0.2-0.5-0.5-0.7-0.7c-0.1,0-0.1,0-0.6,0.1c-0.1-0.1-0.1-0.2-0.1-0.3C47.1,257.3,47.4,257,47.4,256.6z"/>
<path class="st1" d="M44,262.4C44,262.4,44.1,262.4,44,262.4C44.1,262.4,44,262.4,44,262.4c0,0.3,0,0.4,0,0.6c0,0,0,0,0,0
	c0,0,0,0.1,0.1,0.1c0,0-0.1,0-0.1,0c0,0,0.1,0.2,0.1,0.2l0.1,0c0,0-0.1,0-0.1,0.1c0.1,0,0,0.1,0.1,0.1c0,0,0,0-0.1,0c0.1,0,0,0,0,0
	c0,0,0,0,0,0l0,0c0,0-0.1,0-0.1,0c0,0.1,0,0.5,0.1,0.6c0.1,0,0,0,0.1-0.1c0.1,0,0,0,0,0c-0.1,0,0,0.1-0.1,0.1l0.1,0l0,0
	c0.1,0.1,0,0,0.1,0.1c0,0-0.2,0-0.3,0.1c0,0,0,0,0,0c-0.1,0,0.1,0,0,0c0,0,0,0.1,0.1,0c0,0-0.1,0.1-0.1,0.1c0,0,0,0,0,0l0,0
	c0,0,0,0.1,0,0.1l0,0c0,0,0,0,0,0l0,0c0,0,0,0,0,0c1,0.1,2.1,0.2,3-0.3c-0.1-0.2-0.1-0.4-0.2-0.6c0.1,0,0-0.1,0-0.1c0,0-0.1,0-0.1,0
	c0-0.1,0,0-0.1-0.1c-0.1-0.1-0.1-0.5-0.1-0.6c-0.1,0-0.1-0.1-0.1-0.1h0c0-0.1,0-0.4-0.1-0.4l0,0c-0.1,0,0-0.1,0-0.1
	c-0.1,0-0.2,0-0.2,0l0,0c0,0-0.1-0.1-0.1-0.1l0.1,0c-0.1,0-0.1-0.1-0.1-0.1c0-0.1,0.1-0.2,0-0.2l0.1-0.1l0,0c0,0-1.9,0.4-2.2,0.6
	L44,262.4L44,262.4C44,262.4,44.1,262.4,44,262.4L44,262.4C44,262.4,44,262.4,44,262.4C44,262.4,44,262.4,44,262.4
	C44,262.4,44,262.4,44,262.4z"/>
<path class="st1" d="M46.9,294.4c0,0.2,1.5,0.9,1.5,1.1c0.1,0.1,0.2,0,0.2,0c-0.1,0.1-0.1,0-0.1,0.1c0,0,0.1,0,0.1,0
	c0,0,0,0.1,0,0.1c0,0-0.2,0-0.3-0.1l2,0.5h0.1c0,0-0.2,0.1-0.2,0.2c0,0.2,0.5,0.7,0.5,0.9c0.1,0,0.1,0,0.1-0.1c0,0,0,0.1,0,0.1
	c-0.1-0.1-0.1,0.1-0.1,0c-0.2,0.1-3.1,0.2-3.3,0.3l-3.6,0.1c0,0,0,0.1,0,0.1c-0.1,0-0.1-0.1,0-0.1h0.1c0-0.1-0.1,0-0.1-0.1
	c-0.1,0-0.1,0.1-0.1,0.1c0-0.1-0.1-0.1,0-0.2c0-0.1-0.1,0-0.2-0.1c0-0.1,0.1-0.1,0.1-0.2h0c-0.1-0.2,0.2-0.2,0.1-0.4l0,0
	c-0.1-0.1,0-0.1,0-0.2c0,0,0.1,0.1,0.1,0c-0.1-0.1,0-0.2-0.1-0.2l0.1-0.1c0-0.4,0.2-1.7,0.2-2.1l0,0"/>
<path class="st1" d="M54.9,293L54.9,293l-0.2,0c0,0,0.4,0,0.3,0c-0.1,0.2,1.2,0.5,1.2,0.7c0,0.1,0.8,0.4,0.8,0.4
	c-0.1,0.1,0.6,0.2,0.6,0.3c0,0,0.1,0,0.1,0c0,0,0.4,0.3,0.3,0.3c0.4,0.3,0.1-0.1,0.4,0.1l0,0.1l0.1,0c0,0-0.3,0-0.2,0.2
	c0,0.2-0.1,0.4-0.1,0.6c0.1,0,0.1,0,0.1-0.1c0,0,0,0.1,0,0.1c-0.1-0.1-0.1,0.1-0.1,0c-0.2,0.1-1.4-0.1-1.5,0.1l-5.1-0.5
	c0,0,0,0.1,0,0.1c-0.1,0-0.1-0.1,0-0.1l0.1,0c0.1-0.1-0.1,0,0-0.1c-0.1,0-0.1,0.1-0.2,0.1c0-0.1-0.1-0.1,0.1-0.2
	c0-0.1-0.1,0-0.2-0.1c0-0.1,0.2-0.1,0.1-0.2h0c-0.1-0.2,0.2-0.2,0.1-0.4l0,0c0-0.1,0-0.2,0-0.2c0,0,0.1,0.1,0.1,0c0-0.1,0-0.2,0-0.3
	l0.1-0.1c0-0.4,0.3-1.2,0.4-1.5l0,0"/>
<path class="st1" d="M49.8,283.3c-0.1,0-0.1-0.6-0.1-0.7l-0.2,0c0-0.1,0.2,0,0.1-0.2c-0.2,0,0-0.2-0.1-0.2c0,0,0-0.1,0.1-0.1
	c-0.1,0,0-0.1-0.1-0.1c0,0,0,0-0.1,0l0-0.1c0,0,0.1,0,0.1,0c0-0.2,0.1-1.3,0.1-1.5c-0.1,0,0,0.1-0.2,0.1c-0.1-0.1,0-0.1-0.1-0.1
	c0.2,0,0.1-0.1,0.3-0.2l-0.1,0l0.1,0c-0.1-0.3-0.1-0.1,0-0.3c0-0.1-0.2-0.2-0.1-0.3c0,0-0.1,0-0.1,0c0.1,0-0.1-0.1,0-0.1
	c0,0,0.2-0.1,0.1-0.1c0.1,0,0.1-0.1,0.2-0.1c0,0,0-0.1,0-0.1l0,0c0-0.1,0.1-0.2,0-0.3l-0.1,0c0-0.1,0-0.1,0.1-0.2l0,0.1
	c0-0.1,0-0.2-0.1-0.3l0,0c-0.2-0.1-0.3-0.8-0.5-0.9l-0.1,0.1l-0.1-0.1c0,0,0.4,0,0.3,0.1c0-0.2-0.1-1.3,0-1.5c0.1-0.1,0.2,0,0.2,0
	c0-0.1-0.1,0-0.1-0.1c0,0,0.1,0,0.1,0c0,0,0-0.1,0-0.1c0,0-0.2,0-0.3,0l0-0.1l0.1,0c0,0-0.2-0.1-0.2-0.2c0-0.2,0-0.4,0-0.5
	c0.1,0,0.1,0,0.1,0.1c0,0,0-0.1,0-0.1c-0.1,0-0.1-0.1-0.1,0c-0.2-0.1,0-0.3-0.2-0.4l-4,0.1c0,0,0-0.1,0-0.1c-0.1,0-0.1,0.1,0,0.1
	l0.1,0c0,0.1-0.1,0-0.1,0.1c-0.1,0-0.1-0.1-0.1-0.1c0,0.1-0.1,0.1,0,0.1c0,0.1-0.1,0-0.2,0.1c0,0,0.1,0.1,0.1,0.2l0,0
	c-0.1,0.1,0.2,0.2,0.1,0.3l0,0c-0.1,0,0,0.1,0,0.2c0,0,0.1,0,0.1,0c-0.1,0.1,0,0.1-0.1,0.2l0.1,0.1c0,0.3,0.1,1.2,0.2,1.5l0,0
	c0.1,0.5,0.2,1.5,0.3,2c-0.1,0.1-0.1,0.2-0.1,0.3c0,0,0.1,0,0.1,0c0,0.2,0.1,0,0.1,0.3c0.1,0.3,0,1.4-0.1,1.6c0.2,0.1,0,0.3,0.1,0.4
	l0,0c0.1,0.1-0.1,1,0,1.1l0,0c0.1,0.1-0.1,0.1-0.1,0.2c0.2,0,0.3,0.1,0.3,0.1h0c0,0.1,0.2,0.2,0.2,0.3l-0.1,0
	c0.1,0.1,0.1,0.3,0.1,0.4c0,0.2-0.2,0.4-0.1,0.6l-0.2,0.1l0,0c0,0,0.1,0,0.3,0c0,0.1,0,0.1,0,0.1l0,0c0,0.1,0,0,0,0.2
	c0.1,0,0.1,0.2,0.1,0.2c0,0,0,0.1,0,0.1c0,0,0,0,0.1,0.1c0,0,0,0,0,0c0,0,0,0,0.1,0.1c0,0,0,0,0,0c0.1,0.1,0.3,0.4,0.6,0.5
	c0.3,0.2,0.7,0.2,0.8,0.2c0,0-0.1,0-0.1-0.1c0.1,0,0.1,0,0.1,0c0,0.1,0.1,0,0.2,0.1l0,0l0,0c0.3-0.1,0.1,0,0.3,0
	c0.1,0,0.2-0.1,0.3-0.1c0,0-0.1,0,0,0c0,0,0.1-0.1,0.1,0c0,0,0.1-0.1,0.1-0.1c0,0,0.1,0,0.1,0c0,0,0.1,0,0.1-0.1l0,0
	c0.1-0.1,0.2-0.1,0.2-0.2l0,0c0.1,0,0.1-0.1,0.1-0.1l0,0.1c0.1-0.1,0.1-0.1,0.2-0.2l0,0c0-0.1,0.1-0.2,0.2-0.4c0-0.2,0-0.3,0-0.4
	l0,0c0,0,0-0.1,0-0.1c0,0,0.1,0.1,0.1,0.1c0,0,0-0.1,0-0.1l0,0l0-0.1c0-0.1-0.1-0.1,0-0.1l0,0.1c0-0.1,0.1,0,0.1,0c0,0,0-0.1,0-0.1
	c0,0,0,0-0.1,0c0,0-0.1-0.1-0.1-0.1c0-0.1,0.1,0,0.2-0.1c0.1-0.4,0.2-0.8,0.1-1.3c0,0,0,0,0.1,0c0-0.1,0-0.2-0.1-0.4
	C49.7,283.3,49.8,283.3,49.8,283.3z"/>
<path class="st1" d="M55.1,283.3c0-0.1,0-0.2-0.1-0.3c0,0,0-0.1,0-0.1l0,0l0,0c0,0,0,0,0-0.1c0.1,0,0.1,0,0.1,0.1
	c0-0.1,0.1-0.1-0.1-0.1c0-0.1,0.1,0,0.2-0.1c0,0-0.2-0.1-0.1-0.1l0,0c0.1-0.2-0.2-0.1-0.1-0.3h0c0-0.1-0.1-0.1,0-0.2
	c0,0-0.1,0.1-0.1,0c0-0.1,0-0.1,0-0.2l-0.1,0c-0.1-0.3-0.5-1.1-0.6-1.4l0,0c-0.2-0.4-0.5-1.3-0.8-1.8c0.1-0.1,0-0.2,0-0.3
	c0,0.1-0.1,0.1-0.1,0c-0.1-0.2-0.1,0-0.2-0.2c-0.2-0.2-0.4-1.3-0.4-1.5c-0.2-0.1-0.1-0.3-0.3-0.4l0,0c-0.1-0.1-0.2-0.9-0.3-1l0,0
	c-0.1-0.1,0-0.1,0-0.3c-0.2,0.1-0.3,0-0.3-0.1l0,0c0-0.1-0.2-0.2-0.3-0.3l0.1,0c-0.1-0.1-0.1-0.2-0.2-0.3c0-0.2,0.1-0.5-0.1-0.6
	l0.2-0.2l0,0c0,0-3.4,1-4,1.5l-0.1,0l0,0c0,0.1,0.1,0.1,0,0.1l0-0.1c0,0.1-0.1,0-0.1,0c0,0,0,0.1,0,0.1c0,0,0,0,0.1,0
	c0,0,0.1,0,0.1,0.1c0,0.1-0.1,0.1-0.1,0.1c0.1,0.4,0.1,0.8,0.2,1.2c0,0,0,0-0.1,0c0.1,0.1,0.1,0.2,0.2,0.3c0,0-0.1,0.1-0.1,0.1
	c0.1-0.1,0.3,0.6,0.3,0.6l0.2-0.1c0,0.1-0.2,0.1-0.1,0.2c0.2,0,0,0.2,0.2,0.2c0,0,0,0.1-0.1,0.1c0.1,0,0.1,0,0.1,0.1c0,0,0,0,0.1,0
	l0.1,0.1c0,0-0.1,0.1-0.1,0.1c0,0.2,0.6,1.1,0.7,1.3c0.1-0.1,0-0.1,0.1-0.2c0.1,0,0,0.1,0.1,0.1c-0.2,0.1,0,0.1-0.2,0.3l0.1,0
	l-0.1,0.1c0.2,0.2,0.1,0,0.1,0.3c0.1,0.1,0.3,0.1,0.2,0.2c0,0,0.1-0.1,0.1,0c-0.1,0,0.1,0.1,0,0.1c0,0,0,0.1,0.2,0.1
	c-0.1,0-0.1,0.1-0.2,0.1c0,0,0,0.1,0,0.1l0-0.1c0.1,0.1,0,0.2,0.1,0.2l0-0.1c0,0.1,0.1,0.1-0.1,0.2l-0.1-0.1c0,0.1,0.1,0.2,0.2,0.2
	l0,0c0.2,0.1,0.5,0.6,0.7,0.7l0.1-0.1l0.1,0.1c0,0-0.4,0.1-0.4,0.1c0.1,0.2,0.5,1.2,0.5,1.4c0,0.1-0.2,0.1-0.2,0.1
	c0.1,0.1,0.1,0,0.2,0.1c0,0-0.1,0-0.1,0c0,0,0,0.1,0.1,0.1c0-0.1,0.2-0.1,0.3-0.1l0,0.1l-0.1,0c0,0,0.3,0,0.3,0.1
	c0,0.2,0.1,0.3,0.1,0.5c-0.1,0-0.1,0-0.1,0c0,0,0,0.1,0,0.1c0.1-0.1,0.1,0,0.1,0c0.3,0,0.1,0.3,0.3,0.3l0.2-0.1c0,0,0,0.1,0.1,0.1
	c0,0,0,0,0,0.1c0,0,0.1,0.1,0.2,0.2c0.1,0.1,0.3,0.2,0.3,0.2l0,0c0.1,0.1,0,0.1,0.1,0.1c0.1,0,0.2,0.1,0.2,0.1c0,0,0.1,0,0,0
	c0,0,0.1,0,0.1,0c0,0,0,0,0,0c0,0,0.1,0,0.1,0c0,0,0,0,0,0c0.1,0,0.5,0.1,0.8,0c0.4-0.1,0.7-0.2,0.8-0.3c0,0-0.1,0.1-0.2,0
	c0-0.1,0.1,0,0.1-0.1c0.1,0,0.1-0.1,0.2-0.1l0,0l0,0c0.2-0.2,0,0,0.2-0.2c0.1-0.1,0.1-0.2,0.1-0.3c0,0,0,0,0,0c0,0,0-0.1,0.1-0.1
	c0,0,0.1-0.1,0-0.1c0,0,0.1-0.1,0.1,0c0,0,0-0.1,0-0.1l0,0c0-0.1,0.1-0.2,0-0.3l0,0c0-0.1,0-0.1,0.1-0.2l0,0.1
	C55.1,283.4,55.1,283.3,55.1,283.3L55.1,283.3z"/>
<path class="st1" d="M47.6,292.2l-0.2,0c0-0.1,0.2,0,0.2-0.1c-0.2-0.1,0.1-0.2,0-0.2c0,0,0,0,0.1,0c-0.1,0,0-0.1,0-0.1
	c0,0,0,0-0.1,0l0-0.1c0,0,0.1,0,0.1,0c0.1-0.2,0.5-1.1,0.5-1.4c-0.1,0-0.1,0.1-0.2,0.1c-0.1-0.1,0.1-0.1,0-0.1
	c0.2,0,0.1-0.1,0.3-0.1l-0.1,0l0.1,0c-0.1-0.3,0-0.1,0-0.3c0-0.1-0.1-0.2-0.1-0.3c0,0-0.1,0-0.1,0c0.1,0-0.1-0.1,0.1-0.1
	c0,0,0-0.1-0.1-0.1c0.1,0,0.1-0.1,0.2,0c0,0,0-0.1,0-0.1l0,0c0-0.1,0.3-0.3,0.2-0.4l0.1,0.3c0-0.1-0.2-0.4,0-0.4l0,0.1
	c0-0.1,0-0.2,0-0.3l0,0c-0.1-0.1,0.1-0.5-0.1-0.6l-0.1,0l-0.1-0.1c0,0,0.4,0.1,0.3,0.1c0-0.2,0.2-1.2,0.3-1.4c0.1-0.1,0.2,0,0.2,0
	c0-0.1-0.1-0.1-0.1-0.1c0,0,0.1,0,0.1,0c0,0,0-0.1,0-0.1c-0.1,0-0.2,0-0.3,0l0-0.1l0.1,0c0,0-0.2-0.1-0.2-0.2
	c0.1-0.2,0.1-0.3,0.2-0.5c0.1,0,0.1,0.1,0.1,0.1c0,0,0-0.1,0-0.1c-0.1,0-0.1-0.1-0.1-0.1c-0.2-0.2,0-0.3-0.1-0.4l-3-0.7
	c0,0,0-0.1,0-0.1c-0.1,0-0.1,0.1-0.1,0.1l0.1,0c0,0.1-0.1,0-0.1,0.1c-0.1,0-0.1-0.1-0.1-0.2c0,0.1-0.1,0.1,0,0.1c-0.1,0-0.1,0-0.2,0
	c0,0,0.1,0.1,0,0.2l0,0c-0.1,0.1,0.1,0,0,0.1l0,0c-0.1,0,0,0.1-0.1,0.2c0,0,0.1,0,0.1,0c-0.1,0.1,0,0.1-0.1,0.2l0.1,0.1
	c-0.1,0.3-0.2,1.5-0.3,1.8l0,0c-0.1,0.5-0.6,1.3-0.6,1.8c-0.1,0-0.1,0.2-0.2,0.2c0.1,0,0.1,0,0.1,0c-0.1,0.2,0.1,0,0.1,0.3
	c0,0.3-0.2,1.1-0.4,1.3c0.1,0.2,0,0.3,0,0.4l0,0c0,0.1-0.3,0.9-0.3,1l0,0c0.1,0.2-0.1,0.1-0.2,0.2c0.2,0,0.2,0.2,0.2,0.2l0,0
	c0,0.1-0.4,0.3-0.4,0.4l-0.1,0c0.1,0.1,0,0.3,0,0.3c-0.1,0.1,0.1,0.4,0.2,0.7l-0.3,0.1l0,0c0,0,2.7,0.9,3.5,0.8l0.1,0v-0.1
	c0.1-0.1,0-0.1,0.1-0.1l0,0.1c0-0.1,0.1,0,0.1,0c0,0,0,0,0.1-0.1c0,0,0,0-0.1,0c0,0-0.1-0.1,0-0.1c0-0.1,0.2,0,0.2,0
	c0.2-0.4,0-0.9,0.1-1.3c0,0,0,0,0.1,0c0-0.1,0-0.2,0-0.4c0.1,0,0.1,0,0.1,0C47.4,292.9,47.6,292.2,47.6,292.2z"/>
<path class="st1" d="M55.3,290.7l-0.2,0c0-0.1,0.2,0,0.2-0.1c-0.2-0.1,0-0.2-0.1-0.2c0,0,0-0.1,0.1-0.1c-0.1,0,0-0.1-0.1-0.1
	c0,0,0,0-0.1,0l0-0.1c0,0,0.1,0,0.1,0c0.1-0.2,0.2-1.2,0.2-1.4c-0.1,0,0,0.1-0.2,0.1c-0.1-0.1,0-0.1-0.1-0.1c0.2,0,0.1-0.1,0.3-0.2
	l-0.1,0l0.1,0c-0.1-0.3-0.1-0.1,0-0.3c0-0.1-0.2-0.2-0.1-0.3c0,0-0.1,0-0.1,0c0.1,0-0.1-0.1,0-0.1c0,0,0-0.1-0.2-0.1
	c0.1,0,0.1-0.1,0.2-0.1c0,0,0-0.1,0-0.1l0,0c0-0.1,0.2-0.4,0.1-0.4l0.2,0.3c0-0.1-0.3-0.4-0.1-0.4l0,0.1c0-0.1,0-0.2-0.1-0.3l0,0
	c-0.2-0.1,0-0.5-0.2-0.6l-0.1,0.1l-0.1-0.1c0,0,0.4,0.1,0.4,0.1c0-0.2-0.1-1.2,0-1.4c0.1-0.1,0.2,0,0.2,0c0-0.1-0.1,0-0.1-0.1
	c0,0,0.1,0,0.1,0c0,0,0-0.1,0-0.1c0,0-0.2,0-0.3,0l0-0.1l0.1,0c0,0-0.3-0.1-0.2-0.2c0-0.2,0-0.3,0-0.5c0.1,0,0.1,0,0.1,0.1
	c0,0,0-0.1,0-0.1c-0.1,0-0.1-0.1-0.1,0c-0.2-0.1,0-0.3-0.2-0.4l-3-0.1c0,0,0-0.1,0-0.1c-0.1,0-0.1,0.1-0.1,0.1l0.1,0
	c0,0.1-0.1,0-0.1,0.1c-0.1,0-0.1-0.1-0.1-0.1c0,0.1-0.1,0.1,0,0.1c0,0.1-0.1,0-0.2,0.1c0,0,0.1,0.1,0.1,0.2h0c-0.1,0.1,0.2,0,0,0.1
	l0,0c-0.1,0,0,0.1-0.1,0.2c0,0,0.1,0,0.1,0c-0.1,0.1,0,0.1-0.1,0.2l0.1,0.1c0,0.3,0.1,1.5,0.1,1.8l0,0c0,0.5-0.3,1.4-0.2,1.9
	c-0.1,0.1-0.1,0.2-0.1,0.2c0,0,0.1,0,0.1,0c0,0.2,0.1,0,0.1,0.3c0.1,0.3,0,1.1-0.1,1.3c0.1,0.1,0,0.3,0.1,0.4l0,0
	c0.1,0.1-0.1,0.9-0.1,1.1l0,0c0.1,0.1-0.1,0.1-0.1,0.2c0.2,0,0.3,0.1,0.3,0.2l0,0c0,0.1-0.3,0.3-0.3,0.4l-0.1,0
	c0.1,0.1,0.1,0.3,0.1,0.3c0,0.2,0.2,0.4,0.3,0.6l-0.3,0.1l0,0c0,0,2.8,0.3,3.6,0l0.1,0l0-0.1c0-0.1-0.1-0.1,0-0.1l0,0.1
	c0-0.1,0.1,0,0.1,0c0,0,0-0.1,0.1-0.1c0,0,0,0-0.1,0c0,0-0.1-0.1-0.1-0.1c0-0.1,0.2,0,0.2-0.1c0.1-0.4-0.2-0.9-0.2-1.3
	c0,0,0,0,0.1,0c0-0.1,0-0.2-0.1-0.4c0,0,0.1,0,0.1,0C55.3,291.3,55.3,290.7,55.3,290.7z"/>
<path class="st1" d="M40.9,273.5L40.9,273.5L40.9,273.5L40.9,273.5z"/>
<path class="st1" d="M44.5,266.6c-0.1-0.2,0.1-0.2,0.1-0.3l-0.2-0.1l0,0l0,0h0c0-0.1,0-0.1,0-0.2l0,0c0,0,0-0.1,0-0.1l0,0.1
	c0-0.1,0-0.1,0-0.2l0,0c0,0,0-0.2-0.1-0.3c-0.1-0.1-0.1-0.2-0.2-0.3l0,0c0,0,0,0-0.1,0c0,0,0.1,0,0.1,0c0-0.1-0.2-0.2-0.4-0.4
	c-0.2-0.1-0.4-0.2-0.5-0.2c-0.1,0,0,0,0,0c-0.1,0,0,0-0.1,0c0,0,0,0,0,0c0,0-0.1,0-0.1,0c0,0,0,0,0,0.1c0,0-0.1,0-0.1,0l0,0
	c0,0,0,0-0.1,0c-0.1,0-0.3,0-0.4,0.1c0,0,0,0,0,0c0,0,0,0-0.1,0c0,0,0,0,0,0c-0.1,0.1-0.1,0.1-0.2,0.1l-0.1-0.1c0,0,0,0,0.1,0
	c0,0-0.1,0-0.1,0.1l0.1,0.1c0,0.1-0.1,0-0.1,0c-0.1,0,0-0.1,0-0.2c0,0-0.1,0-0.1,0.1c0,0-0.1-0.1-0.1,0c0,0,0,0.1,0,0.1l0,0
	c-0.1,0-0.1,0.1-0.1,0.2l0,0c0,0,0,0-0.1,0h0l0,0c-0.1,0,0,0.1-0.1,0.1c0,0,0,0,0.1,0c0,0,0,0,0,0.1c0,0,0,0.1-0.1,0.1l0,0.1
	c-0.2,0.2-0.3,0.5-0.4,0.8l0,0c-0.2,0.3-0.6,1-0.8,1.4c-0.1,0-0.1,0.1-0.2,0.1c0,0,0.1,0,0.1,0.1c-0.1,0.2,0,0,0,0.2
	c-0.1,0.2-0.6,0.9-0.8,1c0,0.2-0.1,0.2-0.1,0.3l0,0c0,0.1-0.5,0.6-0.5,0.7l0,0c0,0.1-0.1,0-0.2,0.1c0.1,0.1,0.1,0.2,0.1,0.2l0,0
	c0,0.1,0,0.2,0,0.3l-0.1,0c0,0.1-0.1,0.2-0.1,0.3c-0.1,0.1-0.3,0.2-0.3,0.4l-0.2,0l0,0c0,0,0.1,0.1,0.2,0.2c0,0,0,0,0,0c0,0,0,0,0,0
	c0,0.1,0,0.2,0,0.3c0,0,0,0,0,0c0,0,0,0.1,0,0.2c0,0.1,0.1,0.2,0.1,0.2l0,0c0,0.1,0,0,0,0.1c0.1,0,0.1,0.1,0.1,0.1c0,0,0,0,0,0
	c0,0,0,0,0.1,0.1c0,0,0,0,0,0c0,0,0,0,0,0c0,0,0,0,0,0c0.1,0.1,0.2,0.3,0.5,0.4c0.2,0.1,0.5,0.2,0.6,0.2c0,0-0.1,0-0.1,0
	c0,0,0.1,0,0.1,0c0,0,0.1,0,0.2,0.1l0,0l0,0c0.2-0.1,0,0,0.2,0c0.1,0,0.1-0.1,0.2-0.1c0,0,0,0,0,0c0,0,0.1,0,0.1,0
	c0,0,0.1-0.1,0.1-0.1c0,0,0.1,0,0.1,0c0,0,0,0,0.1,0l0,0c0.1-0.1,0.1-0.1,0.1-0.1l0,0c0,0,0,0,0,0h0c0,0,0,0,0,0l0,0c0,0,0,0,0,0
	l0,0h0c0,0,0-0.1,0.1-0.1c0,0,0,0,0.1,0c0.2-0.2,0.5-0.5,0.7-0.8c0,0,0,0,0,0c0-0.1,0.1-0.2,0.1-0.3c0,0,0.1,0,0.1,0
	c-0.1,0,0.2-0.5,0.3-0.5l-0.1-0.1c0.1-0.1,0.1,0.1,0.2,0c-0.1-0.1,0.1-0.1,0-0.2c0,0,0,0,0.1,0c-0.1-0.1,0-0.1,0-0.1c0,0,0,0-0.1,0
	l0-0.1c0,0,0.1,0,0.1,0.1c0.1-0.1,0.7-0.8,0.7-0.9c-0.1,0-0.1,0.1-0.2,0c0-0.1,0.1,0,0-0.1c0.2,0.1,0.1-0.1,0.3,0l-0.1-0.1l0.1,0
	c0-0.2,0-0.1,0.1-0.2c0.1-0.1,0-0.2,0-0.2c0,0-0.1,0-0.1,0c0.1,0,0-0.1,0.1-0.1c0,0,0.1-0.1,0-0.1c0.1,0,0.1,0,0.1,0c0,0,0,0,0-0.1
	l0,0c0-0.1,0.1-0.1,0.1-0.2h-0.1c0,0,0-0.1,0.2,0l0,0.1c0-0.1,0.1-0.1,0.1-0.2l0,0c0-0.1,0.2-0.6,0.1-0.8l-0.1,0l0-0.1
	c0,0,0.2,0.2,0.2,0.2c0.1-0.1,0.2-0.4,0.3-0.5c0.1,0,0.1,0.1,0.1,0.1c0-0.1-0.1-0.1,0-0.1c0,0,0.1,0,0.1,0.1c0,0,0,0,0-0.1
	c0,0-0.1-0.1-0.2-0.1l0.1-0.1l0.1,0c0,0-0.1-0.1-0.1-0.2C44.3,266.9,44.3,266.7,44.5,266.6c0,0,0,0.1,0,0.1
	C44.5,266.7,44.5,266.7,44.5,266.6C44.4,266.7,44.5,266.6,44.5,266.6z M40.8,272.6C40.8,272.6,40.8,272.6,40.8,272.6L40.8,272.6
	L40.8,272.6z"/>
<path class="st1" d="M55.3,264.9L55.3,264.9L55.3,264.9L55.3,264.9z"/>
<ellipse class="st8" cx="11.9" cy="299.4" rx="1.6" ry="1.6"/>
<path class="st9" d="M138.8,92.5c9.1,4.2,11.5,17.2,7.7,25.6c-1.3,2.8-6.7,9.9-9.4,5.2c-1.7-2.9,1.7-5.5,4.5-4.4
	c6.2,2.5,1,14.1,0,18.3"/>
<path class="st1" d="M127.3,158.4c0.1,0,0.2,0,0.2-0.1l0,0c0-0.2,0.3-0.1,0.2-0.3l0,0c0-0.1,0.1-0.1,0.1-0.2c0,0,0.1,0.1,0.1,0.1
	c0-0.1,0.1-0.1,0-0.3l0.1,0c0.2-0.3,1-1.4,1.2-1.7l0,0c0.3-0.4,0.9-1.4,1.3-1.8c-0.1-0.2,0-0.2,0-0.3c0,0.1,0.1,0.1,0.1,0.1
	c0.1-0.2,0.1,0,0.3-0.2c0.3-0.2,0.8-1.4,0.8-1.7c0.2,0,0.2-0.3,0.4-0.3l0,0c0.1-0.1,0.5-1,0.6-1.1l0,0c0.2-0.1,0-0.2,0-0.3
	c0.2,0.1,0.3,0.1,0.4,0l0,0c0.1,0,0.3-0.1,0.4-0.2l-0.1-0.1c0.2,0,0.6-0.3,0.7-0.3c0.1-0.2,1.2,0.7,1.4,0.6l0.2-0.1l1.7,1.1
	c0,0,1.1,0.8,1.6,1.5l0.1,0.1l0,0c0,0.1-0.1,0.1,0,0.1l0-0.1c0,0.1,0.1,0.1,0.1,0.1c0,0,0,0.1,0,0.1c0,0,0,0,0-0.1
	c-0.1,0-0.2,0-0.2,0.1c0,0.1,0.1,0.1,0.1,0.2c-0.2,0.5-0.3,1-0.6,1.4c0,0,0,0,0.1,0c-0.1,0.1-0.2,0.2-0.3,0.3c0,0.1,0.1,0.1,0.1,0.1
	c-0.1-0.1-0.5,0.6-0.4,0.6l-0.2-0.1c-0.1,0.1,0.2,0.2,0.1,0.3c-0.3-0.1-0.1,0.2-0.2,0.2c0,0,0,0.1,0.1,0.1c-0.1-0.1-0.1,0-0.1,0
	c0,0,0,0-0.1-0.1l-0.1,0.1c0,0.1,0.1,0.1,0.1,0.1c-0.1,0.2-0.5,1.4-0.7,1.6c-0.1-0.1,0-0.1-0.1-0.3c-0.1,0,0,0.1-0.1,0.1
	c0.2,0.2,0,0.2,0.2,0.4l-0.1-0.1l0.1,0.1c-0.3,0.2-0.1,0-0.2,0.3c-0.1,0.1-0.3,0.1-0.3,0.2c0,0-0.1-0.1-0.1-0.1c0.1,0.1-0.1,0,0,0.1
	c0,0-0.1,0.2-0.2,0c0.1,0.1,0,0.2,0.1,0.2c0,0,0,0.1-0.1,0.1l0-0.1c-0.1,0.1,0,0.3-0.2,0.2l0-0.1c0,0.1-0.1,0.1,0,0.2l0.1,0
	c-0.1,0.1-0.1,0.2-0.3,0.2l0,0c-0.2,0-0.7,0.6-1,0.5l-0.1-0.1l-0.2,0c0,0,0.4,0.2,0.4,0.2c-0.1,0.2-0.8,1.2-0.9,1.5
	c0,0.1,0.2,0.1,0.2,0.2c-0.1,0.1-0.2,0-0.2,0c0,0,0.1,0.1,0.1,0.1c0,0,0,0.1-0.1,0c0-0.1-0.2-0.2-0.3-0.3l0,0.1l0.1,0.1
	c0,0-0.3-0.1-0.3,0c-0.1,0.2-0.2,0.4-0.3,0.5c0.1,0,0.1,0,0.2,0c0,0,0,0.1,0,0.1c-0.1-0.1-0.1,0-0.1,0c-0.3,0-0.2,0.3-0.4,0.3
	L132,162c-0.1,0.1-0.5,0.4-1,0.6c-0.5,0.2-1,0.2-1.2,0.1c0.1,0,0.2,0,0.2-0.1c-0.1,0-0.1,0-0.2,0c-0.1,0.1-0.2,0-0.3,0.1l0-0.1
	l-0.1,0c-0.4-0.2-0.1,0-0.4-0.2c-0.2-0.1-0.2-0.2-0.4-0.2c0,0,0.1,0,0,0c0,0-0.1-0.1-0.1-0.1c0,0-0.2-0.1-0.1-0.1c0,0-0.2-0.1-0.1,0
	c0,0-0.1-0.1-0.1-0.1l0.1,0c-0.1-0.1-0.2-0.2-0.2-0.3l0.1,0c-0.1-0.1-0.1-0.1-0.2-0.2l0,0.1c-0.1-0.1-0.1-0.2-0.2-0.4l0,0
	c0-0.1-0.1-0.4-0.1-0.6c0-0.3,0-0.5,0.1-0.6l0,0.1c0,0,0-0.1,0.1-0.1c0,0-0.2,0.1-0.2,0.1c0-0.1,0.1-0.5,0.3-0.9l-0.7-0.5
	c0,0,0,0.1,0,0.1c-0.1-0.1,0-0.1,0-0.2l0.1,0.1c0.1,0-0.1-0.1,0-0.1c-0.1-0.1-0.2,0-0.2,0c0-0.1,0-0.2,0.1-0.1
	C127.5,158.5,127.3,158.5,127.3,158.4z"/>
<path class="st1" d="M137.9,143.6L137.9,143.6l0.1-0.1c0.1-0.1,0.2-0.1,0.2-0.1l-0.2,0.1c0.1-0.1,0-0.1,0-0.1c0.1,0,0.1-0.1,0.2-0.1
	c0,0,0,0,0,0.1c0.1,0,0.2,0,0.3-0.1c0.2-0.1,0-0.1,0.2-0.2c0.9-0.4,2-0.5,2.9-0.1c0,0,0,0,0,0c0.3,0.1,0.5,0.2,0.7,0.4
	c0.1,0,0.1,0,0.1,0c0,0,0.3,0.2,0.5,0.5c0.2,0.3,0.4,0.6,0.4,0.6l-0.1,0.1c0.1,0.2,0.1,0,0.2,0.3c-0.1,0.2,0.2,0.4,0.1,0.6
	c0,0,0,0.1,0.1,0.1c-0.1,0.1,0,0.2,0,0.2c0,0,0,0-0.1,0c0,0.1,0,0.1,0,0.2c0,0.1,0.1,0.1,0.1,0c0.1,0.2,0.1,1-0.2,1.8
	c-0.2,0.8-0.7,1.5-1,1.7c0-0.1,0.2-0.2,0.1-0.3c-0.1,0.1-0.1,0.2-0.2,0.2c0.1,0.1-0.2,0.3-0.2,0.5l-0.1,0l0,0.1
	c-0.6,0.4-0.3-0.1-0.8,0.2c-0.3,0.2-0.5,0.1-0.7,0.2c0,0,0.1-0.1,0-0.1c0,0.1-0.1,0.1-0.2,0.1c-0.1,0-0.3,0.4-0.2,0.2
	c0,0.1-0.3,0.1-0.1,0.1c-0.1,0-0.2,0.1-0.2,0l0.1,0c-0.3,0-0.4,0.1-0.6,0.1l0.1-0.1c-0.2,0-0.3,0-0.4,0.1l0.2,0
	c-0.3,0-0.4,0-0.6-0.1l0.1,0c-0.1,0-0.5-0.2-0.9-0.4c-0.4-0.2-0.6-0.5-0.7-0.6l0.1,0c0-0.1-0.1-0.1-0.1-0.2c0,0-0.1,0.3-0.1,0.3
	c-0.2-0.1-0.7-0.6-0.9-1.2c-0.3-0.6-0.3-1.3-0.3-1.5c0-0.2-0.1,0-0.1,0c0-0.2,0.1-0.1,0.1-0.3c0,0-0.1,0-0.1,0c0-0.1,0-0.2,0-0.2
	c0,0.1,0.1,0.1,0.2,0.1c0-0.1,0-0.2,0-0.2l-0.1,0c0-0.1,0.2-0.4,0.3-0.6c0.1-0.4,0.2-0.5,0.4-0.8c0,0-0.1,0.1-0.2,0.1
	c0,0,0.1-0.1,0.1-0.2c0,0.1,0.1-0.1,0.1,0c0.3-0.2,0.7-0.3,0.9-0.4c0,0,0.1,0,0.5,0.3c0.1-0.1,0.2-0.2,0.2-0.2
	C137.9,144.4,137.7,144,137.9,143.6z"/>
<path class="st1" d="M139.1,150.2C139,150.2,139,150.2,139.1,150.2c-0.1,0,0,0.1,0,0.1c-0.1,0.2-0.1,0.3-0.2,0.5c0,0,0,0,0,0
	c-0.1,0-0.1,0.1-0.1,0.1c0,0,0,0,0.1,0.1c0,0-0.2,0.2-0.2,0.2l-0.1-0.1c0,0,0.1,0.1,0,0.1c-0.1-0.1,0,0.1-0.1,0c0,0,0,0,0,0.1
	c-0.1,0,0,0,0,0c0,0,0,0,0,0l0,0c0,0,0,0.1,0.1,0c0,0.1-0.2,0.5-0.3,0.5c0,0,0,0-0.1-0.1c-0.1,0,0,0-0.1,0c0.1,0.1,0,0.1,0.1,0.2
	l-0.1,0l0,0c-0.1,0-0.1,0-0.1,0.1c0,0,0.2,0.1,0.3,0.2c0,0,0,0,0,0c0.1,0-0.1,0,0,0c0,0,0,0-0.1,0c0,0,0,0.1,0.1,0.1c0,0,0,0,0,0
	l0,0c0,0,0,0.1,0,0.1c0,0,0,0,0,0c0,0,0,0,0,0l0,0c0,0,0,0,0,0c-1-0.2-2-0.6-2.7-1.3c0.1-0.2,0.3-0.3,0.4-0.4c0-0.1,0-0.1,0-0.1
	c0,0,0.1,0.1,0.1,0c0.1-0.1,0,0,0.1,0c0.1-0.1,0.3-0.5,0.3-0.6c0.1,0,0.1-0.1,0.2-0.1l0,0c0.1,0,0.2-0.3,0.2-0.4l0,0
	c0.1,0,0-0.1,0-0.1c0.1,0.1,0.2,0.1,0.2,0l0,0c0,0,0.1,0,0.2,0l0,0c0.1,0,0.1-0.1,0.1-0.1c0-0.1,0-0.2,0.1-0.2l-0.1-0.1l0,0
	c0,0,1.6,1,1.9,1.3L139.1,150.2L139.1,150.2C139,150.2,139,150.1,139.1,150.2L139.1,150.2C139,150.2,139.1,150.1,139.1,150.2
	C139.1,150.2,139.1,150.2,139.1,150.2C139.1,150.2,139.1,150.2,139.1,150.2z"/>
<path class="st1" d="M123.4,173.9c0.1,0.2-1.1,1.3-1.1,1.5c0,0.1-0.2,0.1-0.2,0.1c0.1,0.1,0.1,0,0.1,0.1c0,0-0.1,0-0.1,0
	c0,0,0,0.1,0,0.1c0-0.1,0.2-0.1,0.2-0.1l-1.7,1l-0.1,0c0,0,0.2,0,0.2,0.1c0,0.2-0.3,0.8-0.2,1c0,0-0.1,0-0.1,0c0,0,0,0.1,0,0.1
	c0.1-0.1,0.1,0.1,0.1,0c0.3,0.1,3-0.7,3.2-0.6l3.5-0.9c0,0,0,0.1,0,0.1c0,0,0-0.1,0-0.1l-0.1,0c-0.1-0.1,0.1,0,0-0.1
	c0.1,0,0.1,0,0.2,0.1c0-0.1,0-0.2-0.1-0.1c0-0.1,0.1,0,0.1-0.1c0,0-0.2-0.1-0.1-0.2l0,0c0-0.2-0.2-0.2-0.2-0.3l0,0
	c0-0.1-0.1-0.1,0-0.2c0,0-0.1,0.1-0.1,0c0-0.1-0.1-0.2,0-0.3l-0.1,0c-0.1-0.3-0.7-1.6-0.8-1.9l0,0"/>
<path class="st1" d="M114.7,166l0.1,0l0,0.1c0,0-0.3-0.2-0.3-0.2c-0.1,0.2-1.3-0.2-1.4,0c-0.1,0.1-0.9-0.1-0.9-0.1
	c0,0.1-0.6-0.1-0.6,0c0,0-0.1,0-0.1-0.1c0,0-0.5,0-0.4,0.1c-0.4,0-0.1-0.1-0.4-0.1l-0.1,0.1l-0.1,0c0,0,0.2,0.2,0.1,0.3
	c-0.1,0.2-0.1,0.5-0.2,0.6c0,0,0.9,0.6,0.9,0.6c0,0,0,0.1-0.1,0.1c0.1,0,0,0.1,0.1,0.1c0.1,0.2,0.2-0.1,0.3,0.1l4.5,2.3
	c0,0,0,0.1-0.1,0.1c0.1,0,0.1-0.1,0.1-0.1l-0.1-0.1c0-0.1,0.1,0,0.1-0.1c0.1,0,0.1,0.1,0.1,0.2c0-0.1,0.1-0.1,0-0.2
	c0.1,0,0.1,0.1,0.2,0c0-0.1-0.1-0.2,0-0.2l0,0c0.2-0.1,0-0.3,0.1-0.4l0,0c0.1,0,0-0.2,0.1-0.2c0,0-0.1,0-0.1,0
	c0.1-0.1,0.1-0.2,0.2-0.2l-0.1-0.1c0.2-0.3,0.4-1.1,0.5-1.5l0,0"/>
<path class="st1" d="M123.8,162c0,0.1,0.6-0.2,0.6-0.3l0.1,0.1c0.1-0.1-0.1-0.2,0.1-0.2c0.2,0.2,0.2-0.1,0.3,0c0,0,0-0.1,0-0.1
	c0.1,0.1,0.1,0,0.1,0c0,0,0,0,0,0.1l0.1,0c0-0.1,0-0.1-0.1-0.1c0.2-0.2,1-0.8,1.2-0.8c0,0.1-0.1,0.1,0,0.2c0.1,0,0.1-0.1,0.1,0
	c-0.1-0.2,0.1-0.1,0-0.3l0.1,0.1l0-0.1c0.3,0,0.1,0,0.3-0.1c0.1-0.1,0.3,0.1,0.3,0c0,0,0,0.1,0.1,0.1c-0.1-0.1,0.1,0,0.1-0.1
	c0,0,0-0.3,0-0.1c0-0.1,0.1-0.2,0-0.2c0,0,0-0.1,0.1,0l0,0.1c0.1,0,0.1-0.2,0.2-0.1l0,0.1c0.1,0,0.1,0,0.1-0.2l-0.1,0
	c0.1-0.1,0.2-0.1,0.3-0.1l0,0c0.2,0.1,0.8-0.1,1-0.1l0,0.1l0.1,0c0,0-0.2-0.3-0.2-0.3c0.2-0.1,1.2-0.6,1.3-0.7
	c0-0.1-0.1-0.2-0.1-0.2c0.1,0,0.1,0.1,0.2,0c0,0-0.1-0.1-0.1-0.1c0,0,0-0.1,0.1,0c0,0.1,0.1,0.2,0.1,0.3l0.1-0.1l0-0.1
	c0,0,0.2,0.2,0.2,0.1c0.1-0.1,0.3-0.2,0.5-0.3c0,0-0.1-0.1-0.1-0.1c0,0,0.1,0,0.1-0.1c0,0.1,0.1,0,0.1,0.1c0.2,0.1,0.3-0.1,0.4-0.1
	l1.9,3.5c0,0,0.1,0,0.1-0.1c0,0,0,0.1-0.1,0.1L133,162c-0.1,0,0,0.1-0.1,0.1c0,0.1,0.1,0.1,0.2,0.1c0,0-0.1,0.1-0.1,0
	c0,0.1,0.1,0.1,0,0.2c-0.1,0-0.2-0.1-0.2,0l0,0c-0.1,0.2-0.3,0-0.3,0.1l0,0c0,0.1-0.1,0-0.2,0.1c0,0,0-0.1-0.1-0.1
	c0,0.1-0.1,0.1-0.1,0.2l-0.1-0.1c-0.3,0.2-1.1,0.5-1.4,0.6l0,0c-0.4,0.2-1.3,0.6-1.8,0.7c0,0.1-0.1,0.2-0.2,0.2c0-0.1,0-0.1-0.1-0.1
	c-0.2,0.1,0-0.1-0.3,0c-0.3,0.1-1.2,0.7-1.3,0.9c-0.2-0.1-0.3,0.1-0.4,0.1l0,0c-0.2,0-0.8,0.5-0.9,0.6l0,0c-0.2,0-0.1,0.1-0.2,0.2
	c-0.1-0.1-0.2-0.2-0.3-0.2l0,0c-0.1,0-0.3,0-0.4,0l0,0.1c-0.1,0-0.3,0.1-0.3,0.1c-0.1,0.1-0.3,0.4-0.5,0.4l0,0.3l0,0
	c0,0-0.1-0.1-0.2-0.2c-0.1,0-0.1,0-0.1,0l0,0c-0.1,0,0,0.1-0.1,0.1c-0.1,0-0.2,0-0.2,0c0,0-0.1,0-0.1,0c0,0-0.1,0-0.1,0c0,0,0,0,0,0
	c0,0-0.1,0-0.1,0c0,0,0,0,0,0c-0.1,0-0.5-0.1-0.8-0.3c-0.3-0.2-0.5-0.5-0.6-0.6c0,0,0.1,0.1,0.1,0.1c0-0.1-0.1-0.1-0.1-0.1
	c-0.1,0-0.1-0.1-0.2-0.1l0,0l0,0c-0.1-0.3,0-0.1-0.1-0.3c0-0.1,0-0.2,0-0.3c0,0,0,0,0,0c0,0,0-0.1,0-0.1c0,0,0-0.1,0-0.1
	c0,0,0-0.1,0-0.1c0,0,0-0.1,0-0.1l0,0c0-0.1,0-0.2,0-0.2l0,0c0-0.1,0-0.1,0-0.2l0,0.1c0-0.1,0-0.2,0.1-0.3l0,0
	c0-0.1,0.1-0.2,0.2-0.3c0.1-0.1,0.3-0.2,0.3-0.2l0,0.1c0,0,0.1,0,0.1,0c0,0-0.1-0.1-0.1,0c0,0,0,0,0.1-0.1l0,0l0.1,0
	c0-0.1,0.1,0,0.1-0.1l-0.1,0.1c0-0.1,0-0.1-0.1-0.1c0,0,0,0,0-0.1c0,0,0,0,0,0.1c0,0,0.1,0.1,0.2,0c0.1,0-0.1-0.1,0-0.2
	c0.3-0.3,0.6-0.6,1-0.8c0,0,0,0,0,0c0.1,0,0.2-0.1,0.3-0.1C123.8,162.1,123.8,162.1,123.8,162z"/>
<path class="st1" d="M120.4,157.3c0.1,0,0.2,0,0.3,0c0,0,0.1,0,0.1,0v0c0,0,0,0,0,0c0,0,0,0,0.1,0c0-0.1-0.1-0.1-0.1-0.1
	c0.1,0,0.1-0.1,0.1,0c0.1,0,0-0.1,0.1-0.2c0,0,0.1,0.2,0.2,0.1l0,0c0.1-0.1,0.2,0.2,0.3,0.1l0,0c0-0.1,0.1,0,0.2,0c0,0,0,0.1,0,0.1
	c0.1-0.1,0.1,0,0.2-0.1l0.1,0.1c0.3,0,1.1,0.2,1.5,0.2l0,0c0.5,0.1,1.4,0.1,1.9,0.3c0.1-0.1,0.2-0.1,0.3-0.1c0,0,0,0.1,0,0.1
	c0.2,0,0,0.1,0.2,0.1c0.3,0.1,1.3,0,1.6,0c0.1,0.2,0.3,0.1,0.4,0.2l0,0c0.1,0.1,0.9,0,1.1,0l0,0c0.1,0.1,0.1-0.1,0.2-0.1
	c0,0.2,0.1,0.3,0.1,0.3l0,0c0.1,0,0.2,0.2,0.3,0.2l0-0.1c0.1,0.1,0.3,0.1,0.3,0.1c0.2,0,0.4-0.2,0.6-0.1l0.2-0.3l0,0
	c0,0,0,3.6-0.4,4.3l0,0.1l-0.1,0c-0.1,0-0.1-0.1-0.1,0l0.1,0c-0.1,0,0,0.1,0,0.1c0,0-0.1,0-0.1,0.1c0,0,0,0,0-0.1
	c0,0-0.1-0.1-0.1-0.1c-0.1,0,0,0.2-0.1,0.2c-0.4,0.1-0.8,0.1-1.2,0.1c0,0,0,0,0,0.1c-0.1,0-0.2,0-0.3-0.1c0,0-0.1,0.1-0.1,0.1
	c0-0.1-0.6-0.1-0.6-0.1l0-0.2c-0.1,0-0.1,0.2-0.2,0.1c0-0.2-0.2,0-0.2-0.1c0,0-0.1,0-0.1,0.1c0-0.1-0.1,0-0.1-0.1c0,0,0,0,0-0.1
	l-0.1,0c0,0,0,0.1,0,0.1c-0.2,0-1.2-0.2-1.4-0.3c0-0.1,0.1,0,0.1-0.2c-0.1-0.1-0.1,0-0.1-0.1c0,0.2-0.1,0.1-0.2,0.3l0-0.1l0,0.1
	c-0.3-0.2-0.1-0.1-0.3-0.1c-0.1,0-0.2-0.2-0.3-0.2c0,0,0-0.1,0-0.1c0,0.1-0.1-0.1-0.1,0c0,0-0.1,0-0.1-0.2c0,0.1-0.1,0.1-0.1,0.2
	c0,0-0.1,0-0.1,0l0,0c-0.1,0-0.2,0.1-0.2-0.1l0-0.1c-0.1,0-0.1,0-0.2,0.1l0.1,0.1c-0.1,0-0.2,0-0.3-0.1l0,0
	c-0.1-0.2-0.7-0.3-0.8-0.5l0.1-0.1l-0.1-0.1c0,0,0,0.4,0,0.4c-0.2,0-1.2-0.2-1.4-0.1c-0.1,0.1,0,0.2,0,0.2c-0.1-0.1,0-0.1-0.1-0.1
	c0,0,0,0.1,0,0.1c0,0-0.1,0-0.1,0c0,0,0-0.2,0.1-0.3l-0.1,0l0,0.1c0,0,0-0.3-0.1-0.2c-0.2,0-0.3,0-0.5,0c0,0.1,0,0.1,0.1,0.1
	c0,0-0.1,0-0.1,0c0-0.1-0.1-0.1,0-0.1c-0.1-0.2-0.3,0-0.4-0.2l0-0.2c0,0-0.1,0-0.1,0c0,0,0,0-0.1,0c0,0-0.2-0.1-0.3-0.2
	c-0.1-0.1-0.3-0.2-0.3-0.2l0,0c-0.1-0.1-0.1,0-0.1-0.1c0-0.1-0.1-0.2-0.1-0.2c0,0,0-0.1-0.1,0c0,0,0-0.1,0-0.1c0,0,0,0,0,0
	c0,0,0-0.1,0-0.1c0,0,0,0,0,0c-0.1-0.1-0.2-0.4-0.3-0.8c0-0.4,0-0.7,0.1-0.8c0,0,0,0.1,0,0.2c0-0.1,0-0.1,0.1-0.1c0-0.1,0-0.1,0-0.2
	l0,0l0,0c0.2-0.2,0-0.1,0.2-0.3c0.1-0.1,0.2-0.1,0.2-0.2c0,0,0,0,0,0c0,0,0.1-0.1,0.1-0.1c0,0,0.1-0.1,0.1,0c0,0,0.1-0.1,0-0.1
	c0,0,0.1,0,0.1,0l0,0c0.1-0.1,0.2-0.1,0.2-0.1l0,0c0.1,0,0.1,0,0.1-0.1l-0.1,0C120.3,157.3,120.3,157.3,120.4,157.3L120.4,157.3z"/>
<path class="st1" d="M122.7,171.4l0.2,0c0-0.1-0.2,0-0.2-0.1c0.2-0.1-0.1-0.2,0.1-0.2c0,0,0,0-0.1,0c0.1,0,0-0.1,0-0.1
	c0,0,0,0,0.1,0l0-0.1c0,0-0.1,0-0.1,0c-0.1-0.2-0.4-1.1-0.4-1.4c0.1,0,0.1,0.1,0.2,0.1c0.1-0.1-0.1-0.1,0-0.1
	c-0.2,0-0.1-0.1-0.3-0.1l0.1,0l-0.1,0c0.1-0.3,0.1-0.1,0-0.3c0-0.1,0.2-0.2,0.1-0.3c0,0,0.1,0,0.1,0c-0.1,0,0.1-0.1-0.1-0.1
	c0,0,0-0.1,0.1-0.1c-0.1,0-0.1-0.1-0.2,0c0,0,0-0.1,0-0.1l0,0c0-0.1-0.3-0.3-0.2-0.4l-0.1,0.3c0-0.1,0.2-0.4,0.1-0.4l0,0.1
	c0-0.1,0-0.2,0-0.3l0,0c0.1-0.1-0.1-0.5,0.1-0.6l0.1,0l0.1-0.1c0,0-0.4,0.1-0.3,0.1c0-0.2-0.1-1.2-0.3-1.4c-0.1-0.1-0.2,0-0.2,0
	c0-0.1,0.1-0.1,0.1-0.1c0,0-0.1,0-0.1,0c0,0,0-0.1,0-0.1c0.1,0,0.2,0,0.3,0l0-0.1l-0.1,0c0,0,0.2-0.1,0.2-0.2
	c-0.1-0.2-0.1-0.3-0.1-0.5c-0.1,0-0.1,0.1-0.1,0.1c0,0,0-0.1,0-0.1c0.1,0,0.1-0.1,0.1-0.1c0.2-0.2,0-0.3,0.1-0.4l3-0.6
	c0,0,0-0.1,0-0.1c0.1,0,0.1,0.1,0.1,0.1l-0.1,0c0,0.1,0.1,0,0.1,0.1c0.1,0,0.1-0.1,0.1-0.2c0,0.1,0.1,0.1,0,0.1c0.1,0,0.1,0,0.2,0
	c0,0-0.1,0.1,0,0.2h0c0.1,0.1-0.1,0,0,0.1l0,0c0.1,0,0,0.1,0.1,0.2c0,0-0.1,0-0.1,0c0.1,0.1,0,0.1,0.1,0.2l-0.1,0.1
	c0.1,0.3,0.2,1.5,0.2,1.8l0,0c0,0.5,0.6,1.4,0.5,1.9c0.1,0,0.1,0.2,0.2,0.2c-0.1,0-0.1,0-0.1,0c0.1,0.2-0.1,0-0.1,0.3
	c0,0.3,0.2,1.1,0.3,1.3c-0.1,0.2,0,0.3-0.1,0.4l0,0c0,0.1,0.3,0.9,0.2,1l0,0c-0.1,0.2,0.1,0.1,0.2,0.2c-0.2,0-0.2,0.2-0.2,0.2l0,0
	c0,0.1,0.4,0.3,0.4,0.4l0.1,0c-0.1,0.1,0,0.3,0,0.3c0.1,0.1-0.1,0.4-0.2,0.7l0.3,0.1l0,0c0,0-2.7,0.8-3.5,0.6l-0.1,0v-0.1
	c-0.1-0.1,0-0.1,0-0.1l0,0.1c0-0.1-0.1,0-0.1,0c0,0,0-0.1-0.1-0.1c0,0,0,0,0.1,0c0,0,0.1-0.1,0.1-0.1c0-0.1-0.2,0-0.2,0
	c-0.2-0.4,0.1-0.9,0-1.3c0,0,0,0-0.1,0c0-0.1,0-0.2,0-0.4c-0.1,0-0.1,0-0.2,0C122.9,172,122.8,171.4,122.7,171.4z"/>
<path class="st1" d="M115.6,163.8l0.1,0.1c0.1-0.1-0.1-0.1-0.1-0.2c0.2,0.1,0.1-0.2,0.2-0.1c0,0,0-0.1-0.1-0.1c0.1,0,0.1,0,0.1,0
	c0,0,0,0,0.1,0.1l0.1,0c0,0-0.1-0.1-0.1-0.1c0.1-0.2,0.5-1.1,0.6-1.3c0.1,0.1,0,0.1,0.1,0.2c0.1,0,0-0.1,0.1-0.1
	c-0.2-0.1,0-0.1-0.2-0.3l0.1,0.1l-0.1-0.1c0.3-0.2,0.1,0,0.2-0.2c0.1-0.1,0.3-0.1,0.3-0.2c0,0,0.1,0.1,0.1,0.1c-0.1-0.1,0.1,0,0-0.1
	c0,0,0.1-0.1,0.2,0c-0.1-0.1,0-0.2-0.1-0.1c0,0,0-0.1,0.1-0.1l0,0.1c0.1-0.1,0-0.4,0.1-0.4l-0.3,0.1c0-0.1,0.4-0.2,0.3-0.3l-0.1,0
	c0.1-0.1,0.1-0.1,0.2-0.2l0,0c0.2,0,0.3-0.4,0.5-0.4l0.1,0.1l0.1,0c0,0-0.4-0.2-0.3-0.1c0.1-0.2,0.7-1,0.7-1.2
	c0-0.1-0.2-0.1-0.2-0.1c0.1-0.1,0.1,0,0.2,0c0,0-0.1,0-0.1,0c0,0,0-0.1,0.1,0c0,0.1,0.2,0.1,0.2,0.2l0-0.1l-0.1,0c0,0,0.3,0.1,0.3,0
	c0-0.2,0.2-0.3,0.2-0.5c-0.1,0-0.1,0-0.1,0c0,0,0,0,0-0.1c0.1,0.1,0.1,0,0.1,0c0.3,0,0.2-0.2,0.3-0.2l2.6,1.6c0,0,0-0.1,0-0.1
	c0,0,0,0.1,0,0.1l-0.1-0.1c-0.1,0,0.1,0.1,0,0.1c0.1,0.1,0.1,0,0.2,0c0,0.1,0,0.1-0.1,0.1c0,0.1,0.1,0.1,0.1,0.1
	c-0.1,0-0.2,0-0.1,0.1l0,0c0,0.2-0.1-0.1-0.1,0.1l0,0c0,0.1-0.1,0.1-0.1,0.2c0,0-0.1-0.1-0.1-0.1c0,0.1-0.1,0.1,0,0.2h-0.1
	c-0.1,0.3-0.9,1.2-1,1.5l0,0c-0.3,0.4-0.5,1.4-0.8,1.7c0.1,0.1,0,0.2,0,0.3c0-0.1-0.1-0.1-0.1-0.1c-0.1,0.2-0.1,0-0.2,0.2
	c-0.2,0.2-0.6,0.9-0.6,1.2c-0.2,0-0.2,0.2-0.3,0.3l0,0c-0.1,0.1-0.4,0.8-0.5,0.9l0,0c-0.2,0.1,0,0.1,0,0.3c-0.1-0.1-0.3-0.1-0.3,0
	l0,0c-0.1,0,0.1,0.4,0,0.5l0.1,0c-0.1,0-0.2,0.2-0.2,0.3c0,0.1-0.4,0.2-0.6,0.4l0.2,0.2l0,0c0,0-2.6-1.3-3-1.8l-0.1,0l0,0
	c0-0.1,0.1-0.1,0-0.1l0,0.1c0-0.1-0.1-0.1-0.1-0.1c0,0,0-0.1,0-0.1c0,0,0,0,0,0c0.1,0,0.1,0,0.1-0.1c0-0.1-0.1-0.1-0.1-0.2
	c0.1-0.4,0.6-0.6,0.8-1c0,0,0,0-0.1,0c0.1-0.1,0.1-0.2,0.2-0.3c0,0-0.1-0.1-0.1-0.1C115.3,164.4,115.6,163.8,115.6,163.8z"/>
<ellipse transform="matrix(0.6019 -0.7986 0.7986 0.6019 -73.6327 165.9572)" class="st10" cx="129.6" cy="156.8" rx="1.8" ry="1.8"/>
<path class="st1" d="M137.5,165.7l-0.2,0.7l0.1,0c0,0-0.3,0.1-0.2,0.1c0.1,0.2-0.7,1.6-0.6,1.7c0,0.1-0.1,0.1-0.1,0.1
	c0.1,0.1,0.3,0.2,0.3,0.3c0,0-0.1,0-0.1,0c0,0,0,0.1,0,0c0,0,0.1-0.1,0.2-0.1l0,0.1l-0.1,0c0,0,0.2,0,0.2,0.1c0,0.2,0.1,0.3,0.2,0.4
	c0,0-0.1,0-0.1,0c0,0,0,0,0,0.1c0.1-0.1,0.1,0,0.1,0c0.2,0,0.1,0.2,0.2,0.3l1.3-0.2c0,0,0,0.1,0,0.1c0,0,0-0.1,0-0.1l0.2,0
	c-0.1-0.1,0.6-0.3,0.6-0.3c0.1,0,0.1,0,0.1,0.1c0,0,0.5-0.4,0.4-0.4c0-0.1,0.1,0,0.1-0.1c0,0-0.1-0.1-0.1-0.1l0,0
	c0-0.1-0.2-0.1-0.1-0.3l0,0c0-0.1-0.1-0.1,0-0.2c0,0-0.1,0.1-0.1,0c0-0.1-0.1-0.1,0-0.2l-0.1,0c-0.1-0.3-0.4-1-0.5-1.2l0-0.9"/>
<path class="st1" d="M136.2,153.4c0.1-0.1-0.1-0.2,0-0.3l0.2-0.1c0,0,0,0,0,0l0,0l0,0c0-0.1,0-0.1,0-0.2l0,0c0,0,0-0.1,0-0.1l0,0.1
	c0-0.1,0-0.1,0.1-0.2l0,0c0,0,0.1-0.2,0.2-0.3c0.1-0.1,0.2-0.2,0.2-0.2l0,0c0,0,0,0,0.1,0c0,0-0.1,0-0.1,0c0.1,0,0.2-0.2,0.5-0.3
	c0.2-0.1,0.5-0.1,0.5-0.1c0.1,0,0,0,0,0c0.1,0,0,0,0.1,0c0,0,0,0,0,0c0,0,0.1,0,0.1,0c0,0,0,0,0,0c0,0,0.1,0,0.1,0l0,0
	c0,0,0,0.1,0.1,0.1c0.1,0,0.2,0.1,0.3,0.1c0,0,0,0,0,0c0,0,0,0,0,0c0,0,0,0,0,0c0,0.1,0.1,0.1,0.2,0.2l0.1,0c0,0,0,0,0-0.1
	c0,0,0.1,0,0.1,0.1l-0.1,0c0,0.1,0.1,0,0.1,0.1c0.1,0,0.1-0.1,0.1-0.1c0,0,0.1,0.1,0,0.1c0,0,0.1,0,0.1,0c0,0-0.1,0.1,0,0.1l0,0
	c0.1,0.1,0,0.1,0,0.2l0,0c0,0,0,0,0,0l0,0l0,0c0.1,0,0,0.1,0.1,0.1c0,0,0,0-0.1,0c0,0,0,0,0,0.1c0,0,0,0.1,0.1,0.1l-0.1,0.1
	c0.1,0.2,0.2,0.6,0.2,0.8l0,0c0.1,0.4,0.4,1.1,0.4,1.5c0.1,0,0.1,0.1,0.1,0.2c0,0-0.1,0-0.1,0c0.1,0.2,0,0,0,0.2
	c0,0.2,0.4,1,0.5,1.2c-0.1,0.1,0.1,0.2,0,0.4l0,0c0,0.1,0.3,0.7,0.3,0.8l0,0c0,0.1,0.1,0.1,0.2,0.1c-0.1,0-0.2,0.1-0.2,0.2l0,0
	c0,0.1-0.1,0.2-0.1,0.3l0.1,0c0,0.1,0,0.2,0,0.3c0.1,0.1,0.2,0.3,0.2,0.4l0.2,0l0,0c0,0-0.1,0-0.3,0.1c0,0,0,0,0,0c0,0,0,0,0,0
	c0,0.1,0,0.2,0,0.3c0,0,0,0,0,0c0,0,0,0.1-0.1,0.2c-0.1,0.1-0.1,0.2-0.1,0.2l0,0c-0.1,0.1,0,0-0.1,0.1c-0.1,0-0.1,0.1-0.2,0.1
	c0,0,0,0,0,0c0,0,0,0-0.1,0c0,0,0,0,0,0c0,0,0,0-0.1,0c0,0,0,0,0,0c-0.1,0.1-0.3,0.2-0.6,0.2c-0.3,0.1-0.5,0-0.6,0c0,0,0.1,0,0.1,0
	c0,0-0.1,0-0.1,0c0,0-0.1,0-0.2,0l0,0l0,0c-0.2-0.1,0,0-0.2-0.1c-0.1-0.1-0.1-0.1-0.2-0.1c0,0,0,0,0,0c0,0,0-0.1-0.1-0.1
	c0,0-0.1-0.1,0-0.1c0,0-0.1-0.1-0.1,0c0,0,0,0,0-0.1l0,0c0-0.1-0.1-0.1-0.1-0.1l0,0c0,0,0,0,0-0.1c0,0,0,0,0,0c0,0,0,0,0,0l0,0
	c0,0,0,0,0-0.1c0,0,0,0,0,0c0,0,0,0,0,0c0,0,0-0.1,0-0.1c0,0,0,0,0,0c-0.2-0.3-0.4-0.6-0.4-0.9c0,0,0,0,0,0c0-0.1,0-0.2,0-0.3
	c0,0-0.1,0-0.1,0c0.1,0-0.1-0.5-0.1-0.5l0.1,0c0-0.1-0.2,0-0.2-0.1c0.2-0.1-0.1-0.1,0-0.2c0,0,0,0-0.1,0c0.1,0,0-0.1,0-0.1
	c0,0,0,0,0.1,0l0-0.1c0,0-0.1,0-0.1,0c-0.1-0.1-0.5-0.9-0.5-1.1c0.1,0,0,0.1,0.2,0.1c0-0.1,0-0.1,0-0.1c-0.2,0-0.1-0.1-0.3-0.1
	l0.1,0l-0.1,0c0-0.2,0-0.1-0.1-0.2c0-0.1,0.1-0.2,0-0.2c0,0,0.1,0,0.1,0c-0.1,0,0-0.1-0.1-0.1c0,0,0-0.1,0.1-0.1
	c-0.1,0-0.1-0.1-0.1,0c0,0,0,0,0-0.1l0,0c0-0.1-0.1-0.1,0-0.2l0.1,0c0-0.1,0-0.1-0.1-0.1l0,0.1c0-0.1,0-0.1,0-0.2l0,0
	c0.1-0.1,0-0.6,0.1-0.8l0.1,0l0.1-0.1c0,0-0.3,0.1-0.2,0.1c0-0.2-0.1-0.4-0.2-0.5c-0.1,0-0.1,0-0.2,0c0-0.1,0.1-0.1,0.1-0.1
	c0,0-0.1,0-0.1,0c0,0,0,0,0-0.1c0,0,0.1,0,0.2,0l0-0.1l-0.1,0c0,0,0.2-0.1,0.1-0.2C136.3,153.7,136.3,153.6,136.2,153.4
	c0,0,0,0.1,0,0.1C136.1,153.5,136.1,153.5,136.2,153.4C136.2,153.5,136.1,153.4,136.2,153.4z"/>
<path class="st1" d="M140.7,160.8l-0.1,0c0,0.1,0.1,0,0.1,0.1c-0.1,0,0,0.1-0.1,0.1c0,0,0,0,0,0.1c-0.1,0,0,0,0,0.1c0,0,0,0,0,0
	l0,0.1c0,0,0.1,0,0.1,0c0,0.2,0,0.9-0.1,1c-0.1,0,0-0.1-0.1-0.1c-0.1,0,0,0.1,0,0.1c0.1,0,0,0.1,0.1,0.2l-0.1,0l0,0
	c-0.1,0.2,0,0-0.1,0.2c0,0.1-0.1,0.1-0.1,0.2c0,0,0,0-0.1,0c0.1,0-0.1,0.1,0,0.1c0,0,0,0.1-0.1,0.1c0,0,0,0.1,0.1,0.1c0,0,0,0,0,0.1
	l0,0c0,0.1,0,0.1-0.1,0.2l0,0c0,0.1,0,0.1,0.1,0.1l0,0c0,0.1,0,0.1-0.1,0.2l0,0c-0.1,0.1-0.2,0.5-0.4,0.5l-0.1-0.1l-0.1,0.1
	c0,0,0.2,0,0.2,0c0,0.1-0.2,0.9-0.2,1c0,0.1,0.1,0,0.1,0c0,0.1-0.1,0-0.1,0.1c0,0,0.1,0,0.1,0c0,0,0,0,0,0c0,0-0.1,0-0.2-0.1l0,0.1
	l0.1,0c0,0-0.2,0-0.1,0.1c0,0.1,0,0.2,0,0.4c0,0,0.1,0,0.1,0c0,0,0,0,0,0.1c-0.1,0-0.1,0-0.1,0c-0.2,0.1,0,0.2-0.1,0.3l-2.2-0.3
	c0,0,0,0.1,0,0.1c0,0,0-0.1,0-0.1l0.1,0c0-0.1,0,0,0-0.1c-0.1,0-0.1,0-0.1,0.1c0,0,0-0.1,0-0.1c0,0-0.1,0-0.1-0.1
	c0,0,0.1-0.1,0.1-0.1l0,0c-0.1-0.1,0.1-0.1,0.1-0.2h0c0,0,0-0.1,0-0.1c0,0,0.1,0,0.1,0c0-0.1,0-0.1,0-0.2l0.1,0c0-0.2,0.2-1,0.3-1.2
	l0,0c0.1-0.3,0.2-1,0.3-1.3c-0.1-0.1,0-0.1,0-0.2c0,0,0.1,0,0.1,0c0-0.2,0,0,0.1-0.2c0.1-0.2,0.1-0.9,0.1-1.1
	c0.1-0.1,0.1-0.2,0.1-0.3l0,0c0-0.1,0.1-0.7,0.1-0.8l0,0c0.1-0.1,0-0.1,0-0.2c0.1,0,0.2,0,0.2-0.1l0,0c0,0,0.1-0.1,0.2-0.2l-0.1,0
	c0.1-0.1,0.1-0.2,0.1-0.2c0-0.1-0.1-0.3,0-0.4l-0.1-0.1l0,0c0,0,1.9,0.2,2.3,0.5l0.1,0l0,0c0,0.1-0.1,0.1,0,0.1l0-0.1
	c0,0.1,0,0,0.1,0c0,0,0,0,0,0.1c0,0,0,0,0,0c0,0-0.1,0-0.1,0.1c0,0,0.1,0,0.1,0.1c0,0.3,0,0.6-0.1,0.9c0,0,0,0,0,0
	c0,0.1,0,0.2-0.1,0.2c0,0,0.1,0,0.1,0.1C140.8,160.4,140.7,160.8,140.7,160.8z"/>
<line class="st7" x1="85.8" y1="228.2" x2="74.1" y2="166.5"/>
<path class="st3" d="M70.3,97c0.7,0.2,1.1,1,0.9,1.7l0,0c-0.2,0.7-1,1.1-1.7,0.9l-2.6-0.8c-0.7-0.2-1.1-1-0.9-1.7l0,0
	c0.2-0.7,1-1.1,1.7-0.9L70.3,97z"/>
<path class="st3" d="M66.1,96.9c-1.5-0.6-3.3-0.6-4.7-1.5"/>
<path class="st3" d="M110,127.9c-0.6,0.5-1.5,0.4-1.9-0.2l0,0c-0.5-0.6-0.4-1.5,0.2-1.9l2.1-1.7c0.6-0.5,1.5-0.4,1.9,0.2l0,0
	c0.5,0.6,0.4,1.5-0.2,1.9L110,127.9z"/>
<path class="st3" d="M112.4,124.4c1.3-0.9,2.3-2.4,3.9-3.1"/>
<line class="st7" x1="109" y1="126.6" x2="72.2" y2="99.8"/>
<line class="st7" x1="74.4" y1="163.3" x2="108" y2="129.5"/>
<line class="st11" x1="69.7" y1="97.9" x2="126.9" y2="72.1"/>
<path class="st3" d="M130.6,71.3c0,0.8-0.6,1.4-1.3,1.5l0,0c-0.8,0-1.4-0.5-1.5-1.3l-0.1-2.7c0-0.8,0.5-1.4,1.3-1.5l0,0
	c0.8,0,1.4,0.5,1.5,1.3L130.6,71.3z"/>
<path class="st3" d="M129.2,67.3c0-1.6-0.6-3.3-0.3-4.9"/>
<g>
	<g>
		<line class="st0" x1="151.3" y1="21.2" x2="152.8" y2="21.2"/>
		<line class="st12" x1="154.9" y1="21.2" x2="190.7" y2="21.2"/>
		<line class="st0" x1="191.8" y1="21.2" x2="193.3" y2="21.2"/>
	</g>
</g>
<g>
	<g>
		<line class="st0" x1="151.3" y1="129" x2="152.8" y2="129"/>
		<line class="st12" x1="154.9" y1="129" x2="190.7" y2="129"/>
		<line class="st0" x1="191.8" y1="129" x2="193.3" y2="129"/>
	</g>
</g>
<g>
	<g>
		<path class="st13" d="M171.8,23.7c0,34.3-1.5,68.6-0.6,103c0,0.9,2,0.5,1.9-0.2c-0.9-34.3,0.6-68.6,0.6-103
			C173.8,22.6,171.8,23,171.8,23.7L171.8,23.7z"/>
	</g>
</g>
<g>
	<g>
		<path class="st13" d="M170.6,28.2c0.2-2.1,2.1-4.3,3.4-5.9c-0.6,0.1-1.2,0.2-1.8,0.4c0.9,1.1,1.2,2.4,1.7,3.7
			c0.4,1.1,0.9,2.1,1,3.3c0.1,0.6,2,0.2,1.9-0.5c-0.2-1.3-0.8-2.5-1.2-3.7c-0.4-1.3-0.8-2.5-1.7-3.5c-0.4-0.5-1.5,0-1.8,0.4
			c-1.3,1.6-3.3,4-3.5,6.1C168.6,29.2,170.5,28.8,170.6,28.2L170.6,28.2z"/>
	</g>
</g>
<g>
	<g>
		<path class="st13" d="M167.6,122.9c1.3,1.8,2.2,3.8,3.4,5.6c0.4,0.5,1.3,0.2,1.7-0.2c1.5-1.6,2.7-3.3,3.6-5.3
			c0.4-0.9-1.5-0.8-1.8-0.1c-0.8,1.9-1.9,3.5-3.3,5c0.6-0.1,1.1-0.1,1.7-0.2c-1.3-1.8-2.2-3.8-3.4-5.6
			C169,121.5,167.1,122.2,167.6,122.9L167.6,122.9z"/>
	</g>
</g>
<line class="st11" x1="129.3" y1="70.9" x2="129.7" y2="154.6"/>
<path class="st14" d="M50.4,276.3c-3.4,2.8-5,2.6-8.8,4.6c-2.1,1.1-6,3.3-6.9,5.6c-1,2.5-1.4,3.6-1.4,6.3c0,2.5,0,4.1-2.4,5.2
	c-2,1-3.2,1-5.4,1.1c-2.6,0.1-9.9-0.4-9.4-1.5c0.4-0.8,4.5-1.2,9.2-1.1c1.9,0.1,16.5,3.4,2.5,4.6c-12.7,1.1-19.2-4.4-27.4-1.8"/>
<path class="st1" d="M38.3,273.7L38.3,273.7c0.1,0.1,0,0,0,0.1c0.1,0,0,0.1,0.1,0.2c0,0,0,0-0.1,0c0.1,0,0,0,0,0.1c0,0,0,0,0,0
	l0,0.1c0,0-0.1,0-0.1,0c0,0.2,0,0.9,0,1.1c0.1,0,0-0.1,0.1-0.1c0.1,0,0,0.1,0,0.1c-0.1,0,0,0.1-0.2,0.2h0.1l0,0c0.1,0.2,0,0,0,0.2
	c0,0.1,0.1,0.1,0.1,0.2c0,0,0,0,0.1,0c-0.1,0,0.1,0.1,0,0.1c0,0,0,0.1,0.1,0.1c0,0-0.1,0.1-0.1,0.1c0,0,0,0.1,0,0.1l0,0
	c0,0.1,0,0.1,0,0.2l0,0c0,0.1,0,0.1-0.1,0.1l0,0c0,0.1,0,0.1,0.1,0.2v0c0.1,0.1,0.2,0.5,0.3,0.6l0.1,0l0.1,0.1c0,0-0.2,0-0.2,0
	c0,0.1,0.2,0.9,0.1,1c0,0.1-0.1,0-0.1,0c0,0.1,0.1,0,0.1,0.1c0,0-0.1,0-0.1,0c0,0,0,0.1,0,0.1c0,0,0.1,0,0.2-0.1l0,0.1l-0.1,0
	c0,0,0.2,0,0.1,0.1c0,0.1,0,0.2,0,0.4c0,0-0.1,0-0.1,0c0,0,0,0,0,0.1c0.1,0,0,0,0.1,0c0.1,0.1,0,0.2,0.1,0.3l2.3-0.2
	c0,0,0,0.1,0,0.1c0,0,0-0.1,0-0.1l-0.1,0c0-0.1,0,0,0-0.1c0.1,0,0.1,0,0.1,0.1c0,0,0-0.1,0-0.1c0,0,0.1,0,0.1-0.1
	c0,0-0.1-0.1-0.1-0.1l0,0c0.1-0.1-0.1-0.1-0.1-0.2l0,0c0,0,0-0.1,0-0.1c0,0-0.1,0-0.1,0c0-0.1,0-0.1,0-0.2l-0.1,0
	c0-0.2-0.2-1.1-0.2-1.3l0,0c-0.1-0.3-0.1-1-0.2-1.3c0.1-0.1,0-0.1,0-0.2c0,0-0.1,0-0.1,0c0-0.2,0,0-0.1-0.2
	c-0.1-0.2-0.1-0.9-0.1-1.1c-0.1-0.1,0-0.2-0.1-0.3l0,0c0-0.1,0-0.7-0.1-0.8l0,0c-0.1-0.1,0-0.1,0.1-0.2c-0.1,0-0.2-0.1-0.2-0.1l0,0
	c0,0-0.1-0.1-0.1-0.2l0.1,0c-0.1-0.1-0.1-0.2-0.1-0.2c0-0.1,0.1-0.3,0-0.4l0.1-0.1l0,0c0,0-1.9,0.1-2.3,0.4l-0.1,0l0,0
	c0,0,0,0.1,0,0.1l0-0.1c0,0.1,0,0-0.1,0c0,0,0,0,0,0.1c0,0,0,0,0,0c0,0,0.1,0,0.1,0.1c0,0.1-0.1,0-0.1,0.1c0,0.3,0,0.6,0,0.9
	c0,0,0,0,0,0c0,0.1,0,0.2,0.1,0.2c0,0-0.1,0-0.1,0C38.3,273.3,38.3,273.7,38.3,273.7z"/>
<path class="st1" d="M41.6,278.4l0.3,0.6l-0.1,0.1c0,0,0.3,0,0.3,0c-0.1,0.2,0.8,1.5,0.8,1.7c0,0.1,0.1,0,0.1,0.1
	c-0.1,0.1-0.2,0.2-0.3,0.3c0,0,0.1,0,0.1,0c0,0,0,0.1,0,0.1c0,0-0.1-0.1-0.2-0.1l0,0.1l0.1,0c0,0-0.2,0-0.2,0.1
	c0,0.2-0.1,0.3-0.1,0.5c0,0,0.1,0,0.1,0c0,0,0,0,0,0.1c-0.1-0.1-0.1,0.1-0.1,0c-0.2,0.1-0.1,0.2-0.2,0.3l-1.3-0.1c0,0,0,0.1,0,0.1
	c0,0,0-0.1,0-0.1l-0.2,0c0.1-0.1-0.6-0.2-0.6-0.3c-0.1,0-0.1,0-0.1,0.1c0,0-0.5-0.4-0.4-0.4c0-0.1-0.1,0-0.1-0.1
	c0,0,0.1-0.1,0.1-0.1l0,0c0-0.1,0.2-0.2,0.1-0.3l0,0c0-0.1,0-0.1,0-0.2c0,0,0.1,0.1,0.1,0c0-0.1,0-0.1,0-0.2l0.1,0
	c0.1-0.3,0.3-1,0.4-1.3l-0.1-0.9"/>
<circle class="st10" cx="51.8" cy="274.8" r="1.8"/>
<g>
	<g>
		<g>
			<g>
				<g>
					<path class="st15" d="M197.3,222.1l-16.7-30.4l0,0l0-0.1c-1.2-2.1-3.5-3.5-5.9-3.5c-2.5,0-4.8,1.4-6,3.5l0,0l0,0l-16.9,30.6
						c-1.2,2.1-1.1,4.6,0.1,6.6c1.2,2.1,3.6,3.4,6.1,3.3h-0.1h33.7h-0.1c2.5,0.1,4.8-1.2,6-3.4C198.5,226.7,198.5,224.2,197.3,222.1
						z"/>
				</g>
				<path class="st16" d="M193.9,223.9c0.5,0.9,0.6,2,0,2.9c-0.5,0.9-1.5,1.5-2.6,1.5h-33.7c-1,0-2-0.4-2.6-1.4
					c-0.5-0.9-0.5-2,0-2.9l16.9-30.6c0.5-0.9,1.4-1.5,2.5-1.5c1.1,0,2,0.6,2.5,1.5L193.9,223.9z"/>
			</g>
		</g>
	</g>
	<path class="st2" d="M172.4,223c0.1-0.5,0.2-0.9,0.4-1.3c0.2-0.3,0.5-0.6,0.8-0.8c0.3-0.2,0.6-0.3,1-0.3c0.3,0,0.7,0.1,1,0.2
		c0.3,0.2,0.6,0.4,0.8,0.8c0.2,0.3,0.3,0.8,0.3,1.3c0,0.8-0.2,1.3-0.6,1.8c-0.4,0.4-0.9,0.6-1.4,0.6c-0.5,0-1-0.2-1.5-0.5
		C172.7,224.4,172.5,223.8,172.4,223z M172.7,205.5c0.2-0.5,0.4-0.9,0.7-1.2s0.6-0.4,1-0.5c0.3,0,0.7,0.1,1,0.3s0.6,0.6,0.8,1.2
		c0,1.1,0.1,2.1,0.1,3.1c0,1,0,1.9,0.1,2.8c0,0.9,0,1.8,0,2.7c0,0.9,0,1.8-0.1,2.7c0,0.7-0.2,1.1-0.6,1.5c-0.4,0.3-0.8,0.5-1.2,0.5
		c-0.4,0-0.8-0.2-1.2-0.5c-0.4-0.3-0.5-0.8-0.5-1.5v-10.9L172.7,205.5z"/>
</g>
<g>
	<g>
		<path class="st1" d="M102,204.3h11v2.9h-7.6v3.6h6.6v2.7h-6.6v6.5H102V204.3z"/>
		<path class="st1" d="M128.8,218.8c-1.7,0-4.1-1.4-5.5-1.4c-0.8,0-1.2,0.7-1.3,1.3h-1.9c0.1-2,1.1-4.2,3.4-4.2
			c1.7,0,3.8,1.3,5.5,1.3c0.8,0,1.1-0.6,1.3-1.3h1.9C132.1,216.6,131.2,218.8,128.8,218.8z M130.2,213.4c-0.5,0.2-0.9,0.4-1.4,0.4
			c-1.6,0-3.9-1.4-5.4-1.4c-0.8,0-1.2,0.7-1.3,1.3h-1.9c0.2-2.2,1.2-4.1,3.6-4.1c1.8,0,3.5,1.2,5.3,1.2c0.8,0,1.2-0.6,1.3-1.3h1.9
			C132.1,211.2,131.7,212.6,130.2,213.4z"/>
		<path class="st1" d="M147.5,220h-3.1v-10h-3.9v-2.4c2.2,0.1,4.2-0.7,4.5-3.1h2.5V220z"/>
	</g>
</g>
<path class="st17" d="M118.4,153.9c1.1,0.2,2.5,0.5,3.4,0.9"/>
<path class="st17" d="M120.3,148.5c1.2,0.4,2.6,2,3.4,3"/>
<path class="st17" d="M125.5,145.2c0.8,1.4,0.4,3.4,1.1,4.7"/>
<g>
	<g>
		<path class="st2" d="M82.2,80.5h-5.5c0-2.5,2.6-3.1,4-4.5c0.5-0.5,0.7-0.9,0.7-1.6c0-1.1-0.9-1.7-1.9-1.7c-1.4,0-1.9,1.1-1.9,2.3
			h-0.8c0-1.7,0.9-3,2.7-3c1.5,0,2.6,0.8,2.6,2.4c0,1.4-1,2.3-2.1,3c-0.8,0.5-2.3,1.3-2.5,2.4h4.7V80.5z"/>
		<path class="st2" d="M87,74.4h0.7v1h0c0.4-0.8,1-1.2,2-1.2c0.8,0,1.5,0.4,1.8,1.2c0.4-0.8,1.2-1.2,2-1.2c1.4,0,2.1,0.7,2.1,2.2
			v4.2h-0.8v-4.2c0-1-0.4-1.6-1.5-1.6c-1.3,0-1.7,1.1-1.7,2.2v3.5h-0.8v-4.2c0-0.8-0.3-1.5-1.3-1.5c-1.3,0-1.8,1-1.8,2.3v3.5H87
			V74.4z"/>
	</g>
</g>
<g>
	<g>
		<path class="st2" d="M111.4,108.6h-5.5c0-2.5,2.6-3.1,4-4.5c0.5-0.5,0.7-0.9,0.7-1.6c0-1.1-0.9-1.7-1.9-1.7
			c-1.4,0-1.9,1.1-1.9,2.3h-0.8c0-1.7,0.9-3,2.7-3c1.5,0,2.6,0.8,2.6,2.4c0,1.4-1,2.3-2.1,3c-0.8,0.5-2.3,1.3-2.5,2.4h4.7V108.6z"/>
		<path class="st2" d="M116.1,102.4h0.7v1h0c0.4-0.8,1-1.2,2-1.2c0.8,0,1.5,0.4,1.8,1.2c0.4-0.8,1.2-1.2,2-1.2
			c1.4,0,2.1,0.7,2.1,2.2v4.2h-0.8v-4.2c0-1-0.4-1.6-1.5-1.6c-1.3,0-1.7,1.1-1.7,2.2v3.5H120v-4.2c0-0.8-0.3-1.5-1.3-1.5
			c-1.3,0-1.8,1-1.8,2.3v3.5h-0.8V102.4z"/>
	</g>
</g>
<g>
	<g>
		<path class="st18" d="M188.2,140.8h1.6v3.2h3.2v1.6h-3.2v3.2h-1.6v-3.2H185V144h3.2V140.8z"/>
		<path class="st18" d="M197.8,140.8h1.6v3.2h3.2v1.6h-3.2v3.2h-1.6v-3.2h-3.2V144h3.2V140.8z"/>
	</g>
</g>
<g>
	<g>
		<line class="st0" x1="151.3" y1="159.2" x2="152.8" y2="159.2"/>
		<line class="st12" x1="154.9" y1="159.2" x2="190.7" y2="159.2"/>
		<line class="st0" x1="191.8" y1="159.2" x2="193.3" y2="159.2"/>
	</g>
</g>
<g>
	<g>
		<path class="st18" d="M171.8,130.3c0,9.1-0.9,18.2-0.6,27.3c0,1,2,0.8,2-0.1c-0.2-9.1,0.6-18.2,0.6-27.3
			C173.8,129.2,171.8,129.4,171.8,130.3L171.8,130.3z"/>
	</g>
</g>
<g>
	<g>
		<path class="st18" d="M170.6,134.8c0.2-2.1,2.1-4.3,3.4-5.9c-0.6,0.1-1.2,0.3-1.8,0.4c0.9,1.1,1.2,2.4,1.7,3.7
			c0.4,1.1,0.9,2.1,1,3.3c0.1,0.5,2,0.1,1.9-0.5c-0.2-1.3-0.8-2.5-1.2-3.7c-0.4-1.3-0.8-2.4-1.7-3.5c-0.3-0.4-1.5,0.1-1.8,0.4
			c-1.3,1.6-3.3,4-3.5,6.1C168.6,135.8,170.5,135.4,170.6,134.8L170.6,134.8z"/>
	</g>
</g>
<g>
	<g>
		<path class="st18" d="M167.6,153.9c1.3,1.8,2.2,3.8,3.4,5.6c0.4,0.5,1.3,0.2,1.7-0.2c1.5-1.6,2.7-3.3,3.6-5.3
			c0.4-0.9-1.5-0.8-1.8-0.1c-0.8,1.9-1.9,3.5-3.3,5c0.6-0.1,1.1-0.1,1.7-0.2c-1.3-1.8-2.2-3.8-3.4-5.6
			C169,152.4,167.1,153.1,167.6,153.9L167.6,153.9z"/>
	</g>
</g>
<path class="st0" d="M171.4,146.9c-1.9,0.9-3.4,3-1.2,4.5c1.4,1,4.2,0.9,5.7-0.2"/>
<path class="st0" d="M171.5,142.9c-4.6,0.8-3.1,6.7,1.6,6c3.7-0.5,3.8-2.4,0.9-2.6"/>
<path class="st0" d="M171.4,138.9c-2.8,1.3-4.3,5.9,0.8,6.2c5.1,0.4,4.4-1.9,1.7-2.1"/>
<path class="st0" d="M168.4,137.9c0,0,1.4,3,4.2,2.9c3.4-0.1,5.4-1.8,1.3-2.3"/>
</svg>
