<svg enable-background="new 0 0 226.2 378.9" viewBox="0 0 226.2 378.9" xmlns="http://www.w3.org/2000/svg"><path d="m20.6 290.4c12.4.3 24.8-1.2 37.2-1.2h21.1c10.7 0 22.4 1.1 32.4 1.2" fill="none" stroke="#1a171b" stroke-width=".5"/><path d="m51.8 347.4h11v2.9h-7.6v3.6h6.6v2.7h-6.6v6.5h-3.5v-15.7z" fill="#4b4b4d"/><path d="m81.6 356.3h-11.1v-2.3h11.1zm0 4.7h-11.1v-2.4h11.1z" fill="#4b4b4d"/><path d="m109.8 347.3h-6.5v-2.9l6.7-9h2.8v9.3h2v2.6h-2v3.6h-3zm0-7.9-4 5.3h4z" fill="#4b4b4d"/><path d="m105.4 378.6h-3.1v-10h-3.9v-2.4c2.2.1 4.2-.7 4.5-3.1h2.5z" fill="#4b4b4d"/><path d="m115.1 362.8c3.1 0 5.7 1.9 5.7 7.9 0 6.1-2.6 8.1-5.7 8.1s-5.6-1.9-5.6-8.1c0-5.9 2.6-7.9 5.6-7.9zm0 13.5c2.6 0 2.6-3.8 2.6-5.5 0-1.6 0-5.4-2.6-5.4-2.5 0-2.5 3.8-2.5 5.4 0 1.7 0 5.5 2.5 5.5z" fill="#4b4b4d"/><path d="m147.5 356.3h-11.1v-2.3h11.1zm0 4.7h-11.1v-2.4h11.1z" fill="#4b4b4d"/><path d="m160.7 347.4c3.1 0 5.7 1.9 5.7 7.9 0 6.1-2.6 8.1-5.7 8.1s-5.6-1.9-5.6-8.1c0-6 2.5-7.9 5.6-7.9zm0 13.4c2.6 0 2.6-3.8 2.6-5.5 0-1.6 0-5.4-2.6-5.4-2.5 0-2.5 3.8-2.5 5.4 0 1.7 0 5.5 2.5 5.5z" fill="#4b4b4d"/><path d="m168.2 359.7h3.5v3.4c0 2-1.6 3.4-3.4 3.7v-1.6c.9-.2 1.6-1.1 1.6-2.1h-1.6v-3.4z" fill="#4b4b4d"/><path d="m179.8 359.5h-6.5v-2.9l6.7-9h2.8v9.3h2v2.6h-2v3.6h-3zm0-7.9-4 5.3h4z" fill="#4b4b4d"/><path d="m118.9 121.6c.5.5.5 1.4 0 2-.5.5-1.4.5-2 0l-1.9-2c-.5-.5-.5-1.4 0-2 .6-.5 1.4-.5 2 0z" fill="none" stroke="#1a171b" stroke-width=".8"/><path d="m115.2 119.5c-1-1.2-2.6-2.1-3.4-3.5" fill="none" stroke="#1a171b" stroke-width=".8"/><path d="m62 264.3c-.2.1-.2-.1-.3-.1l-.1.2c-.1 0-.1-.1-.2-.1s-.1 0-.1-.1h.1c-.1 0-.1 0-.2 0s-.2 0-.3.1c-.1 0-.2.1-.3.2v.1-.1c-.1 0-.3.2-.4.4s-.2.4-.2.5v.1.1h.1v.1.1.4.1c0 .1.1.1.1.2l-.1.1s0 0 0-.1v.1l.1-.1c.1 0 0 .1 0 .1-.1.1-.1 0-.2 0 0 0 0 .1.1.1 0 .1-.1.1 0 .1h.1c0 .1.1.1.2.1v.1c0 .1.1.1.1.1s0 0 0-.1h.1s.1.1.1.1h.1c.2.2.5.3.7.5.3.2.9.7 1.3.8 0 .1.1.1.1.2 0 0 0-.1.1-.1.1.1 0 0 .2.1s.9.7 1 .8c.2 0 .2.1.3.1s.6.5.7.6c.1 0 0 .1.1.2.1-.1.2-.1.2-.1h.3v.1c.1 0 .2.1.3.1.1.1.2.3.4.3v.2s.1-.1.2-.2h.3s.1 0 .2 0 .2-.1.2-.1h.1c0-.1.1-.1.2-.1s0 0 .1-.1 0 0 0-.1c.1-.1.3-.2.4-.5.1-.2.2-.5.2-.6 0 0 0 .1-.1.1v-.1s0-.1.1-.2c0-.2 0-.1 0-.2s-.1-.1-.1-.2v-.1s-.1-.1-.1-.1v-.1s0 0 0-.1-.1-.1-.1-.1 0 0 0-.1-.1 0-.1-.1c0 0 0 0 0-.1-.2-.3-.4-.5-.7-.7-.1 0-.2-.1-.3-.1v-.1c0 .1-.4-.3-.4-.3l-.1.1c-.1-.1.1-.1 0-.2-.1.1-.1-.1-.2-.1 0 0 0 0 0-.1-.1.1-.1 0-.1 0v.1h-.1s0-.1.1-.1c-.1-.1-.7-.7-.9-.8 0 .1.1.1 0 .2-.1 0 0-.1-.1 0 .1-.1-.1-.1 0-.3l-.1.1v-.1c-.2-.1-.1 0-.2-.1s-.2 0-.2-.1v.1c0-.1-.1 0-.1-.1 0 0-.1-.1-.1 0 0-.1 0-.1 0-.1s0-.1-.1 0v.1c-.1 0-.1-.1-.2-.1v.1s-.1-.1 0-.2h.1c-.1-.1-.1-.1-.2-.1-.2 0-.6-.2-.8-.1v.1h-.1s.2-.2.2-.2c-.1-.1-.4-.2-.4-.4 0-.1.1-.1.1-.1-.1 0-.1.1-.1 0 0 0 0-.1.1-.1 0 0 0 0-.1 0 0 .1-.1.1-.1.2l-.1-.1v-.1s-.2.1-.2 0c-.3.4-.5.3-.6.2h.1s0 0-.1 0z" fill="#4b4b4d"/><path d="m70.6 264 .4-.6h.1s-.1-.2-.1-.2c.2 0 .8-1.5 1-1.6.1-.1 0-.1 0-.1.1 0 .3.1.4.1v-.1h.1v.2h.1v-.1s.1.2.2.1.3-.1.5-.2c0 0-.1-.1-.1-.1h.1c0 .1.1 0 .1.1.2.1.3-.1.4 0l.6 1.2h.1s0 .1-.1.1l.1.1c-.1 0 .2.6.1.6 0 .1.1.1.1.1s0 .6-.1.6v.1s-.1-.1-.2 0-.2-.1-.3 0c0 .1-.1 0-.2.1v-.1c-.1.1-.1 0-.2.1l-.1-.1c-.3.1-1 .3-1.3.3l-.7.6" fill="#4b4b4d"/><path d="m69.1 269.2c-.1-.1 0 0 0 0 0-.2.2-.2.1-.2h.1c0-.1 0 0 0-.1v-.1h.1c.1-.1.7-.6.8-.7-.1 0-.1 0-.1 0 0-.1.1 0 0-.1.1.1.1 0 .2 0l-.1-.1h.1c.1-.2 0-.1.1-.2s0-.2.1-.2h-.1c.1 0 0-.1.1 0 0 0 .1-.1 0-.1h.1s0 0 0-.1.1-.1.1-.1.1-.1.1 0v.1c.1-.1.1-.1.1-.2s.2-.5.2-.6h-.1v-.1s.2.2.1.2c.1-.1.6-.7.7-.8.1 0 .1.1.1.1 0-.1 0-.1 0-.1s-.1-.1-.2-.1h.1s-.1-.1 0-.2.2-.2.3-.3v.1h.1c-.1 0 0-.1 0-.1 0-.2.1-.2.1-.3l-1.6-1.6h.1-.1l.1.1c0 .1 0 0-.1 0v-.1s-.1 0-.1.1c0 0-.1-.1-.1 0v.1c-.1 0 0 .2-.1.2s-.1.1-.1.1.1 0 0 .1c-.1 0-.1.1-.1.1v.1c-.2.1-.7.8-.8 1-.2.3-.7.8-.8 1.1-.1 0-.1.1-.2.1 0 0 .1 0 0 .1s0 0-.1.2-.7.7-.8.8c0 .1-.1.2-.2.3 0 .1-.5.4-.5.5s-.1 0-.2.1c.1.1.1.2.1.2s0 .2-.1.2c0 .1-.1.2-.1.2-.1.1-.3.1-.3.3h-.2s1.4 1.4 1.8 1.5c.1 0 0-.1.1 0s0 0 .1.1h.1v-.1s.1.1.1 0c.2-.2.5-.3.7-.6 0-.1.1-.1.1-.2h.1c-.4-.3-.1-.7 0-.7z" fill="#4b4b4d"/><path d="m187.3 70.5h.8v3.4c.3-.7 1.1-1.2 2-1.2 1.7 0 2.3.9 2.3 2.4v4h-.8v-3.9c0-1.1-.3-1.9-1.6-1.9-1.2 0-1.9.9-1.9 2.1v3.6h-.8z" fill="#1a171b"/><path d="m203 75.1h-6v-.6h6zm0 2.4h-6v-.6h6z" fill="#1a171b"/><path d="m207.3 76.2 3.9-5.6h.7v5.7h1.3v.6h-1.3v2.1h-.7v-2.1h-3.9zm3.9.1v-4.6l-3.2 4.6z" fill="#1a171b"/><path d="m217.7 72.8h.7v1c.4-.8 1-1.2 2-1.2.8 0 1.5.4 1.8 1.2.4-.8 1.2-1.2 2-1.2 1.4 0 2.1.7 2.1 2.2v4.2h-.8v-4.2c0-1-.4-1.6-1.5-1.6-1.3 0-1.7 1.1-1.7 2.2v3.6h-.8v-4.2c0-.8-.3-1.5-1.3-1.5-1.3 0-1.8 1-1.8 2.3v3.4h-.8v-6.2z" fill="#1a171b"/><path d="m1.3 110.6h.8v7.9h4.8v.7h-5.6z" fill="#1a171b"/><path d="m16.8 115.3h-6v-.6h6zm0 2.3h-6v-.6h6z" fill="#1a171b"/><path d="m21.9 112.4c1.3 0 2.1-.1 2.4-1.6h.6v8.4h-.8v-6.2h-2.2z" fill="#1a171b"/><path d="m33.6 115c0 2-.5 4.3-2.9 4.3s-2.9-2.4-2.9-4.3c0-2 .5-4.3 2.9-4.3 2.5 0 2.9 2.3 2.9 4.3zm-5.1 0c0 1.5.3 3.7 2.2 3.7s2.2-2.2 2.2-3.7-.3-3.7-2.2-3.7-2.2 2.3-2.2 3.7z" fill="#1a171b"/><path d="m38.1 113h.7v1c.4-.8 1-1.2 2-1.2.8 0 1.5.4 1.8 1.2.4-.8 1.2-1.2 2-1.2 1.4 0 2.1.7 2.1 2.2v4.2h-.8v-4.2c0-1-.4-1.6-1.5-1.6-1.3 0-1.7 1.1-1.7 2.2v3.5h-.7v-4.1c0-.8-.3-1.5-1.3-1.5-1.3 0-1.8 1-1.8 2.3v3.5h-.8z" fill="#1a171b"/><path d="m143.8 9.3c-.1.8-.7 1.3-1.5 1.3-.8-.1-1.3-.7-1.3-1.5l.2-2.7c.1-.8.7-1.3 1.5-1.3.8.1 1.3.7 1.3 1.5z" fill="none" stroke="#1a171b" stroke-width=".8"/><path d="m142.8 5.1c.2-1.6-.3-3.4.2-4.9" fill="none" stroke="#1a171b" stroke-width=".8"/><path d="m142.6 20.7v.5" fill="none" stroke="#e2e3e4" stroke-linecap="round" stroke-linejoin="round" stroke-width="1.4"/><path d="m142.6 24.2c.1 4.9.4 12.8 0 19.5-.5 9.8-4.4 21.1-6.3 25.5" style="fill:none;stroke:#e2e3e4;stroke-width:1.4;stroke-linecap:round;stroke-linejoin:round;stroke-dasharray:.9852 2.9556"/><path d="m135.7 70.5c-.1.2-.2.3-.3.4" fill="none" stroke="#e2e3e4" stroke-linecap="round" stroke-linejoin="round" stroke-width="1.4"/><g fill="#e2e3e4"><path d="m138.1 8.2-.1-.1c-.1-.1-.2-.1-.2-.2l.2.1c-.1-.1 0-.1.1-.1 0 0-.1-.1-.1-.1v.1c-.1 0-.2-.1-.3-.2s0-.1-.1-.2c-.8-.6-1.8-1-2.8-.8-.3.1-.5.1-.8.2-.1 0-.1 0-.1 0s-.3.2-.6.4-.6.5-.6.5l.1.1c-.2.2-.1 0-.3.2 0 .2-.3.4-.2.5 0 0-.1.1-.1.1.1.1 0 .1-.1.2h.1v.2c0 .1-.1.1-.1 0-.1.2-.3 1-.3 1.8s.4 1.6.5 1.9c0-.1-.1-.2-.1-.3.1.1.1.2.2.3-.1.1.1.3.1.5h.1v.1c.5.5.3 0 .7.4.3.2.5.2.6.4 0 0-.1-.1 0-.1 0 .1.1.1.1.2.1 0 .2.4.1.3 0 .1.2.2.1.2.1 0 .1.1.2.1l-.1-.1c.3.1.4.2.6.2l-.1-.1c.1.1.3.1.3.2h-.2c.3.1.4.1.6.1h-.1c.1 0 .6 0 1-.1s.7-.3.8-.4h-.1c.1 0 .1-.1.1-.1v.3c.2-.1.8-.4 1.2-1 .4-.5.6-1.2.7-1.4s.1 0 .1 0c0-.2 0-.1 0-.3 0 0 .1 0 .1.1 0-.1 0-.2 0-.2 0 .1-.1 0-.2.1 0-.1 0-.1 0-.2h.1c0-.1-.1-.4-.1-.6 0-.4-.1-.5-.2-.9 0 0 .1.1.1.2 0-.1 0-.1 0-.2 0 .1-.1-.2-.1-.1-.2-.2-.6-.5-.8-.6 0 0-.1 0-.5.2-.1-.1-.1-.2-.2-.3.4-.8.7-1.2.7-1.5z"/><path d="m135.3 14.3s.1 0 0 0c0 .3 0 .5.1.6s0 .1.1.1h-.1s.1.2.1.2h.1s-.1.1-.1.1c.1 0 0 .1.1.1h-.1c0 .1.1.5.2.6.1 0 0 0 .1-.1h.1c-.1.1 0 .1-.1.1h.1c.1.1 0 0 .1.1 0 0-.2.1-.3.1s.1 0 0 .1c0 0 0 .1.1 0 0 0 0 .1-.1.1v.1c1 0 2.1 0 2.9-.6-.1-.2-.2-.4-.3-.5v-.1h-.1c0-.1 0 0-.1-.1s-.2-.5-.2-.6c-.1 0-.1-.1-.1-.1-.1 0-.1-.4-.1-.4-.1 0 0-.1 0-.1-.1 0-.2 0-.2 0s-.1-.1-.2-.1h.1c-.1 0-.1-.1-.1-.1 0-.1.1-.2 0-.2l.1-.1s-1.8.6-2.2.8h.1c.1-.1.1-.1 0 0 .1-.1 0-.1 0 0z"/><path d="m146.6 22.3c-.1 0-.2 0-.2-.1 0-.2-.3-.1-.3-.3 0-.1-.1-.1-.1-.2 0 0-.1.1-.1.1 0-.1-.1-.1-.1-.3h-.1c-.2-.3-1.1-1.3-1.4-1.6-.4-.4-1-1.3-1.5-1.7 0-.2 0-.2-.1-.3 0 .1-.1.1-.1.1-.1-.2-.1 0-.3-.2-.3-.2-.9-1.3-1-1.6-.2 0-.2-.3-.4-.3-.1-.1-.5-1-.7-1.1s0-.2 0-.3c-.1.2-.3.1-.4.1s-.3-.1-.4-.2l.1-.1c-.2 0-.6-.2-.7-.3-.1-.2-1.1.8-1.4.7l-.2-.1-1.6 1.3s-1 .9-1.5 1.7l-.1.1h.1c0 .1.1 0 0 .1v-.1c0 .1-.1.1-.1.1v.1s0 0 0-.1c.1 0 .2 0 .2.1s-.1.1-.1.2c.2.5.4.9.7 1.3 0 0 0 0-.1 0 .1.1.2.2.3.3 0 .1-.1.1-.1.2.1-.1.5.5.5.6l.2-.1c.1.1-.2.2 0 .3.2-.2.1.2.2.1 0 0 0 .1-.1.1.1-.1.1 0 .1 0s0 0 .1-.1h.1c0 .1-.1.1-.1.1.1.2.7 1.3.9 1.5.1-.1 0-.1.1-.3.1 0 0 .1.1.1-.2.2 0 .2-.1.4l.1-.1-.1.1c.3.1.1 0 .2.3.1.1.3 0 .3.2 0 0 0-.1.1-.1-.1.1.1 0 0 .1 0 0 .1.1.2 0-.1.1 0 .2-.1.2 0 0 0 .1.1.1v-.1c.1.1 0 .3.2.2v-.1c.1.1.1.1 0 .3h-.1c.1.1.1.2.3.2s.8.5 1 .4l.1-.1h.2s-.4.3-.4.2c.1.2 1 1.1 1 1.4 0 .1-.2.2-.2.2.1.1.1-.1.2 0 0 0-.1.1-.1.1s0 .1.1 0c0-.1.2-.2.2-.3l.1.1-.1.1s.3-.2.3 0c.1.2.2.3.3.5 0 0-.1 0-.2 0v.1c.1-.1.1 0 .1-.1.3-.1.2.3.4.2l.6-.6c.1.1.6.4 1 .5.5.1 1 .1 1.2 0-.1 0-.2 0-.2 0 .1 0 .1 0 .2-.1.1.1.2 0 .3 0v-.1h.1c.4-.2.1 0 .4-.2.2-.1.2-.2.3-.3s.1-.1.1-.1.2-.2.1-.2c0 0 .2-.1.1 0 0 0 .1-.1.1-.1h-.1c.1-.1.2-.2.2-.3h-.1c.1-.1.1-.2.2-.2v.1c.1-.1.1-.2.1-.4 0-.1.1-.4 0-.6 0-.3-.1-.5-.1-.6v.1s0-.1-.1-.1c0 0 .2 0 .2.1 0-.1-.1-.5-.4-.9l.6-.6v.1c0-.1 0-.1 0-.2l-.1.1c-.1 0 .1-.1 0-.2.1-.1.2 0 .2 0 0-.1 0-.2-.1-.1.5.6.7.6.7.5z"/><path d="m129.1 17v-.7h-.1s.2-.1.2-.1c-.1-.1.2-1.7.2-1.8s.1-.1.1-.1c-.1 0-.3-.1-.3-.2h.1s0-.1-.1 0c0 .1-.1.1-.1.2l-.1-.3h.1s-.2.1-.2 0c-.1-.1-.2-.3-.3-.4h.1s0 0 0-.1c0 .1-.1 0-.1 0-.2 0-.2-.2-.3-.2l-1.2.6v-.1.1h-.2c.1 0-.5.4-.4.5-.1 0-.1 0-.2 0 0 0-.3.5-.3.5 0 .1-.1.1-.1.1s.1 0 .1.1.2.1.2.2.1.1.1.2c0 0 0-.1.1 0 0 .1.1.1.1.2h.1c.2.2.7.8.8 1l.2.8"/><path d="m151 6.9.5-.4.1.1s-.1-.3-.1-.2c.2 0 1.2-1.2 1.3-1.3s0-.1 0-.1c.1 0 .3.2.4.1v-.1h.1v.2h.1v-.1s.1.2.2.1h.5s0-.1-.1-.1h.1c0 .1.1 0 0 .1.1.2.3 0 .4.1l.3 1.3h.1s-.1.1-.1 0l.1.2c-.1 0 0 .6-.1.6 0 .1.1.1.1.1s-.2.6-.2.5c0 0 0 .1-.1.1 0 0-.1-.1-.2 0s-.2-.1-.3 0-.1 0-.2 0v-.1c-.1 0-.1 0-.2.1l-.1-.1c-.3 0-1.1 0-1.3 0l-.8.4"/><path d="m131.6 42.8c.1.2-1 1.4-1 1.6 0 .1-.2.1-.2.1.1.1.1 0 .2.1h-.1s0 .1.1.1c0-.1.2-.1.2-.2l-1.7 1.1h-.1s.2 0 .2.1c0 .2-.2.8-.1 1h-.1v.1c.1-.1.1.1.1 0 .3 0 3-1 3.2-.9l3.4-1.3v.1-.1h-.1c-.1-.1.1-.1 0-.1.1 0 .1 0 .2.1 0-.1 0-.2-.1-.1 0-.1.1 0 .1-.1-.1 0-.2-.1-.1-.1 0-.2-.2-.1-.2-.3 0-.1-.1-.1-.1-.2 0 0-.1.1-.1 0s-.1-.2 0-.3h-.1c-.1-.3-.8-1.5-1-1.9"/><path d="m152.5 29.6h-.2s.4 0 .3 0c-.1.2 1.2.5 1.2.7 0 .1.8.4.8.4-.1.1.6.2.6.3h.1s.4.3.3.3c.4.3.1-.1.4.1v.1h.1s-.3 0-.2.2c0 .2-.1.4-.1.6.1 0 .1 0 .1-.1v.1c-.1-.1-.1.1-.1 0-.2.1-1.4-.1-1.5.1l-5.1-.5v.1c-.1 0-.1-.1 0-.1h.1c.1-.1-.1 0 0-.1-.1 0-.1.1-.2.1 0-.1-.1-.2.1-.2 0-.1-.1 0-.2-.1 0-.1.2-.1.1-.2-.1-.2.2-.2.1-.4-.1-.1 0-.1 0-.2 0 0 .1.1.1 0s0-.2 0-.3l.1-.1c0-.4.3-1.2.3-1.5"/><path d="m139.5 33.1c-.1 0 .4-.5.4-.5l-.1-.1c.1-.1.2.1.2 0-.1-.2.2-.1.1-.2h.1c-.1-.1 0-.1 0-.1s0 0-.1 0v-.1c.1 0 .1.1.1.1.2-.1 1-.8 1.1-1-.1 0-.1.1-.2 0 0-.1.1 0 0-.1.2.1.1-.1.3.1l-.1-.1h.1c.1-.3 0-.1.2-.2.1-.1 0-.3.1-.3 0 0-.1 0-.1-.1.1.1 0-.1.1-.1 0 0 .3.1.1 0 .1 0 .2 0 .2.1 0 0 .1 0 .1-.1h-.1c.1-.1.2-.1.2-.2h-.1c0-.1.1-.1.2 0v.1c.1-.1.1-.1.1-.3s.4-.7.3-.9h-.1v-.1s.2.3.2.3c.1-.2.9-1 1.1-1 .1 0 .1.1.1.1 0-.1-.1-.1 0-.2 0 0 .1.1.1.1s.1 0 0-.1c-.1 0-.1-.1-.2-.2l.1-.1.1.1s-.1-.2 0-.3c.2-.1.3-.2.4-.4v.1h.1c-.1 0 0-.1 0-.1-.1-.2.2-.2.2-.4l-2.8-2.9h.1-.1l.1.1c0 .1-.1 0-.1 0-.1-.1 0-.1 0-.2 0 0-.1 0-.1.1-.1 0-.1-.1-.2-.1 0 .1 0 .2-.1.2-.2 0 0 .3-.2.3-.1 0-.1.1-.2.1 0 0 .1 0 .1.1-.1 0-.1.1-.2.1v.1c-.2.2-.8.9-1 1.2-.3.4-.9 1.1-1.2 1.6-.1 0-.2.1-.3.1.1 0 .1.1.1.1-.2.2 0 .1-.1.3-.1.3-1 .9-1.2 1.1 0 .2-.2.2-.2.4-.1.1-.7.6-.8.8 0 .2-.1 0-.3.1.1.1.1.3.1.3 0 .1 0 .3-.1.4l-.1-.1c0 .1-.2.2-.2.3-.1.1-.4.1-.5.4l-.3-.1s.1.1.2.2c0 .1-.1.1-.1.1-.1.1-.1 0-.1.1s-.1.2-.1.2 0 .1 0 0v.1.1c0 .1-.1.5 0 .8.1.4.3.7.4.8 0 0-.1-.1-.1-.1.1 0 .1.1.1.1 0 .1.1.1.1.2.2.2.1 0 .3.2.1.1.2.1.3.1s.1 0 .1.1c0 0 .1.1.1 0 0 0 .1.1.1.1h.1c.1 0 .2.1.2 0h.2-.1.3c.1 0 .2-.1.4-.1.2-.1.3-.2.3-.3h-.1s0 0 0-.1v.1s0 0 .1-.1c.1 0 0-.1.1 0l-.1.1c.1 0 .1 0 .1.1h.1s0 0-.1 0v-.1c.1 0 .1.1.2.1.4-.2.7-.5 1-.8v.1c.1-.1.2-.2.2-.3.2-.5.2-.4.3-.4z"/><path d="m151.6 17.3s-.2.1-.3.1h-.1s-.1 0-.1.1c0-.1 0-.1.1-.2-.1 0-.1 0-.1.1-.1 0-.1-.1-.1-.1s0 .2-.1.1c-.2-.1-.1.2-.3.2-.1 0-.1.1-.2 0 0 0 .1.1.1.1-.1 0-.1.1-.2 0v.1c-.3.1-1 .6-1.3.8-.4.2-1.3.6-1.6 1-.1-.1-.2 0-.3 0 .1 0 .1.1 0 .1-.2.1 0 .1-.2.2-.2.2-1.2.6-1.5.6 0 .2-.3.2-.3.3-.1.1-.9.3-1 .4-.1.2-.1 0-.3 0 .1.2 0 .3 0 .3 0 .1-.1.3-.2.3v-.1c0 .1-.2.2-.3.2-.2 0-.5 0-.6.2l-.2-.2s1.4 3.3 2 3.8v.1c.1 0 .1-.1.1 0h-.1c.1 0 .1.1.1.1h.1s0-.1.1-.1.1.1.2.1c.4-.1.8-.2 1.2-.4v.1c.1-.1.2-.1.3-.2 0 0 .1.1.1.1-.1-.1.5-.3.6-.3l-.1-.2c.1-.1.1.2.2.1-.1-.2.2-.1.2-.2 0 0 .1 0 .1.1 0-.1 0-.1.1-.1 0 0 0 0-.1-.1l.1-.1s.1.1.1.1c.2 0 1-.7 1.2-.9-.1-.1-.1 0-.2-.1 0-.1.1 0 .1-.1.1.2.1 0 .3.2v-.1l.1.1c.2-.2 0-.1.2-.2.1-.1.1-.3.2-.2 0 0-.1-.1-.1-.1.1.1 0-.1.1 0 0 0 .1-.1 0-.2.1.1.2.1.1.1h.1-.1c.1-.1.2 0 .2-.1h-.1c.1 0 .1-.1.2.1v.1c.1-.1.2-.1.2-.2 0-.2.5-.6.6-.8l-.1-.1v-.1s.1.4.1.3c.2-.1 1.1-.6 1.3-.6.1 0 .1.2.1.2.1-.1 0-.1.1-.2v.1s.1 0 0-.1c-.1 0-.1-.2-.2-.2h.1v.1s-.1-.3 0-.3c.2 0 .3-.1.5-.2v.1h.1c-.1-.1 0-.1 0-.1 0-.3.2-.1.3-.3l-.1-.1s0 0 .1-.1h.1s.1-.1.2-.3c.1-.1.2-.3.2-.3.1-.1.1 0 .1-.1s.1-.2 0-.3v-.1-.1s0 0 0-.1 0-.5-.1-.8c-.1-.4-.3-.7-.4-.7 0 0 .1.1.1.1-.1 0-.1-.1-.1-.1 0-.1-.1-.1-.1-.2-.3-.2-.1 0-.3-.2-.1-.1-.2-.1-.3-.1s-.1 0-.1-.1h-.1s-.1-.1-.1-.1h-.1c-.1 0-.2 0-.3 0s-.1 0-.2 0h.1c-.1-.1-.2-.1-.2 0z"/><path d="m136.7 40.4h-.2c0-.1.2 0 .2-.1-.2-.1.1-.2-.1-.2h.1c-.1 0 0-.1 0-.1s0 0-.1 0v-.1h.1c.1-.2.4-1.1.4-1.4-.1 0-.1.1-.2.1-.1-.1.1-.1 0-.1.2 0 .1-.1.3-.1h-.1.1c-.1-.3-.1-.1 0-.3 0-.1-.2-.2-.1-.3h-.1c.1 0-.1-.1.1-.1 0 0 0-.1-.1-.1.1 0 .1-.1.2 0v-.1c0-.1.3-.3.2-.4l.1.3c0-.1-.2-.4-.1-.4v.1c0-.1 0-.2 0-.3-.1-.1.1-.5-.1-.6h-.1l-.1-.1s.4.1.3.1c0-.2.2-1.2.3-1.4.1-.1.2 0 .2 0 0-.1-.1-.1-.1-.1h.1v-.1c-.1 0-.2 0-.3 0v-.1h.1s-.2-.1-.2-.2c.1-.1.1-.3.1-.5.1 0 .1.1.1.1v-.1c-.1 0-.1-.1-.1-.1-.2-.2 0-.3-.1-.4l-3-.7v-.1c-.1 0-.1.1-.1.1h.1c0 .1-.1 0-.1.1-.1 0-.1-.1-.1-.2 0 .1-.1.1 0 .1-.1 0-.1 0-.2 0 0 .1.1.1 0 .2s.1 0 0 .1c-.1 0 0 .1-.1.2h.1c-.1.1 0 .1-.1.2l.1.1c-.1.3-.2 1.5-.2 1.8 0 .5-.6 1.4-.6 1.9-.1 0-.1.2-.2.2h.1c-.1.2.1 0 .1.3s-.2 1.1-.4 1.3c.1.2 0 .3 0 .4s-.3.9-.3 1c.1.2-.1.1-.2.2.2 0 .2.2.2.2 0 .1-.4.3-.4.4h-.1c.1.1 0 .3 0 .3-.1.1.1.4.2.7l-.3.1s2.7.8 3.5.7h.1v-.1c.1-.1 0-.1.1-.1v.1c0-.1.1 0 .1 0s0-.1.1-.1c0 0 0 0-.1 0 0 0-.1-.1-.1-.1 0-.1.2 0 .2 0 .2-.4 0-.9 0-1.3h.1c0-.1 0-.2 0-.4h.1c.5.2.6-.5.6-.5z"/><path d="m153.6 26.8h-.2c0-.1.2 0 .2-.1-.2-.1 0-.2-.1-.2 0 0 0-.1.1 0-.1 0 0-.1-.1-.1 0 0 0 0-.1 0v-.1h.1c.1-.2.3-1.2.2-1.4-.1 0 0 .1-.2.1-.1-.1 0-.1-.1-.1.2 0 .1-.1.3-.1h-.1.1c-.1-.3-.1-.1 0-.3 0-.1-.2-.2-.1-.3h-.1c.1 0-.1-.1 0-.1 0 0 0-.1-.2-.1.1 0 .1-.1.2 0v-.1c0-.1.3-.3.1-.4l.2.3c0-.1-.3-.4-.1-.4v.1c0-.1 0-.2-.1-.3s0-.5-.2-.6h-.1l-.1-.1s.4.1.3.1c0-.2 0-1.2.1-1.4.1-.1.2 0 .2 0 0-.1-.1 0-.1-.1h.1v-.1s-.2 0-.3 0v-.1h.1s-.3-.1-.2-.2c.1-.2 0-.3.1-.5.1 0 .1 0 .1.1v-.1c-.1 0-.1-.1-.1 0-.2-.1 0-.3-.1-.4l-3-.2v-.1c-.1 0-.1.1-.1.1h.1c0 .1-.1 0-.1.1-.1 0-.1-.1-.1-.1 0 .1-.1.1 0 .1 0 0-.1 0-.2 0 0 0 .1.1.1.2-.1.1.1 0 0 .1-.1 0 0 .1-.1.2h.1c-.1.1 0 .1-.1.2l.1.1v1.8c0 .5-.4 1.4-.3 1.9-.1.1-.1.2-.1.2h.1c0 .2.1 0 .1.3.1.3-.1 1.1-.2 1.3.1.1 0 .3.1.4 0 .1-.2.9-.1 1.1.1.1-.1.1-.1.2.2 0 .3.1.3.2s-.3.3-.3.4h-.1c.1.1 0 .3 0 .3-.1.2.2.4.3.6l-.3.1s2.8.4 3.5.2h.1v-.1c0-.1-.1-.1 0-.1v.1c0-.1.1 0 .1 0s0-.1.1-.1c0 0 0 0-.1 0 0 0-.1-.1-.1-.1 0-.1.2 0 .2-.1.1-.4-.2-.9-.1-1.3h.1c0-.1 0-.2 0-.4h.1c.1.1.2-.6.2-.6z"/><path d="m135.9 19.8c0-.2.2-.2.2-.3l-.1-.2c0-.1.1-.1.1-.1s0-.1.1-.1v.1c0-.1.1-.1.1-.2s0-.2 0-.3 0-.3-.1-.3 0 0 0-.1h.1c0-.1-.1-.3-.2-.5s-.3-.3-.4-.4c-.1 0 0 0-.1 0v.1s0 0-.1 0h-.1c-.1 0-.2-.1-.4-.1h.1s0 0-.1 0-.2 0-.2.1l-.1-.1h.1-.1l.1.1c0 .1-.1 0-.1 0-.1-.1 0-.1 0-.2 0 0-.1 0-.1.1-.1 0-.1-.1-.1-.1s0 .1-.1.1-.1.1-.1.2 0 0-.1 0-.1.1-.2.1 0 0-.1 0c0 0-.1.1-.1 0v.1c-.2.1-.5.4-.7.6-.3.3-.9.7-1.2 1.1-.1 0-.2 0-.2.1 0 0 .1.1 0 .1-.2.1 0 0-.1.2s-.9.6-1.1.7c0 .2-.2.2-.2.3-.1.1-.6.4-.7.5 0 .1-.1 0-.2 0 .1.1.1.2 0 .2s-.1.2-.1.3v-.1c0 .1-.2.2-.2.2-.1.1-.4.1-.4.2l-.2-.1s.1.1.2.2c0 .1-.1.1-.1.2v.2.3.1c.1 0 0 .2.1.2v.1c0 .1.2.3.3.5.2.2.4.3.5.3 0 0-.1 0-.1-.1h.1c0 .1.1 0 .1.1h.2.2.1.1.1.1c.1 0 .1 0 .2-.1h.1s.1-.1.1-.1h.1c.3-.2.6-.3.9-.5.1-.1.1-.1.2-.2 0 0 .1 0 .1.1-.1 0 .4-.4.4-.4l-.1-.1c.1-.1.1.1.2 0-.1-.2.1-.1.1-.2h.1c0-.1 0 0 0-.1v-.1s.1.1.1.1c.2-.1.9-.5 1-.6-.1 0-.1 0-.2-.1 0-.1.1 0 0-.1.1.1.1 0 .2.1v-.1h.1c.1-.2 0-.1.2-.2.1-.1 0-.2.1-.2 0 0-.1 0-.1-.1.1.1 0-.1.1 0 0 0 .1-.1 0-.2 0 0 .1 0 .1.1h.1c.1-.1.2 0 .1-.1h-.1s.1-.1.2 0v.1c.1-.1.1-.1.1-.2 0-.2.4-.5.3-.7l-.1-.1v-.1s.2.3.1.2c.1-.1.3-.3.5-.3.1 0 .1.1.1.1 0-.1 0-.1 0-.1v.1s.1 0 0-.1c0 0-.1-.1-.2-.2h.1v.1s-.1-.2 0-.2c0 .3.1.2.3.1v.1s0 0 0-.1c-.1.1 0 .1 0 0z"/><path d="m130.7 21.6c-.1-.1 0 0 0-.1-.1 0 0-.1-.1-.2h.1c-.1 0 0 0 0-.1v-.1h.1c0-.2 0-.9-.1-1-.1 0 0 .1-.1.1s0-.1 0-.1c.1 0 0-.1.1-.2h-.1c-.1-.2 0 0-.1-.2 0-.1-.1-.1-.1-.2 0 0 0 0-.1 0 .1 0-.1-.1 0-.1 0 0 0-.1-.1-.1 0 0 .1-.1.1-.1v-.1c0-.1 0-.1-.1-.2s0-.1.1-.1c0-.1 0-.1-.1-.2s-.2-.5-.4-.5h-.1l-.1-.1h.2c0-.1-.2-.9-.2-1s.1 0 .1 0c0-.1-.1 0-.1-.1h.1s-.1 0-.2.1v-.1h.1s-.2 0-.1-.1c0-.1 0-.2 0-.4h.1s0 0 0-.1c-.1 0 0 0-.1 0-.2-.1 0-.2-.1-.3l-2.2.3v-.1.1h.1v.1c-.1 0-.1 0-.1-.1v.1s-.1 0-.1.1c0 0 .1.1.1.1 0 .1.1.1.1.2v.1h.1v.2h.1c0 .2.2 1 .3 1.3s.2 1 .3 1.3c-.1.1 0 .1 0 .2h.1c0 .2 0 0 .1.2s.1.9.1 1.1c.1.1.1.2.1.3s0 .7.1.8 0 .1 0 .2c.1 0 .2 0 .2.1s.1.1.2.2h-.1c.1.1.1.2.1.2 0 .1-.1.3 0 .4l-.1.1s1.9-.2 2.3-.5h.1c0-.1 0-.1 0-.1v.1h.1s0 0 0-.1-.1 0-.1-.1.1 0 .1-.1c0-.3 0-.6 0-.9 0-.1 0-.2-.1-.2h.1c-.7.4-.7 0-.7 0z"/><path d="m140.4 14.1c0 .2-.2.1-.3.2l.1.2c-.1 0-.1 0-.1.1s-.1.1-.1.1c-.1.1-.1.1-.1.2s-.1.2-.1.3v.3.1l-.1-.1c0 .1 0 .3.1.5s.2.4.3.5 0 0 .1.1 0 0 0-.1c0 0 0 0 .1.1h.1c.1.1.2.1.3.2 0 0 0 0-.1 0h.1s.1 0 0 0h.2v.1h-.1.1v-.1c.1-.1 0 .1.1 0 0 .1 0 .1-.1.1h.1s0 .1.1.1c0 0 .1-.1.1-.1.1 0 .1-.1.2-.1h.1.2s0 0 0-.1h.1.1v-.1c.2-.1.6-.2.8-.3.4-.1 1.1-.4 1.5-.6.1.1.2 0 .2 0v-.1c.2 0 0-.1.2-.1.2-.1 1.1-.3 1.3-.3.1-.1.2-.1.3-.2s.7-.2.9-.2c.1-.1.1 0 .2 0 0-.1 0-.2.1-.2s.1-.2.2-.2v.1c.1-.1.2-.1.3-.1s.4.1.5-.1l.2.2s0-.1-.1-.3c.1-.1.1-.1.2-.2s.1-.1.1-.2c.1-.1.1-.2.1-.2 0-.1 0 0 .1-.1 0-.1 0-.2 0-.2v-.1s0 0 0-.1 0-.3-.1-.6c-.1-.2-.3-.4-.4-.5 0 0 .1.1.1.1s0-.1-.1-.1c0 0-.1-.1-.1-.1-.2-.1 0 0-.2-.1-.1 0-.2 0-.2-.1h-.1-.1-.1c-.1 0-.1 0-.2 0s0 0-.1 0 0 0-.1 0-.1 0-.1.1c-.3 0-.7.1-1 .2-.1.1-.2.1-.3.1 0 0-.1-.1-.1-.1 0 .1-.5.2-.5.2v.1c-.1 0-.1-.1-.2-.1 0 .2-.2 0-.2.1 0 0-.1 0-.1-.1 0 .1 0 0-.1.1v.1l-.1.1s-.1-.1 0-.1c-.2 0-1 .2-1.2.3 0 .1.1 0 .1.1s-.1 0-.1.1c-.1-.2-.1 0-.2-.2v.1-.1c-.2.2 0 .1-.2.1-.1 0-.1.2-.2.2 0 0 .1 0 0 .1 0-.1-.1.1-.1 0 0 0-.1 0-.1.1 0-.1-.1-.1-.1-.1h-.1c-.1 0-.2 0-.2.1-.1 0-.1 0-.2-.1-.1 0-.1.1-.2.1-.1.1-.5.4-.6.5l.1.1-.1.1s-.1-.3 0-.3c-.2.1-.4.2-.6.1-.1 0 0-.1-.1-.2-.1.1 0 .1-.1.1v-.1s.1.1.1.2h-.1v-.1s0 .2-.1.2c.5.2.3.3.1.3.1-.1.1-.1 0 0 .1-.1 0-.1 0 0z"/><path d="m149.5 12.6c-.1-.1 0 0 0 0 0-.2.2-.2.1-.3h.1c0-.1 0 0 0-.1 0 0 0 0-.1 0v-.1h.1c.1-.1.6-.6.7-.8-.1 0-.1 0-.1 0 0-.1.1 0 0-.1.1.1.1-.1.2 0l-.1-.1h.1c.1-.2 0-.1.1-.2s0-.2.1-.2h-.1c.1 0 0-.1.1-.1 0 0 .1-.1 0-.1h.1s0 0 0-.1.1-.1.1-.2 0-.1.1 0v.1c.1-.1.1-.1.1-.2s.2-.5.2-.6h-.1v-.1s.2.2.1.2c.1-.1.5-.7.6-.8.1 0 .1.1.1.1 0-.1 0-.1 0-.1s-.1-.1-.2-.1l.1-.1s-.1-.1 0-.2.2-.2.2-.3v.1c-.1 0 0-.1 0-.1-.1-.2.1-.2.1-.3l-1.7-1.5h-.1.1c0 .1 0 0-.1 0s0-.1 0-.1-.1 0 0 .1c0 0-.1-.1-.1 0v.1c-.1 0 0 .2-.1.2s0 .1-.1.1h.1c-.1 0-.1.1-.1.1v.1c-.1.2-.6.9-.7 1.1-.2.3-.6.8-.8 1.1-.1 0-.1.1-.2.1h.1c-.1.1 0 0-.1.2s-.6.7-.8.8c0 .1-.1.2-.1.3s-.4.5-.5.6c0 .1-.1 0-.2.1.1.1.1.2.1.2s0 .2-.1.3c0 .1-.1.2-.1.2-.1.1-.3.1-.3.3h-.2s1.5 1.3 1.9 1.3c.1 0 0-.1.1 0h.1.1v-.1s.1.1.1 0c.2-.2.5-.4.6-.6 0-.1.1-.1.1-.2h.1c-.1.4.2 0 .2 0z"/></g><path d="m103.8 169.8c.5.5.5 1.4 0 2-.5.5-1.4.5-2 0l-1.9-2c-.5-.5-.5-1.4 0-2 .6-.5 1.4-.5 2 0z" fill="none" stroke="#1a171b" stroke-width=".8"/><path d="m100.1 167.7c-1-1.2-2.6-2.1-3.4-3.5" fill="none" stroke="#1a171b" stroke-width=".8"/><path d="m87.9 219.8c.5.6.4 1.5-.2 2s-1.5.4-2-.2l-1.7-2.1c-.5-.6-.4-1.5.2-1.9.6-.5 1.5-.4 2 .2z" fill="none" stroke="#1a171b" stroke-width=".8"/><path d="m82.9 266.1c-.2.4-.7.6-1.2.4-.4-.2-.6-.7-.4-1.2l.8-1.5c.2-.4.7-.6 1.2-.4.4.2.6.7.4 1.2z" fill="none" stroke="#1a171b" stroke-width=".5"/><path d="m86.1 259.8c0-.5.4-.9.9-.9s.9.4.9.9-.4.9-.9.9c-.5-.1-.9-.4-.9-.9z" fill="none" stroke="#1a171b" stroke-width=".5"/><path d="m80.7 259.8c0-.5.4-.9.9-.9s.9.4.9.9-.4.9-.9.9c-.6-.1-.9-.4-.9-.9z" fill="none" stroke="#1a171b" stroke-width=".5"/><path d="m84.4 217.4c-.9-1.3-2.4-2.3-3.1-3.8" fill="none" stroke="#1a171b" stroke-width=".8"/><path d="m65.7 274.7 8.3-13.9s11.6-36.6 11.9-37.5" fill="none" stroke="#00b0e5" stroke-linecap="round" stroke-linejoin="round" stroke-width="1.4"/><path d="m66.3 299.6c1.3-.1 2.7.3 4 .1 1.4-.2 2.7-.5 4.1-.8 1.6-.3 2.9-.8 4.5-1.3-1.6-1.6-2.9-1.9-5.3-2-5.6-.2-11.2-.4-16.7-.3-.7 0-8.5-.2-8.6 1.1 0 .9 2.9 1.5 3.5 1.7 2 .5 4 .8 6 1 2.4.3 5 .6 7.4.5" fill="#e2e3e4"/><path d="m65.2 275s-.2-.1-.1-.2c.1-.2-.2-.2-.1-.4.1-.1-.1-.1 0-.2 0 0-.1.1-.1 0 .1-.1 0-.2.1-.3h-.1c0-.4-.4-1.7-.5-2.1-.2-.5-.3-1.6-.6-2.1.1-.1.1-.2.1-.3 0 .1-.1.1-.1 0 0-.3-.1 0-.2-.3-.2-.3-.2-1.5-.2-1.9-.2-.1-.1-.3-.2-.4s-.1-1.1-.2-1.3c-.1-.1.1-.2.1-.3-.2.1-.3 0-.4-.1 0-.1-.3-.2-.3-.3h.1c-.1-.1-.5-.5-.5-.5 0-.2-1.3.2-1.5 0l-.2-.1-2 .5s-1.3.3-2.1.9h-.1v.1c0 .1.1.1 0 .1v-.1c0 .1-.1 0-.2 0v.1h.1s.2.1.1.1c0 .1-.2.1-.2.2 0 .5-.1 1 0 1.5 0 0 0 0-.1 0 .1.1.1.3.1.4s-.1.1-.2.1c.1 0 .2.7.2.7l.2-.1c0 .1-.2.1-.2.2.3 0 0 .2.2.2 0 0 0 .1-.1.1.2 0 .1.1.1.1h.1l.1.1c0 .1-.1.1-.2.1 0 .3 0 1.5.2 1.7.1-.1 0-.1.2-.2.1 0 0 .1.1.1-.3.1 0 .2-.3.3h.2l-.1.1c.2.3.1 0 .1.3.1.2.3.2.2.3 0 0 .1-.1.1 0-.1 0 .1.1 0 .1 0 0 0 .2.2.1-.1.1-.1.2-.2.1v.1-.1c0 .1-.1.2.1.3l.1-.1c0 .1 0 .1-.1.2l-.1-.1c0 .1.1.2.2.3.2.1.5.8.7.8l.1-.1.1.1s-.5.1-.4.1c.1.2.4 1.4.3 1.7-.1.1-.2.1-.2.1.1.1.2 0 .2.1h-.1v.1c0-.1.2-.1.3-.1v.1h-.1s.3 0 .3.1c0 .2.1.4.1.6-.1 0-.1 0-.2 0v.1c.1-.1.1.1.1 0 .3.1.1.3.3.4l.8-.2c.1.2.3.6.7.9s.9.5 1.1.5c0 0-.2-.1-.2-.1.1 0 .1.1.2 0 0 .1.2.1.3.2h.5c.2 0 .3-.1.4-.1s.1-.1.2 0c0 0 .2-.1.1-.1 0 0 .2 0 .1 0 0 0 .1 0 .1-.1h-.1c.1-.1.3-.1.3-.2h-.1c.1-.1.1-.1.2-.1l-.1.1c.1-.1.2-.2.3-.3 0-.1.2-.3.3-.5s.1-.5.1-.6l-.1.1c0-.1 0-.1 0-.1s.1.1.1.1c0-.1.1-.5 0-.9l.8-.2v.1c.1 0 .1-.1 0-.1h-.2c-.1-.1.1-.1.1-.1.1 0 .2 0 .2.1 0-.1.1-.2-.1-.2.6-.3.7-.3.7-.3z" fill="#4b4b4d"/><path d="m60.4 257.4v-.1c-.1-.1-.2-.1-.1-.2l.1.2c-.1-.1 0-.1.1 0 0-.1-.1-.1-.1-.2v.1c-.1-.1-.2-.1-.2-.2-.1-.1 0-.1-.1-.2-.7-.7-1.7-1.2-2.7-1.1-.3 0-.6.1-.8.2-.1 0-.1 0-.1-.1 0 0-.3.1-.7.3-.3.2-.6.4-.6.4v.1c-.2.2-.1 0-.3.2 0 .2-.3.3-.3.5 0 0-.1.1-.1.1 0 .1-.1.1-.1.2h.1c0 .1 0 .1-.1.2s-.1.1-.1 0c-.1.2-.4.9-.5 1.7 0 .8.2 1.6.3 1.9 0-.1-.1-.3 0-.3.1.1.1.2.1.3-.1.1.1.3 0 .5h.1v.1c.4.6.3 0 .7.5.2.3.4.3.5.4v-.1c0 .1.1.1.1.2.1.1.1.4.1.3 0 .1.2.2.1.2.1 0 .1.1.2.1l-.1-.1c.2.1.4.3.5.3l-.1-.1c.1.1.3.1.3.2h-.2c.3.1.4.1.6.1h-.1 1c.4 0 .8-.2.9-.3h-.1c.1 0 .1-.1.2-.1v.3c.2-.1.8-.3 1.3-.8s.7-1.1.8-1.3c.1-.1.1 0 .1 0 0-.2 0-.1 0-.3 0 0 .1 0 .1.1 0-.1.1-.1 0-.2-.1.1-.1 0-.2 0 0-.1 0-.1.1-.2s-.1-.4 0-.6c.1-.4 0-.5-.1-.9 0 0 .1.1.1.2 0-.1 0-.1 0-.2 0 .1-.1-.2-.1-.1-.2-.2-.5-.5-.7-.7-.1 0-.1 0-.6.1-.1-.1-.1-.2-.1-.3.5-.6.8-.9.8-1.3z" fill="#4b4b4d"/><path d="m57 263.2s.1 0 0 0v.6s0 .1.1.1h-.1s.1.2.1.2h.1s-.1 0-.1.1c.1 0 0 .1.1.1 0 0 0 0-.1 0h-.1c0 .1 0 .5.1.6.1 0 0 0 .1-.1-.1 0 0 .1-.1.1h.1c.1.1 0 0 .1.1 0 0-.2 0-.3.1-.1 0 .1 0 0 0 0 0 0 .1.1 0 0 0-.1.1-.1.1v.1c1 .1 2.1.2 3-.3-.1-.2-.1-.4-.2-.6.1 0 0-.1 0-.1h-.1c0-.1 0 0-.1-.1s-.1-.5-.1-.6c-.1 0-.1-.1-.1-.1 0-.1 0-.4-.1-.4s0-.1 0-.1c-.1 0-.2 0-.2 0s-.1-.1-.1-.1h.1c-.1 0-.1-.1-.1-.1 0-.1.1-.2 0-.2l.1-.1s-1.9.4-2.2.6l.1.1c.1-.1.1-.1 0 0 .1-.1 0-.1 0 0 0-.1 0 0 0 0z" fill="#4b4b4d"/><path d="m59.9 295.2c0 .2 1.5.9 1.5 1.1.1.1.2 0 .2 0-.1.1-.1 0-.1.1h.1v.1s-.2 0-.3-.1l2 .5h.1s-.2.1-.2.2c0 .2.5.7.5.9.1 0 .1 0 .1-.1v.1c-.1-.1-.1.1-.1 0-.2.1-3.1.2-3.3.3l-3.6.1v.1c-.1 0-.1-.1 0-.1h.1c0-.1-.1 0-.1-.1-.1 0-.1.1-.1.1 0-.1-.1-.1 0-.2 0-.1-.1 0-.2-.1 0-.1.1-.1.1-.2-.1-.2.2-.2.1-.4-.1-.1 0-.1 0-.2 0 0 .1.1.1 0-.1-.1 0-.2-.1-.2l.1-.1c0-.4.2-1.7.2-2.1" fill="#4b4b4d"/><path d="m67.9 293.8h-.2s.4 0 .3 0c-.1.2 1.2.5 1.2.7 0 .1.8.4.8.4-.1.1.6.2.6.3h.1s.4.3.3.3c.4.3.1-.1.4.1v.1h.1s-.3 0-.2.2c0 .2-.1.4-.1.6.1 0 .1 0 .1-.1v.1c-.1-.1-.1.1-.1 0-.2.1-1.4-.1-1.5.1l-5.1-.5v.1c-.1 0-.1-.1 0-.1h.1c.1-.1-.1 0 0-.1-.1 0-.1.1-.2.1 0-.1-.1-.1.1-.2 0-.1-.1 0-.2-.1 0-.1.2-.1.1-.2-.1-.2.2-.2.1-.4 0-.1 0-.2 0-.2s.1.1.1 0 0-.2 0-.3l.1-.1c0-.4.3-1.2.4-1.5" fill="#4b4b4d"/><path d="m62.9 284.1c-.1 0-.1-.6-.1-.7h-.2c0-.1.2 0 .1-.2-.2 0 0-.2-.1-.2 0 0 0-.1.1-.1-.1 0 0-.1-.1-.1 0 0 0 0-.1 0v-.1h.1c0-.2.1-1.3.1-1.5-.1 0 0 .1-.2.1-.1-.1 0-.1-.1-.1.2 0 .1-.1.3-.2h-.1.1c-.1-.3-.1-.1 0-.3 0-.1-.2-.2-.1-.3h-.1c.1 0-.1-.1 0-.1 0 0 .2-.1.1-.1.1 0 .1-.1.2-.1v-.1c0-.1.1-.2 0-.3h-.1c0-.1 0-.1.1-.2v.1c0-.1 0-.2-.1-.3-.2-.1-.3-.8-.5-.9l-.1.1-.1-.1s.4 0 .3.1c0-.2-.1-1.3 0-1.5.1-.1.2 0 .2 0 0-.1-.1 0-.1-.1h.1v-.1s-.2 0-.3 0v-.1h.1s-.2-.1-.2-.2c0-.2 0-.4 0-.5.1 0 .1 0 .1.1v-.1c-.1 0-.1-.1-.1 0-.2-.1 0-.3-.2-.4l-4 .1v-.1c-.1 0-.1.1 0 .1h.1c0 .1-.1 0-.1.1-.1 0-.1-.1-.1-.1 0 .1-.1.1 0 .1 0 .1-.1 0-.2.1 0 0 .1.1.1.2-.1.1.2.2.1.3-.1 0 0 .1 0 .2h.1c-.1.1 0 .1-.1.2l.1.1c0 .3.1 1.2.2 1.5.1.5.2 1.5.3 2-.1.1-.1.2-.1.3h.1c0 .2.1 0 .1.3.1.3 0 1.4-.1 1.6.2.1 0 .3.1.4s-.1 1 0 1.1-.1.1-.1.2c.2 0 .3.1.3.1 0 .1.2.2.2.3h-.1c.1.1.1.3.1.4 0 .2-.2.4-.1.6l-.2.1h.3v.1.2c.1 0 .1.2.1.2v.1s0 0 .1.1 0 0 .1.1.3.4.6.5c.3.2.7.2.8.2 0 0-.1 0-.1-.1h.1c0 .1.1 0 .2.1.3-.1.1 0 .3 0 .1 0 .2-.1.3-.1s.1-.1.1 0c0 0 .1-.1.1-.1h.1s.1 0 .1-.1c.1-.1.2-.1.2-.2.1 0 .1-.1.1-.1v.1c.1-.1.1-.1.2-.2 0-.1.1-.2.2-.4 0-.2 0-.3 0-.4v-.1s.1.1.1.1v-.1-.1c0-.1-.1-.1 0-.1v.1c0-.1.1 0 .1 0v-.1s0 0-.1 0c0 0-.1-.1-.1-.1 0-.1.1 0 .2-.1.1-.4.2-.8.1-1.3h.1c0-.1 0-.2-.1-.4 0 .5 0 .5.1.5z" fill="#4b4b4d"/><path d="m68.1 284.1c0-.1 0-.2-.1-.3v-.1s0 0 0-.1c.1 0 .1 0 .1.1 0-.1.1-.1-.1-.1 0-.1.1 0 .2-.1 0 0-.2-.1-.1-.1.1-.2-.2-.1-.1-.3 0-.1-.1-.1 0-.2 0 0-.1.1-.1 0s0-.1 0-.2h-.1c-.1-.3-.5-1.1-.6-1.4-.2-.4-.5-1.3-.8-1.8.1-.1 0-.2 0-.3 0 .1-.1.1-.1 0-.1-.2-.1 0-.2-.2-.2-.2-.4-1.3-.4-1.5-.2-.1-.1-.3-.3-.4-.1-.1-.2-.9-.3-1s0-.1 0-.3c-.2.1-.3 0-.3-.1s-.2-.2-.3-.3h.1c-.1-.1-.1-.2-.2-.3 0-.2.1-.5-.1-.6l.2-.2s-3.4 1-4 1.5h-.1c0 .1.1.1 0 .1v-.1c0 .1-.1 0-.1 0v.1h.1s.1 0 .1.1-.1.1-.1.1c.1.4.1.8.2 1.2 0 0 0 0-.1 0 .1.1.1.2.2.3 0 0-.1.1-.1.1.1-.1.3.6.3.6l.2-.1c0 .1-.2.1-.1.2.2 0 0 .2.2.2 0 0 0 .1-.1.1.1 0 .1 0 .1.1h.1l.1.1s-.1.1-.1.1c0 .2.6 1.1.7 1.3.1-.1 0-.1.1-.2.1 0 0 .1.1.1-.2.1 0 .1-.2.3h.1l-.1.1c.2.2.1 0 .1.3.1.1.3.1.2.2 0 0 .1-.1.1 0-.1 0 .1.1 0 .1 0 0 0 .1.2.1-.1 0-.1.1-.2.1v.1-.1c.1.1 0 .2.1.2v-.1c0 .1.1.1-.1.2l-.1-.1c0 .1.1.2.2.2.2.1.5.6.7.7l.1-.1.1.1s-.4.1-.4.1c.1.2.5 1.2.5 1.4 0 .1-.2.1-.2.1.1.1.1 0 .2.1h-.1s0 .1.1.1c0-.1.2-.1.3-.1v.1h-.1s.3 0 .3.1c0 .2.1.3.1.5-.1 0-.1 0-.1 0v.1c.1-.1.1 0 .1 0 .3 0 .1.3.3.3l.2-.1s0 .1.1.1v.1s.1.1.2.2.3.2.3.2c.1.1 0 .1.1.1s.2.1.2.1.1 0 0 0h.1.1c.1 0 .5.1.8 0 .4-.1.7-.2.8-.3 0 0-.1.1-.2 0 0-.1.1 0 .1-.1.1 0 .1-.1.2-.1.2-.2 0 0 .2-.2.1-.1.1-.2.1-.3s0-.1.1-.1c0 0 .1-.1 0-.1 0 0 .1-.1.1 0v-.1c0-.1.1-.2 0-.3 0-.1 0-.1.1-.2v.1c.1-.1.1-.2.1-.2z" fill="#4b4b4d"/><path d="m60.6 293h-.2c0-.1.2 0 .2-.1-.2-.1.1-.2 0-.2h.1c-.1 0 0-.1 0-.1s0 0-.1 0v-.1h.1c.1-.2.5-1.1.5-1.4-.1 0-.1.1-.2.1-.1-.1.1-.1 0-.1.2 0 .1-.1.3-.1h-.1.1c-.1-.3 0-.1 0-.3 0-.1-.1-.2-.1-.3h-.1c.1 0-.1-.1.1-.1 0 0 0-.1-.1-.1.1 0 .1-.1.2 0v-.1c0-.1.3-.3.2-.4l.1.3c0-.1-.2-.4 0-.4v.1c0-.1 0-.2 0-.3-.1-.1.1-.5-.1-.6h-.1l-.1-.1s.4.1.3.1c0-.2.2-1.2.3-1.4.1-.1.2 0 .2 0 0-.1-.1-.1-.1-.1h.1v-.1c-.1 0-.2 0-.3 0v-.1h.1s-.2-.1-.2-.2c.1-.2.1-.3.2-.5.1 0 .1.1.1.1v-.1c-.1 0-.1-.1-.1-.1-.2-.2 0-.3-.1-.4l-3-.7v-.1c-.1 0-.1.1-.1.1h.1c0 .1-.1 0-.1.1-.1 0-.1-.1-.1-.2 0 .1-.1.1 0 .1-.1 0-.1 0-.2 0 0 0 .1.1 0 .2s.1 0 0 .1c-.1 0 0 .1-.1.2h.1c-.1.1 0 .1-.1.2l.1.1c-.1.3-.2 1.5-.3 1.8-.1.5-.6 1.3-.6 1.8-.1 0-.1.2-.2.2h.1c-.1.2.1 0 .1.3s-.2 1.1-.4 1.3c.1.2 0 .3 0 .4s-.3.9-.3 1c.1.2-.1.1-.2.2.2 0 .2.2.2.2 0 .1-.4.3-.4.4h-.1c.1.1 0 .3 0 .3-.1.1.1.4.2.7l-.3.1s2.7.9 3.5.8h.1v-.1c.1-.1 0-.1.1-.1v.1c0-.1.1 0 .1 0s0 0 .1-.1c0 0 0 0-.1 0 0 0-.1-.1 0-.1 0-.1.2 0 .2 0 .2-.4 0-.9.1-1.3h.1c0-.1 0-.2 0-.4h.1c-.1.2.1-.5.1-.5z" fill="#4b4b4d"/><path d="m68.3 291.5h-.2c0-.1.2 0 .2-.1-.2-.1 0-.2-.1-.2 0 0 0-.1.1-.1-.1 0 0-.1-.1-.1 0 0 0 0-.1 0v-.1h.1c.1-.2.2-1.2.2-1.4-.1 0 0 .1-.2.1-.1-.1 0-.1-.1-.1.2 0 .1-.1.3-.2h-.1.1c-.1-.3-.1-.1 0-.3 0-.1-.2-.2-.1-.3h-.1c.1 0-.1-.1 0-.1 0 0 0-.1-.2-.1.1 0 .1-.1.2-.1v-.1c0-.1.2-.4.1-.4l.2.3c0-.1-.3-.4-.1-.4v.1c0-.1 0-.2-.1-.3-.2-.1 0-.5-.2-.6l-.1.1-.1-.1s.4.1.4.1c0-.2-.1-1.2 0-1.4.1-.1.2 0 .2 0 0-.1-.1 0-.1-.1h.1v-.1s-.2 0-.3 0v-.1h.1s-.3-.1-.2-.2c0-.2 0-.3 0-.5.1 0 .1 0 .1.1v-.1c-.1 0-.1-.1-.1 0-.2-.1 0-.3-.2-.4l-3-.1v-.1c-.1 0-.1.1-.1.1h.1c0 .1-.1 0-.1.1-.1 0-.1-.1-.1-.1 0 .1-.1.1 0 .1 0 .1-.1 0-.2.1 0 0 .1.1.1.2-.1.1.2 0 0 .1-.1 0 0 .1-.1.2h.1c-.1.1 0 .1-.1.2l.1.1c0 .3.1 1.5.1 1.8 0 .5-.3 1.4-.2 1.9-.1.1-.1.2-.1.2h.1c0 .2.1 0 .1.3.1.3 0 1.1-.1 1.3.1.1 0 .3.1.4s-.1.9-.1 1.1c.1.1-.1.1-.1.2.2 0 .3.1.3.2s-.3.3-.3.4h-.1c.1.1.1.3.1.3 0 .2.2.4.3.6l-.3.1s2.8.3 3.6 0h.1v-.1c0-.1-.1-.1 0-.1v.1c0-.1.1 0 .1 0s0-.1.1-.1c0 0 0 0-.1 0 0 0-.1-.1-.1-.1 0-.1.2 0 .2-.1.1-.4-.2-.9-.2-1.3h.1c0-.1 0-.2-.1-.4h.1c.1.2.1-.4.1-.4z" fill="#4b4b4d"/><path d="m57.5 267.4c-.1-.2.1-.2.1-.3l-.2-.1c0-.1 0-.1 0-.2v-.1.1c0-.1 0-.1 0-.2s0-.2-.1-.3-.1-.2-.2-.3 0 0-.1 0h.1c0-.1-.2-.2-.4-.4-.2-.1-.4-.2-.5-.2s0 0 0 0c-.1 0 0 0-.1 0h-.1v.1h-.1s0 0-.1 0-.3 0-.4.1 0 0-.1 0c-.1.1-.1.1-.2.1l-.1-.1h.1s-.1 0-.1.1l.1.1c0 .1-.1 0-.1 0-.1 0 0-.1 0-.2 0 0-.1 0-.1.1 0 0-.1-.1-.1 0v.1c-.1 0-.1.1-.1.2s0 0-.1 0 0 .1-.1.1h.1v.1s0 .1-.1.1v.1c-.2.2-.3.5-.4.8-.2.3-.6 1-.8 1.4-.1 0-.1.1-.2.1 0 0 .1 0 .1.1-.1.2 0 0 0 .2-.1.2-.6.9-.8 1 0 .2-.1.2-.1.3s-.5.6-.5.7-.1 0-.2.1c.1.1.1.2.1.2v.3h-.1c0 .1-.1.2-.1.3-.1.1-.3.2-.3.4h-.2s.1.1.2.2v.3.2c0 .1.1.2.1.2v.1c.1 0 .1.1.1.1s0 0 .1.1.2.3.5.4c.2.1.5.2.6.2h-.1.1s.1 0 .2.1c.2-.1 0 0 .2 0 .1 0 .1-.1.2-.1h.1s.1-.1.1-.1h.1.1c.1-.1.1-.1.1-.1s0-.1.1-.1h.1c.2-.2.5-.5.7-.8 0-.1.1-.2.1-.3h.1c-.1 0 .2-.5.3-.5l-.1-.1c.1-.1.1.1.2 0-.1-.1.1-.1 0-.2h.1c-.1-.1 0-.1 0-.1s0 0-.1 0v-.1s.1 0 .1.1c.1-.1.7-.8.7-.9-.1 0-.1.1-.2 0 0-.1.1 0 0-.1.2.1.1-.1.3 0l-.1-.1h.1c0-.2 0-.1.1-.2s0-.2 0-.2h-.1c.1 0 0-.1.1-.1 0 0 .1-.1 0-.1h.1s0 0 0-.1.1-.1.1-.2h-.1s0-.1.2 0v.1c0-.1.1-.1.1-.2s.2-.6.1-.8h-.1v-.1s.2.2.2.2c.1-.1.2-.4.3-.5.1 0 .1.1.1.1 0-.1-.1-.1 0-.1 0 0 .1 0 .1.1 0 0 0 0 0-.1 0 0-.1-.1-.2-.1l.1-.1h.1s-.1-.1-.1-.2c.1-.4.1-.6.3-.7v.1s0 0 0-.1c-.1.1 0 0 0 0z" fill="#4b4b4d"/><circle cx="24.9" cy="300.2" fill="#cecfd1" r="1.6" stroke="#cecfd1" stroke-miterlimit="10" stroke-width=".8"/><path d="m151.7 59.6c9.1 4.2 11.5 17.2 7.7 25.6-1.3 2.8-6.7 9.9-9.4 5.2-1.7-2.9 1.7-5.5 4.5-4.4 6.2 2.5 1 14.1 0 18.3" fill="none" stroke="#1a171b" stroke-miterlimit="10" stroke-width=".5"/><path d="m136.5 123c.1 0 .2 0 .2-.1 0-.2.3-.1.2-.3 0-.1.1-.1.1-.2 0 0 .1.1.1.1 0-.1.1-.1 0-.3h.1c.2-.3 1-1.4 1.2-1.7.3-.4.9-1.4 1.3-1.8-.1-.2 0-.2 0-.3 0 .1.1.1.1.1.1-.2.1 0 .3-.2s.8-1.4.8-1.7c.2 0 .2-.3.4-.3.1-.1.5-1 .6-1.1.2-.1 0-.2 0-.3.2.1.3.1.4 0 .1 0 .3-.1.4-.2l-.1-.1c.2 0 .6-.3.7-.3.1-.2 1.2.7 1.4.6l.2-.1 1.7 1.1s1.1.8 1.6 1.5l.1.1c0 .1-.1.1 0 .1v-.1c0 .1.1.1.1.1v.1s0 0 0-.1c-.1 0-.2 0-.2.1s.1.1.1.2c-.2.5-.3 1-.6 1.4h.1c-.1.1-.2.2-.3.3 0 .1.1.1.1.1-.1-.1-.5.6-.4.6l-.2-.1c-.1.1.2.2.1.3-.3-.1-.1.2-.2.2 0 0 0 .1.1.1-.1-.1-.1 0-.1 0s0 0-.1-.1l-.1.1c0 .1.1.1.1.1-.1.2-.5 1.4-.7 1.6-.1-.1 0-.1-.1-.3-.1 0 0 .1-.1.1.2.2 0 .2.2.4l-.1-.1.1.1c-.3.2-.1 0-.2.3-.1.1-.3.1-.3.2 0 0-.1-.1-.1-.1.1.1-.1 0 0 .1 0 0-.1.2-.2 0 .1.1 0 .2.1.2 0 0 0 .1-.1.1v-.1c-.1.1 0 .3-.2.2v-.1c0 .1-.1.1 0 .2h.1c-.1.1-.1.2-.3.2s-.7.6-1 .5l-.1-.1h-.2s.4.2.4.2c-.1.2-.8 1.2-.9 1.5 0 .1.2.2.2.2-.1.1-.2 0-.2 0s.1.1.1.1 0 .1-.1 0c0-.1-.2-.2-.3-.3v.1l.1.1s-.3-.1-.3 0c-.1.2-.2.4-.3.5h.2v.1c-.1-.1-.1 0-.1 0-.3 0-.2.3-.4.3l-.7-.5c-.1.1-.5.4-1 .6s-1 .2-1.2.1c.1 0 .2 0 .2-.1-.1 0-.1 0-.2 0-.1.1-.2 0-.3.1v-.1h-.1c-.4-.2-.1 0-.4-.2-.2-.1-.2-.2-.4-.2 0 0 .1 0 0 0 0 0-.1-.1-.1-.1s-.2-.1-.1-.1c0 0-.2-.1-.1 0 0 0-.1-.1-.1-.1h.1c-.1-.1-.2-.2-.2-.3h.1c-.1-.1-.1-.1-.2-.2v.1c-.1-.1-.1-.2-.2-.4 0-.1-.1-.4-.1-.6 0-.3 0-.5.1-.6v.1s0-.1.1-.1c0 0-.2.1-.2.1 0-.1.1-.5.3-.9l-.7-.5v.1c-.1-.1 0-.1 0-.2l.1.1c.1 0-.1-.1 0-.1-.1-.1-.2 0-.2 0 0-.1 0-.2.1-.1 0 .1-.1.1-.1 0z" fill="#4b4b4d"/><path d="m147.1 108.3.1-.1c.1-.1.2-.1.2-.1l-.2.1c.1-.1 0-.1 0-.1.1 0 .1-.1.2-.1v.1c.1 0 .2 0 .3-.1s0-.1.2-.2c.9-.4 2-.5 2.9-.1.3.1.5.2.7.4h.1s.3.2.5.5.4.6.4.6l-.1.1c.1.2.1 0 .2.3-.1.2.2.4.1.6 0 0 0 .1.1.1-.1.1 0 .2 0 .2s0 0-.1 0v.2c0 .1.1.1.1 0 .1.2.1 1-.2 1.8-.2.8-.7 1.5-1 1.7 0-.1.2-.2.1-.3-.1.1-.1.2-.2.2.1.1-.2.3-.2.5h-.1v.1c-.6.4-.3-.1-.8.2-.3.2-.5.1-.7.2 0 0 .1-.1 0-.1 0 .1-.1.1-.2.1s-.3.4-.2.2c0 .1-.3.1-.1.1-.1 0-.2.1-.2 0h.1c-.3 0-.4.1-.6.1l.1-.1c-.2 0-.3 0-.4.1h.2c-.3 0-.4 0-.6-.1h.1c-.1 0-.5-.2-.9-.4s-.6-.5-.7-.6h.1c0-.1-.1-.1-.1-.2 0 0-.1.3-.1.3-.2-.1-.7-.6-.9-1.2-.3-.6-.3-1.3-.3-1.5s-.1 0-.1 0c0-.2.1-.1.1-.3h-.1c0-.1 0-.2 0-.2 0 .1.1.1.2.1 0-.1 0-.2 0-.2h-.1c0-.1.2-.4.3-.6.1-.4.2-.5.4-.8 0 0-.1.1-.2.1 0 0 .1-.1.1-.2 0 .1.1-.1.1 0 .3-.2.7-.3.9-.4 0 0 .1 0 .5.3.1-.1.2-.2.2-.2-.2-.4-.4-.8-.2-1.1z" fill="#4b4b4d"/><path d="m148.2 114.8c-.1 0 0 .1 0 .1-.1.2-.1.3-.2.5-.1 0-.1.1-.1.1s0 0 .1.1c0 0-.2.2-.2.2l-.1-.1s.1.1 0 .1c-.1-.1 0 .1-.1 0v.1c-.1 0 0 0 0 0s0 .1.1 0c0 .1-.2.5-.3.5 0 0 0 0-.1-.1-.1 0 0 0-.1 0 .1.1 0 .1.1.2h-.1c-.1 0-.1 0-.1.1 0 0 .2.1.3.2s0 0-.1 0c0 0 0 .1.1.1v.1c-1-.2-2-.6-2.7-1.3.1-.2.3-.3.4-.4 0-.1 0-.1 0-.1s.1.1.1 0c.1-.1 0 0 .1 0 .1-.1.3-.5.3-.6.1 0 .1-.1.2-.1s.2-.3.2-.4c.1 0 0-.1 0-.1.1.1.2.1.2 0h.2c.1 0 .1-.1.1-.1 0-.1 0-.2.1-.2l-.1-.1s1.6 1 1.9 1.3l-.2-.1c.1 0 .1 0 0 0z" fill="#4b4b4d"/><path d="m132.5 138.5c.1.2-1.1 1.3-1.1 1.5 0 .1-.2.1-.2.1.1.1.1 0 .1.1h-.1v.1c0-.1.2-.1.2-.1l-1.8 1h-.1s.2 0 .2.1c0 .2-.3.8-.2 1-.1 0-.1 0-.1 0v.1c.1-.1.1.1.1 0 .2.1 3-.7 3.2-.6l3.5-.9v.1c.1 0 0-.1 0-.1h-.1c-.1-.1.1 0 0-.1.1 0 .1 0 .2.1 0-.1 0-.2-.1-.1 0-.1.1 0 .1-.1 0 0-.2-.1-.1-.2 0-.2-.2-.2-.2-.3s-.1-.1 0-.2c0 0-.1.1-.1 0s-.1-.2 0-.3h-.1c-.1-.3-.7-1.6-.8-1.9" fill="#4b4b4d"/><path d="m123.9 130.6h.1l.1.1s-.3-.2-.3-.2c-.1.2-1.3-.2-1.4 0-.1.1-.9-.1-.9-.1 0 .1-.6-.1-.6 0 0 0-.1 0-.1-.1 0 0-.5 0-.4.1-.4 0-.1-.1-.4-.1l-.1.1h-.1s.2.2.1.3c-.1.2-.1.5-.2.6 0 0 .9.6.9.6s0 .1-.1.1c.1 0 0 .1.1.1.1.2.2-.1.3.1l4.5 2.3s0 .1-.1.1c.1 0 .1-.1.1-.1l-.1-.1c0-.1.1 0 .1-.1.1 0 .1.1.1.2 0-.1.1-.1 0-.2.1 0 .1.1.2 0 0-.1-.1-.2 0-.2.2-.1 0-.3.1-.4.1 0 0-.2.1-.2h-.1c.1-.1.1-.2.2-.2l-.1-.1c.2-.3.4-1.1.5-1.5" fill="#4b4b4d"/><path d="m132.9 126.7c0 .1.6-.2.6-.3l.1.1c.1-.1-.1-.2.1-.2.2.2.2-.1.3 0v-.1c.1.1.1 0 .1 0v.1h.1c0-.1 0-.1-.1-.1.2-.2 1-.8 1.2-.8 0 .1-.1.1 0 .2.1 0 .1-.1.1 0-.1-.2.1-.1 0-.3l.1.1v-.1c.3 0 .1 0 .3-.1.1-.1.3.1.3 0 0 0 0 .1.1.1-.1-.1.1 0 .1-.1v-.1c0-.1.1-.2 0-.2 0 0 .1-.1.1 0v.1c.1 0 .1-.2.2-.1v.1c.1 0 .1 0 .1-.2h-.1c.1-.1.2-.1.3-.1.2.1.8-.1 1-.1v.1h.1s-.2-.3-.2-.3c.2-.1 1.2-.6 1.3-.7 0-.1-.1-.2-.1-.2.1 0 .1.1.2 0 0 0-.1-.1-.1-.1s0-.1.1 0c0 .1.1.2.1.3l.1-.1v-.1s.2.2.2.1c.1-.1.3-.2.5-.3 0 0-.1-.1-.1-.1s.1 0 .1-.1c0 .1.1 0 .1.1.2.1.3-.1.4-.1l1.9 3.5s.1 0 .1-.1c0 0 0 .1-.1.1l-.1-.1c-.1 0 0 .1-.1.1 0 .1.1.1.2 0 0 0-.1.1-.1 0 0 .1.1.1 0 .2-.1 0-.2-.1-.2 0-.1.2-.3 0-.3.1s-.1 0-.2.1c0 0 0-.1-.1-.1 0 .1-.1.1-.1.2l-.1-.1c-.3.2-1.1.5-1.4.6-.4.2-1.3.6-1.8.7 0 .1-.1.2-.2.2 0-.1 0-.1-.1-.1-.2.1 0 0-.3 0-.3.1-1.2.7-1.3.9-.2-.1-.3.1-.4.1-.2 0-.8.5-.9.6-.2 0-.1.1-.2.2-.1-.1-.2-.2-.3-.2s-.3 0-.4 0l.1.1c-.1 0-.3.1-.3.1-.1.1-.3.4-.5.4v.3s-.1-.1-.2-.3c-.1 0-.1 0-.1 0-.1 0 0 .1-.1.1s-.2 0-.2 0h-.1-.1-.1c-.1 0-.5-.1-.8-.3s-.5-.5-.6-.6c0 0 .1.1.1.1 0-.1-.1-.1-.1-.1-.1 0-.1-.1-.2-.1-.1-.3 0-.1-.1-.3 0-.1 0-.2 0-.3v-.1-.1-.1-.1c0-.1 0-.2 0-.2 0-.1 0-.1 0-.2v.1c0-.1 0-.2.1-.3 0-.1.1-.2.2-.3s.3-.2.3-.2h.1s-.1-.1-.1 0c0 0 .1 0 .1-.1h.1c0-.1.1 0 .1-.1l-.1.1s0-.1-.1-.1c0 0 0 0 0-.1v.1s.1.1.2 0c.1 0-.1-.1 0-.2.3-.3.6-.6 1-.8.1 0 .2-.1.3-.1 0 .5-.1.4-.1.4z" fill="#4b4b4d"/><path d="m129.6 122h.3.1.1c0-.1-.1-.1-.1-.1.1 0 .1-.1.1 0 .1 0 0-.1.1-.2 0 0 .1.2.2.1s.2.2.3.1c0-.1.1 0 .2 0v.1c.1-.1.1 0 .2-.1l.1.1c.3 0 1.1.2 1.5.2.5.1 1.4.1 1.9.3.1-.1.2-.1.3-.1-.1 0 0 .1 0 .1.2 0 0 .1.2.1.3.1 1.3 0 1.6 0 .1.2.3.1.4.2s.9 0 1.1 0c.1.1.1-.1.2-.1 0 .2.1.3.1.3.1 0 .2.2.3.2v-.2c.1.1.3.1.3.1.2 0 .4-.2.6-.1l.2-.3s0 3.6-.4 4.3v.1h-.1c-.1 0-.1-.1-.1 0h.1c-.1 0 0 .1 0 .1s-.1 0-.1.1c0 0 0 0 0-.1 0 0-.1-.1-.1-.1-.1 0 0 .2-.1.2-.4.1-.8.1-1.2.1v.1c-.1 0-.2 0-.3-.1 0 0-.1.1-.1.1 0-.1-.6-.1-.6-.1v-.2c-.1 0-.1.2-.2.1 0-.2-.2 0-.2-.1 0 0-.1 0-.1.1 0-.1-.1 0-.1-.1 0 0 0 0 0-.1h-.1v.1c-.2 0-1.2-.2-1.4-.3 0-.1.1 0 .1-.2-.1-.1-.1 0-.1-.1 0 .2-.1.1-.2.3v-.1.1c-.3-.2-.1-.1-.3-.1-.1 0-.2-.2-.3-.2v-.1c0 .1-.1-.1-.1 0 0 0-.1 0-.1-.2 0 .1-.1.1-.1.2h-.1c-.1 0-.2.1-.2-.1v-.1c-.1 0-.1 0-.2.1l.1.1c-.1 0-.2 0-.3-.1-.1-.2-.7-.3-.8-.5l.1-.1-.1-.1v.4c-.2 0-1.2-.2-1.4-.1-.1.1 0 .2 0 .2-.1-.1 0-.1-.1-.1v.1h-.1s0-.2.1-.3h-.1v.1s0-.3-.1-.2c-.2 0-.3 0-.5 0 0 .1 0 .1.1.1h-.1c0-.1-.1-.1 0-.1-.1-.2-.3 0-.4-.2v-.2h-.1s0 0-.1 0c0 0-.2-.1-.3-.2s-.3-.2-.3-.2c-.1-.1-.1 0-.1-.1s-.1-.2-.1-.2 0 0-.1 0v-.1-.1c-.1-.1-.2-.4-.3-.8 0-.4 0-.7.1-.8v.2c0-.1 0-.1.1-.1-.1-.1 0-.1 0-.2.2-.2 0-.1.2-.3.1-.1.2-.1.2-.2s.1-.1.1-.1.1-.1.1 0c0 0 .1-.1 0-.1h.1c.1-.1.1-.1.2-.1s.1 0 .1-.1h-.1c.1.1.2.1.3.1z" fill="#4b4b4d"/><path d="m131.9 136h.2c0-.1-.2 0-.2-.1.2-.1-.1-.2.1-.2 0 0 0 0-.1 0 .1 0 0-.1 0-.1h.1v-.1c-.1 0-.1 0-.1 0-.1-.2-.4-1.1-.4-1.4.1 0 .1.1.2.1.1-.1-.1-.1 0-.1-.2 0-.1-.1-.3-.1h.1-.1c.1-.3.1-.1 0-.3 0-.1.2-.2.1-.3h.1c-.1 0 .1-.1-.1-.1 0 0 0-.1.1-.1-.1 0-.1-.1-.2 0v-.1h.1c0-.1-.3-.3-.2-.4l-.1.3c0-.1.2-.4.1-.4v.1c0-.1 0-.2 0-.3.1-.1-.1-.5.1-.6h.1l.1-.1s-.4.1-.3.1c0-.2-.1-1.2-.3-1.4-.1-.1-.2 0-.2 0 0-.1.1-.1.1-.1h-.1v-.1h.3v-.1h-.1s.2-.1.2-.2c-.1-.2-.1-.3-.1-.5-.1 0-.1.1-.1.1v-.1c.1 0 .1-.1.1-.1.2-.2 0-.3.1-.4l3-.6v-.1c.1 0 .1.1.1.1h-.1c0 .1.1 0 .1.1.1 0 .1-.1.1-.2 0 .1.1.1 0 .1h.2s-.1.1 0 .2-.1 0 0 .1c.1 0 0 .1.1.2h-.1c.1.1 0 .1.1.2l-.1.1c.1.3.2 1.5.2 1.8 0 .5.6 1.4.5 1.9.1 0 .1.2.2.2-.1 0-.1 0-.1 0 .1.2-.1 0-.1.3s.2 1.1.3 1.3c-.1.2 0 .3-.1.4 0 .1.3.9.2 1-.1.2.1.1.2.2-.2 0-.2.2-.2.2 0 .1.4.3.4.4h.1c-.1.1 0 .3 0 .3.1.1-.1.4-.2.7l.3.1s-2.7.8-3.5.6h-.1v-.1c-.1-.1 0-.1 0-.1v.1c0-.1-.1 0-.1 0s0-.1-.1-.1h.1s.1-.1.1-.1c0-.1-.1 0-.2 0-.2-.4.1-.9 0-1.3 0 0 0 0-.1 0 0-.1 0-.2 0-.4-.1 0-.1 0-.1 0-.3.1-.4-.5-.4-.5z" fill="#4b4b4d"/><path d="m124.8 128.5.1.1c.1-.1-.1-.1-.1-.2.2.1.1-.2.2-.1 0 0 0-.1-.1-.1h.1s0 0 .1.1h.1s-.1-.1-.1-.1c.1-.2.5-1.1.6-1.3.1.1 0 .1.1.2.1 0 0-.1.1-.1-.2-.1 0-.1-.2-.3l.1.1-.1-.1c.3-.2.1 0 .2-.2.1-.1.3-.1.3-.2 0 0 .1.1.1.1-.1-.1.1 0 0-.1 0 0 .1-.1.2 0-.1-.1 0-.2-.1-.1 0 0 0-.1.1-.1v.1c.1-.1 0-.4.1-.4l-.3.1c0-.1.4-.2.3-.3h-.1l.2-.2c.2 0 .3-.4.5-.4l.1.1h.1s-.4-.2-.3-.1c.1-.2.7-1 .7-1.2 0-.1-.2-.1-.2-.1.1-.1.1 0 .2 0h-.1s0-.1.1 0c0 .1.2.1.2.2v-.1h-.1s.3.1.3 0c0-.2.2-.3.2-.5-.1 0-.1 0-.1 0s0 0 0-.1c.1.1.1 0 .1 0 .3 0 .2-.2.3-.2l2.6 1.6v-.1.1l-.1-.1c-.1 0 .1.1 0 .1.1.1.1 0 .2 0 0 .1 0 .1-.1.1 0 .1.1.1.1.1-.1 0-.2 0-.1.1 0 .2-.1-.1-.1.1 0 .1-.1.1-.1.2 0 0-.1-.1-.1 0s-.1.1 0 .2h-.1c-.1.3-.9 1.2-1 1.5-.3.4-.5 1.4-.8 1.7.1.1 0 .2 0 .3 0-.1-.1-.1-.1-.1-.1.2-.1 0-.2.2-.2.2-.6.9-.6 1.2-.2 0-.2.2-.3.3s-.4.8-.5.9c-.2.1 0 .1 0 .3-.1-.1-.3-.1-.3 0-.1 0 .1.4 0 .5h.1c-.1 0-.2.2-.2.3-.1.2-.4.2-.6.4l.2.2s-2.6-1.3-3-1.8h-.1c0-.1.1-.1 0-.1v.1c0-.1-.1-.1-.1-.1v-.1c.1 0 .1 0 .1-.1s-.1-.1-.1-.2c.1-.4.6-.6.8-1 0 0 0 0-.1 0 .1-.1.1-.2.2-.3 0 0-.1-.1-.1-.1.3-.4.6-.9.6-.9z" fill="#4b4b4d"/><ellipse cx="138.8" cy="121.5" fill="#00b0e5" rx="1.8" ry="1.8" stroke="#00b0e5" stroke-miterlimit="10" stroke-width=".8" transform="matrix(.6019 -.7986 .7986 .6019 -41.7581 159.2103)"/><path d="m146.7 130.4-.2.7h.1s-.3.1-.2.1c.1.2-.7 1.5-.6 1.7 0 .1-.1.1-.1.1.1.1.3.2.3.3h-.1s0 .1 0 0c0 0 .1-.1.2-.1v.1h-.1s.2 0 .2.1c0 .2.1.3.2.4h-.1v.1c.1-.1.1 0 .1 0 .2 0 .1.2.2.3l1.3-.2v.1-.1h.2c-.1-.1.6-.3.6-.3.1 0 .1 0 .1.1 0 0 .5-.4.4-.4 0-.1.1 0 .1-.1 0 0-.1-.1-.1-.1 0-.1-.2-.1-.1-.3 0-.1-.1-.1 0-.2 0 0-.1.1-.1 0s-.1-.1 0-.2h-.1c-.1-.3-.4-1-.5-1.2v-.9" fill="#4b4b4d"/><path d="m145.3 118.1c.1-.1-.1-.2 0-.3l.2-.1c0-.1 0-.1 0-.2v-.1.1c0-.1 0-.1.1-.2s.1-.2.2-.3.2-.2.2-.2h.1-.1c.1 0 .2-.2.5-.3.2-.1.5-.1.5-.1h.1.1.1s0 .1.1.1.2.1.3.1h.1c0 .1.1.1.2.2h.1s0 0 0-.1c0 0 .1 0 .1.1h-.1c0 .1.1 0 .1.1.1 0 .1-.1.1-.1s.1.1 0 .1h.1s-.1.1 0 .1c.1.1 0 .1 0 .2.1 0 0 .1.1.1 0 0 0 0-.1 0v.1s0 .1.1.1l-.1.1c.1.2.2.6.2.8.1.4.4 1.1.4 1.5.1 0 .1.1.1.2h-.1c.1.2 0 0 0 .2s.4 1 .5 1.2c-.1.1.1.2 0 .4 0 .1.3.7.3.8s.1.1.2.1c-.1 0-.2.1-.2.2s-.1.2-.1.3h.1v.3c.1.1.2.3.2.4h.2s-.1 0-.3.1v.3s0 .1-.1.2-.1.2-.1.2c-.1.1 0 0-.1.1-.1 0-.1.1-.2.1s0 0-.1 0 0 0-.1 0c-.1.1-.3.2-.6.2-.3.1-.5 0-.6 0h.1-.1s-.1 0-.2 0c-.2-.1 0 0-.2-.1-.1-.1-.1-.1-.2-.1s0-.1-.1-.1c0 0-.1-.1 0-.1 0 0-.1-.1-.1 0 0 0 0 0 0-.1-.1-.1-.1-.1-.1-.2s0 0 0-.1 0 0 0-.1v-.1c-.2-.3-.4-.6-.4-.9 0-.1 0-.2 0-.3h-.1c.1 0-.1-.5-.1-.5h.1c0-.1-.2 0-.2-.1.2-.1-.1-.1 0-.2 0 0 0 0-.1 0 .1 0 0-.1 0-.1h.1v-.1h-.1c-.1-.1-.5-.9-.5-1.1.1 0 0 .1.2.1 0-.1 0-.1 0-.1-.2 0-.1-.1-.2-.1h.1-.1c0-.2 0-.1-.1-.2 0-.1.1-.2 0-.2h.1c-.1 0 0-.1-.1-.1 0 0 0-.1.1-.1-.1 0-.1-.1-.1 0 0 0 0 0 0-.1s-.1-.1 0-.2h.1c0-.1 0-.1-.1-.1v.1c0-.1 0-.1 0-.2.1-.1 0-.6.1-.8h.1l.1-.1s-.3.1-.2.1c-.1-.2-.1-.4-.2-.5-.1 0-.1 0-.2 0 0-.1.1-.1.1-.1h-.1s0 0 0-.1h.2v-.1h-.1s.2-.1.1-.2c-.1.5-.1.3-.3.2v.1z" fill="#4b4b4d"/><path d="m149.9 125.5h-.1c0 .1.1 0 .1.1-.1 0 0 .1-.1.1s0 0 0 .1h.1c0 .2 0 .9-.1 1-.1 0 0-.1-.1-.1s0 .1 0 .1c.1 0 0 .1.1.2h-.1c-.1.2 0 0-.1.2 0 .1-.1.1-.1.2 0 0 0 0-.1 0 .1 0-.1.1 0 .1 0 0 0 .1-.1.1 0 0 0 .1.1.1v.1c0 .1 0 .1-.1.2 0 .1 0 .1.1.1 0 .1 0 .1-.1.2s-.2.5-.4.5l-.1-.1-.1.1h.2c0 .1-.2.9-.2 1s.1 0 .1 0c0 .1-.1 0-.1.1h.1s-.1 0-.2-.1v.1h.1s-.2 0-.1.1v.4h.1v.1c-.1 0-.1 0-.1 0-.2.1 0 .2-.1.3l-2.2-.3v.1-.1h.1c0-.1 0 0 0-.1-.1 0-.1 0-.1.1v-.1s-.1 0-.1-.1c0 0 .1-.1.1-.1-.1-.1.1-.1.1-.2v-.1h.1c0-.1 0-.1 0-.2h.1c0-.2.2-1 .3-1.2.1-.3.2-1 .3-1.3-.1-.1 0-.1 0-.2h.1c0-.2 0 0 .1-.2s.1-.9.1-1.1c.1-.1.1-.2.1-.3s.1-.7.1-.8c.1-.1 0-.1 0-.2.1 0 .2 0 .2-.1s.1-.1.2-.2h-.1c.1-.1.1-.2.1-.2 0-.1-.1-.3 0-.4l-.1-.1s1.9.2 2.3.5h.1c0 .1-.1.1 0 .1v-.1c0 .1 0 0 .1 0v.1s-.1 0-.1.1c0 0 .1 0 .1.1 0 .3 0 .6-.1.9 0 .1 0 .2-.1.2 0 0 .1 0 .1.1-.5-.4-.5.1-.5.1z" fill="#4b4b4d"/><g fill="none"><path d="m86.7 220.5 15.7-46.7" stroke="#00b0e5" stroke-linecap="round" stroke-linejoin="round" stroke-width="1.4"/><path d="m117.9 122.5 16.6-48.6" stroke="#00b0e5" stroke-linecap="round" stroke-linejoin="round" stroke-width="1.4"/><path d="m136.8 71.3c0 .8-.6 1.4-1.3 1.5-.8 0-1.4-.6-1.5-1.3l-.1-2.7c0-.8.5-1.4 1.3-1.5.8 0 1.4.5 1.5 1.3z" stroke="#1a171b" stroke-width=".8"/><path d="m135.4 67.3c0-1.6-.6-3.3-.3-4.9" stroke="#1a171b" stroke-width=".8"/><path d="m158 23h1.5" stroke="#1a171b" stroke-width=".5"/><path d="m161.6 23h35.9" stroke="#1a171b" stroke-dasharray="3.1622 2.1081" stroke-width=".5"/><path d="m198.5 23h1.5" stroke="#1a171b" stroke-width=".5"/><path d="m158 120.8h1.5" stroke="#1a171b" stroke-width=".5"/><path d="m161.6 120.8h35.9" stroke="#1a171b" stroke-dasharray="3.1622 2.1081" stroke-width=".5"/><path d="m198.5 120.8h1.5" stroke="#1a171b" stroke-width=".5"/></g><path d="m178.6 25.7c0 31-1.4 62-.6 93 0 .3 1.9 0 1.9-.5-.8-31 .6-62 .6-93 0-.3-1.9-.1-1.9.5z" fill="#b0b2b3"/><path d="m177.3 30c.2-2.1 2.1-4.3 3.4-5.9-.6.1-1.2.3-1.8.4.9 1.1 1.2 2.4 1.7 3.7.4 1.1.9 2.1 1 3.3.1.5 2 .1 1.9-.5-.2-1.3-.8-2.5-1.2-3.7-.4-1.3-.8-2.5-1.7-3.5-.3-.4-1.5 0-1.8.4-1.3 1.6-3.3 4-3.5 6.1 0 .7 2 .3 2-.3z" fill="#b0b2b3"/><path d="m174.4 114.7c1.3 1.8 2.2 3.8 3.4 5.6.3.5 1.5-.1 1.8-.4 1.5-1.5 2.6-3.3 3.5-5.3.2-.5-1.7-.3-1.9.3-.9 1.9-1.9 3.5-3.4 5 .6-.1 1.2-.3 1.8-.4-1.3-1.8-2.2-3.8-3.4-5.6-.3-.3-2.2.3-1.8.8z" fill="#b0b2b3"/><path d="m79.4 7.3 1.4.4" fill="none" stroke="#1a171b" stroke-width=".5"/><path d="m82.9 8.3 34.3 10.3" fill="none" stroke="#1a171b" stroke-dasharray="3.1621 2.1081" stroke-width=".5"/><path d="m118.2 18.9 1.5.4" fill="none" stroke="#1a171b" stroke-width=".5"/><path d="m.1 257.3 1.4.4" fill="none" stroke="#1a171b" stroke-width=".5"/><path d="m3.5 258.3 34.4 10.3" fill="none" stroke="#1a171b" stroke-dasharray="3.1621 2.1081" stroke-width=".5"/><path d="m38.9 268.9 1.4.4" fill="none" stroke="#1a171b" stroke-width=".5"/><path d="m98.5 15.6c-8.6 28.7-18.3 57.1-27.5 85.5-12 36.8-24 73.5-35.9 110.2-5.4 16.5-10.7 33-15.2 49.8-.2.9 1.7.7 2-.1 8.4-31 19.1-61.5 29-92.1 12.7-39 25.4-77.9 38-117 3.9-12 7.9-24 11.5-36.1.2-1-1.7-1-1.9-.2z" fill="#b0b2b3"/><path d="m95.9 19.2c.7-1.8 3.1-3.3 4.6-4.3-.5 0-1 0-1.6-.1.5 1.2.5 2.4.6 3.6 0 1.3.2 2.6.1 3.8-.1.8 1.9.5 1.9-.2.1-1.2 0-2.4-.1-3.6-.1-1.4-.1-2.8-.6-4.1-.2-.6-1.2-.3-1.6-.1-1.9 1.2-4.5 3-5.4 5.2-.1.7 1.9.5 2.1-.2z" fill="#b0b2b3"/><path d="m17.5 256.3c.7 2.1 1 4.3 1.7 6.3.2.6 1.2.3 1.6.1 1.9-1.1 3.5-2.5 4.9-4.1.8-.9-1.1-1-1.6-.5-1.3 1.5-2.8 2.8-4.6 3.8.5 0 1.1.1 1.6.1-.7-2.1-1-4.3-1.7-6.3-.2-.7-2.2-.1-1.9.6z" fill="#b0b2b3"/><path d="m135.5 70.9 3.4 48.4" fill="none" stroke="#00b0e5" stroke-linecap="round" stroke-linejoin="round" stroke-width="1.4"/><path d="m63.5 277.1c-3.4 2.8-5 2.6-8.8 4.6-2.1 1.1-6 3.3-6.9 5.6-1 2.5-1.4 3.6-1.4 6.3 0 2.5 0 4.1-2.4 5.2-2 1-3.2 1-5.4 1.1-2.6.1-9.9-.4-9.4-1.5.4-.8 4.5-1.2 9.2-1.1 1.9.1 16.5 3.4 2.5 4.6-12.7 1.1-19.2-4.4-27.4-1.8" fill="none" stroke="#cecfd1" stroke-linecap="round" stroke-linejoin="round" stroke-width="1.4"/><path d="m51.3 274.5c.1.1 0 0 0 .1.1 0 0 .1.1.2 0 0 0 0-.1 0 .1 0 0 0 0 .1v.1h-.1v1.1c.1 0 0-.1.1-.1s0 .1 0 .1c-.1 0 0 .1-.2.2h.1c.1.2 0 0 0 .2 0 .1.1.1.1.2h.1c-.1 0 .1.1 0 .1 0 0 0 .1.1.1 0 0-.1.1-.1.1v.1.2c0 .1 0 .1-.1.1 0 .1 0 .1.1.2s.2.5.3.6h.1l.1.1h-.2c0 .1.2.9.1 1 0 .1-.1 0-.1 0 0 .1.1 0 .1.1h-.1v.1s.1 0 .2-.1v.1h-.1s.2 0 .1.1v.4h-.1v.1h.1c.1.1 0 .2.1.3l2.3-.2v.1-.1h-.1c0-.1 0 0 0-.1.1 0 .1 0 .1.1v-.1s.1 0 .1-.1c0 0-.1-.1-.1-.1.1-.1-.1-.1-.1-.2v-.1h-.1c0-.1 0-.1 0-.2h-.1c0-.2-.2-1.1-.2-1.3-.1-.3-.1-1-.2-1.3.1-.1 0-.1 0-.2h-.1c0-.2 0 0-.1-.2s-.1-.9-.1-1.1c-.1-.1 0-.2-.1-.3 0-.1 0-.7-.1-.8s0-.1.1-.2c-.1 0-.2-.1-.2-.1s-.1-.1-.1-.2h.1c-.1-.1-.1-.2-.1-.2 0-.1.1-.3 0-.4l.1-.1s-1.9.1-2.3.4h-.1v.1-.1c0 .1 0 0-.1 0v.1s.1 0 .1.1-.1 0-.1.1v.9c0 .1 0 .2.1.2h-.1c.8-.7.8-.3.8-.3z" fill="#4b4b4d"/><path d="m54.6 279.2.3.6-.1.1h.3c-.1.2.8 1.5.8 1.7 0 .1.1 0 .1.1-.1.1-.2.2-.3.3h.1v.1s-.1-.1-.2-.1v.1h.1s-.2 0-.2.1c0 .2-.1.3-.1.5h.1v.1c-.1-.1-.1.1-.1 0-.2.1-.1.2-.2.3l-1.3-.1v.1-.1h-.2c.1-.1-.6-.2-.6-.3-.1 0-.1 0-.1.1 0 0-.5-.4-.4-.4 0-.1-.1 0-.1-.1 0 0 .1-.1.1-.1 0-.1.2-.2.1-.3 0-.1 0-.1 0-.2 0 0 .1.1.1 0s0-.1 0-.2h.1c.1-.3.3-1 .4-1.3l-.1-.9" fill="#4b4b4d"/><path d="m81.7 260.2 1.2 4 3.7-4" fill="none" stroke="#1a171b" stroke-linecap="round" stroke-linejoin="round" stroke-width=".5"/><path d="m65.4 276.3s11.2-2.8 16.6-10.4" fill="none" stroke="#1a171b" stroke-linecap="round" stroke-linejoin="round" stroke-width=".5"/><circle cx="64.8" cy="275.5" fill="#00b0e5" r="1.8" stroke="#00b0e5" stroke-miterlimit="10" stroke-width=".8"/><path d="m102.8 170.7 14.2-45.2" fill="none" stroke="#00b0e5" stroke-linecap="round" stroke-linejoin="round" stroke-width="1.4"/><path d="m89.8 357.3h38.3" fill="none" stroke="#4b4b4d" stroke-miterlimit="10" stroke-width=".8"/></svg>